G04 #@! TF.GenerationSoftware,KiCad,Pcbnew,7.0.7-7.0.7~ubuntu20.04.1*
G04 #@! TF.CreationDate,2024-03-24T22:46:20+02:00*
G04 #@! TF.ProjectId,rtl-module-breakout,72746c2d-6d6f-4647-956c-652d62726561,rev?*
G04 #@! TF.SameCoordinates,Original*
G04 #@! TF.FileFunction,Soldermask,Bot*
G04 #@! TF.FilePolarity,Negative*
%FSLAX46Y46*%
G04 Gerber Fmt 4.6, Leading zero omitted, Abs format (unit mm)*
G04 Created by KiCad (PCBNEW 7.0.7-7.0.7~ubuntu20.04.1) date 2024-03-24 22:46:20*
%MOMM*%
%LPD*%
G01*
G04 APERTURE LIST*
G04 Aperture macros list*
%AMRoundRect*
0 Rectangle with rounded corners*
0 $1 Rounding radius*
0 $2 $3 $4 $5 $6 $7 $8 $9 X,Y pos of 4 corners*
0 Add a 4 corners polygon primitive as box body*
4,1,4,$2,$3,$4,$5,$6,$7,$8,$9,$2,$3,0*
0 Add four circle primitives for the rounded corners*
1,1,$1+$1,$2,$3*
1,1,$1+$1,$4,$5*
1,1,$1+$1,$6,$7*
1,1,$1+$1,$8,$9*
0 Add four rect primitives between the rounded corners*
20,1,$1+$1,$2,$3,$4,$5,0*
20,1,$1+$1,$4,$5,$6,$7,0*
20,1,$1+$1,$6,$7,$8,$9,0*
20,1,$1+$1,$8,$9,$2,$3,0*%
G04 Aperture macros list end*
%ADD10C,0.150000*%
%ADD11C,0.700000*%
%ADD12C,4.400000*%
%ADD13C,0.999997*%
%ADD14RoundRect,0.102000X-0.650000X-0.350000X0.650000X-0.350000X0.650000X0.350000X-0.650000X0.350000X0*%
%ADD15RoundRect,0.102000X-1.219200X-0.723900X1.219200X-0.723900X1.219200X0.723900X-1.219200X0.723900X0*%
%ADD16RoundRect,0.102000X-0.825500X-0.723900X0.825500X-0.723900X0.825500X0.723900X-0.825500X0.723900X0*%
%ADD17RoundRect,0.102000X-0.825500X-0.927100X0.825500X-0.927100X0.825500X0.927100X-0.825500X0.927100X0*%
%ADD18C,1.000000*%
%ADD19RoundRect,0.200000X-0.200000X-0.275000X0.200000X-0.275000X0.200000X0.275000X-0.200000X0.275000X0*%
G04 APERTURE END LIST*
D10*
X179000000Y-78000000D02*
X193500000Y-78000000D01*
X193500000Y-93000000D01*
X179000000Y-93000000D01*
X179000000Y-78000000D01*
G36*
X179000000Y-78000000D02*
G01*
X193500000Y-78000000D01*
X193500000Y-93000000D01*
X179000000Y-93000000D01*
X179000000Y-78000000D01*
G37*
D11*
G04 #@! TO.C,H3*
X162850000Y-66500000D03*
X163333274Y-65333274D03*
X163333274Y-67666726D03*
X164500000Y-64850000D03*
D12*
X164500000Y-66500000D03*
D11*
X164500000Y-68150000D03*
X165666726Y-65333274D03*
X165666726Y-67666726D03*
X166150000Y-66500000D03*
G04 #@! TD*
G04 #@! TO.C,H1*
X189850000Y-100500000D03*
X190333274Y-99333274D03*
X190333274Y-101666726D03*
X191500000Y-98850000D03*
D12*
X191500000Y-100500000D03*
D11*
X191500000Y-102150000D03*
X192666726Y-99333274D03*
X192666726Y-101666726D03*
X193150000Y-100500000D03*
G04 #@! TD*
G04 #@! TO.C,H2*
X189850000Y-66500000D03*
X190333274Y-65333274D03*
X190333274Y-67666726D03*
X191500000Y-64850000D03*
D12*
X191500000Y-66500000D03*
D11*
X191500000Y-68150000D03*
X192666726Y-65333274D03*
X192666726Y-67666726D03*
X193150000Y-66500000D03*
G04 #@! TD*
D13*
G04 #@! TO.C,J2*
X166295600Y-82565000D03*
X166295600Y-74589400D03*
D14*
X177000000Y-75331400D03*
X177000000Y-76431400D03*
X177000000Y-77531400D03*
X177000000Y-78631400D03*
X177000000Y-79731400D03*
X177000000Y-80831400D03*
X177000000Y-81931400D03*
X177000000Y-83031400D03*
X177000000Y-84131400D03*
D15*
X166526200Y-85549800D03*
D16*
X176226200Y-85549800D03*
D17*
X176226200Y-70500000D03*
D15*
X166526200Y-69725000D03*
G04 #@! TD*
D18*
G04 #@! TO.C,TP2*
X176800000Y-88200000D03*
G04 #@! TD*
G04 #@! TO.C,TP6*
X167300000Y-99200000D03*
G04 #@! TD*
G04 #@! TO.C,TP7*
X167300000Y-97000000D03*
G04 #@! TD*
G04 #@! TO.C,TP3*
X167300000Y-101500000D03*
G04 #@! TD*
D19*
G04 #@! TO.C,R1*
X188075000Y-94500000D03*
X189725000Y-94500000D03*
G04 #@! TD*
D18*
G04 #@! TO.C,TP1*
X167300000Y-94800000D03*
G04 #@! TD*
M02*
