G04 #@! TF.GenerationSoftware,KiCad,Pcbnew,7.0.7-7.0.7~ubuntu20.04.1*
G04 #@! TF.CreationDate,2024-03-24T22:46:20+02:00*
G04 #@! TF.ProjectId,rtl-module-breakout,72746c2d-6d6f-4647-956c-652d62726561,rev?*
G04 #@! TF.SameCoordinates,Original*
G04 #@! TF.FileFunction,Copper,L1,Top*
G04 #@! TF.FilePolarity,Positive*
%FSLAX46Y46*%
G04 Gerber Fmt 4.6, Leading zero omitted, Abs format (unit mm)*
G04 Created by KiCad (PCBNEW 7.0.7-7.0.7~ubuntu20.04.1) date 2024-03-24 22:46:20*
%MOMM*%
%LPD*%
G01*
G04 APERTURE LIST*
G04 Aperture macros list*
%AMRoundRect*
0 Rectangle with rounded corners*
0 $1 Rounding radius*
0 $2 $3 $4 $5 $6 $7 $8 $9 X,Y pos of 4 corners*
0 Add a 4 corners polygon primitive as box body*
4,1,4,$2,$3,$4,$5,$6,$7,$8,$9,$2,$3,0*
0 Add four circle primitives for the rounded corners*
1,1,$1+$1,$2,$3*
1,1,$1+$1,$4,$5*
1,1,$1+$1,$6,$7*
1,1,$1+$1,$8,$9*
0 Add four rect primitives between the rounded corners*
20,1,$1+$1,$2,$3,$4,$5,0*
20,1,$1+$1,$4,$5,$6,$7,0*
20,1,$1+$1,$6,$7,$8,$9,0*
20,1,$1+$1,$8,$9,$2,$3,0*%
G04 Aperture macros list end*
G04 #@! TA.AperFunction,SMDPad,CuDef*
%ADD10RoundRect,0.200000X-0.200000X-0.275000X0.200000X-0.275000X0.200000X0.275000X-0.200000X0.275000X0*%
G04 #@! TD*
G04 #@! TA.AperFunction,SMDPad,CuDef*
%ADD11RoundRect,0.200000X-0.275000X0.200000X-0.275000X-0.200000X0.275000X-0.200000X0.275000X0.200000X0*%
G04 #@! TD*
G04 #@! TA.AperFunction,SMDPad,CuDef*
%ADD12RoundRect,0.218750X-0.218750X-0.256250X0.218750X-0.256250X0.218750X0.256250X-0.218750X0.256250X0*%
G04 #@! TD*
G04 #@! TA.AperFunction,SMDPad,CuDef*
%ADD13RoundRect,0.150000X-0.150000X0.512500X-0.150000X-0.512500X0.150000X-0.512500X0.150000X0.512500X0*%
G04 #@! TD*
G04 #@! TA.AperFunction,SMDPad,CuDef*
%ADD14R,1.300000X0.300000*%
G04 #@! TD*
G04 #@! TA.AperFunction,SMDPad,CuDef*
%ADD15R,2.200000X1.800000*%
G04 #@! TD*
G04 #@! TA.AperFunction,SMDPad,CuDef*
%ADD16RoundRect,0.250000X0.475000X-0.250000X0.475000X0.250000X-0.475000X0.250000X-0.475000X-0.250000X0*%
G04 #@! TD*
G04 #@! TA.AperFunction,ComponentPad*
%ADD17C,0.700000*%
G04 #@! TD*
G04 #@! TA.AperFunction,ComponentPad*
%ADD18C,4.400000*%
G04 #@! TD*
G04 #@! TA.AperFunction,SMDPad,CuDef*
%ADD19RoundRect,0.250000X-0.250000X-0.475000X0.250000X-0.475000X0.250000X0.475000X-0.250000X0.475000X0*%
G04 #@! TD*
G04 #@! TA.AperFunction,SMDPad,CuDef*
%ADD20RoundRect,0.225000X-0.225000X-0.250000X0.225000X-0.250000X0.225000X0.250000X-0.225000X0.250000X0*%
G04 #@! TD*
G04 #@! TA.AperFunction,SMDPad,CuDef*
%ADD21RoundRect,0.250000X-0.300000X0.300000X-0.300000X-0.300000X0.300000X-0.300000X0.300000X0.300000X0*%
G04 #@! TD*
G04 #@! TA.AperFunction,SMDPad,CuDef*
%ADD22RoundRect,0.250000X-0.475000X0.250000X-0.475000X-0.250000X0.475000X-0.250000X0.475000X0.250000X0*%
G04 #@! TD*
G04 #@! TA.AperFunction,SMDPad,CuDef*
%ADD23RoundRect,0.200000X0.200000X0.275000X-0.200000X0.275000X-0.200000X-0.275000X0.200000X-0.275000X0*%
G04 #@! TD*
G04 #@! TA.AperFunction,SMDPad,CuDef*
%ADD24RoundRect,0.200000X0.275000X-0.200000X0.275000X0.200000X-0.275000X0.200000X-0.275000X-0.200000X0*%
G04 #@! TD*
G04 #@! TA.AperFunction,SMDPad,CuDef*
%ADD25RoundRect,0.180000X0.420000X-0.820000X0.420000X0.820000X-0.420000X0.820000X-0.420000X-0.820000X0*%
G04 #@! TD*
G04 #@! TA.AperFunction,SMDPad,CuDef*
%ADD26RoundRect,0.150000X0.350000X-0.850000X0.350000X0.850000X-0.350000X0.850000X-0.350000X-0.850000X0*%
G04 #@! TD*
G04 #@! TA.AperFunction,SMDPad,CuDef*
%ADD27RoundRect,0.150000X-0.700000X0.150000X-0.700000X-0.150000X0.700000X-0.150000X0.700000X0.150000X0*%
G04 #@! TD*
G04 #@! TA.AperFunction,SMDPad,CuDef*
%ADD28RoundRect,0.250000X-1.100000X0.250000X-1.100000X-0.250000X1.100000X-0.250000X1.100000X0.250000X0*%
G04 #@! TD*
G04 #@! TA.AperFunction,SMDPad,CuDef*
%ADD29RoundRect,0.225000X0.225000X0.250000X-0.225000X0.250000X-0.225000X-0.250000X0.225000X-0.250000X0*%
G04 #@! TD*
G04 #@! TA.AperFunction,SMDPad,CuDef*
%ADD30R,4.200000X1.400000*%
G04 #@! TD*
G04 #@! TA.AperFunction,ViaPad*
%ADD31C,0.800000*%
G04 #@! TD*
G04 #@! TA.AperFunction,Conductor*
%ADD32C,0.250000*%
G04 #@! TD*
G04 #@! TA.AperFunction,Conductor*
%ADD33C,0.600000*%
G04 #@! TD*
G04 #@! TA.AperFunction,Conductor*
%ADD34C,1.000000*%
G04 #@! TD*
G04 #@! TA.AperFunction,Conductor*
%ADD35C,0.200000*%
G04 #@! TD*
G04 APERTURE END LIST*
D10*
G04 #@! TO.P,R5,1*
G04 #@! TO.N,Net-(D2-K)*
X165550000Y-89100000D03*
G04 #@! TO.P,R5,2*
G04 #@! TO.N,GND*
X167200000Y-89100000D03*
G04 #@! TD*
D11*
G04 #@! TO.P,R4,1*
G04 #@! TO.N,Net-(U3-FB)*
X169100000Y-83250000D03*
G04 #@! TO.P,R4,2*
G04 #@! TO.N,GND*
X169100000Y-84900000D03*
G04 #@! TD*
D12*
G04 #@! TO.P,D2,1,K*
G04 #@! TO.N,Net-(D2-K)*
X165612500Y-87500000D03*
G04 #@! TO.P,D2,2,A*
G04 #@! TO.N,+3V3*
X167187500Y-87500000D03*
G04 #@! TD*
D13*
G04 #@! TO.P,U3,1,GND*
G04 #@! TO.N,GND*
X174450000Y-92862500D03*
G04 #@! TO.P,U3,2,SW*
G04 #@! TO.N,Net-(U3-SW)*
X173500000Y-92862500D03*
G04 #@! TO.P,U3,3,IN*
G04 #@! TO.N,+12V*
X172550000Y-92862500D03*
G04 #@! TO.P,U3,4,FB*
G04 #@! TO.N,Net-(U3-FB)*
X172550000Y-95137500D03*
G04 #@! TO.P,U3,5,EN*
G04 #@! TO.N,unconnected-(U3-EN-Pad5)*
X173500000Y-95137500D03*
G04 #@! TO.P,U3,6,BST*
G04 #@! TO.N,Net-(U3-BST)*
X174450000Y-95137500D03*
G04 #@! TD*
D14*
G04 #@! TO.P,J1,1,Pin_1*
G04 #@! TO.N,/SD_CLK*
X168850000Y-72750000D03*
G04 #@! TO.P,J1,2,Pin_2*
G04 #@! TO.N,/SD_D0*
X168850000Y-73250000D03*
G04 #@! TO.P,J1,3,Pin_3*
G04 #@! TO.N,/SD_D1*
X168850000Y-73750000D03*
G04 #@! TO.P,J1,4,Pin_4*
G04 #@! TO.N,/SD_D2*
X168850000Y-74250000D03*
G04 #@! TO.P,J1,5,Pin_5*
G04 #@! TO.N,/SD_D3*
X168850000Y-74750000D03*
G04 #@! TO.P,J1,6,Pin_6*
G04 #@! TO.N,/SD_CMD*
X168850000Y-75250000D03*
G04 #@! TO.P,J1,7,Pin_7*
G04 #@! TO.N,/WIFI_PDN*
X168850000Y-75750000D03*
G04 #@! TO.P,J1,8,Pin_8*
G04 #@! TO.N,GND*
X168850000Y-76250000D03*
G04 #@! TO.P,J1,9,Pin_9*
G04 #@! TO.N,/USB_N*
X168850000Y-76750000D03*
G04 #@! TO.P,J1,10,Pin_10*
G04 #@! TO.N,GND*
X168850000Y-77250000D03*
G04 #@! TO.P,J1,11,Pin_11*
G04 #@! TO.N,/USB_P*
X168850000Y-77750000D03*
G04 #@! TO.P,J1,12,Pin_12*
G04 #@! TO.N,Net-(J1-Pin_12)*
X168850000Y-78250000D03*
D15*
G04 #@! TO.P,J1,MP,MountPin*
G04 #@! TO.N,GND*
X165600000Y-70850000D03*
X165600000Y-80150000D03*
G04 #@! TD*
D12*
G04 #@! TO.P,D1,1,K*
G04 #@! TO.N,Net-(D1-K)*
X178012500Y-99100000D03*
G04 #@! TO.P,D1,2,A*
G04 #@! TO.N,Net-(D1-A)*
X179587500Y-99100000D03*
G04 #@! TD*
D16*
G04 #@! TO.P,C1,1*
G04 #@! TO.N,GND*
X187900000Y-101000000D03*
G04 #@! TO.P,C1,2*
G04 #@! TO.N,+3V3*
X187900000Y-99100000D03*
G04 #@! TD*
D17*
G04 #@! TO.P,H3,1,1*
G04 #@! TO.N,GND*
X162850000Y-66500000D03*
X163333274Y-65333274D03*
X163333274Y-67666726D03*
X164500000Y-64850000D03*
D18*
X164500000Y-66500000D03*
D17*
X164500000Y-68150000D03*
X165666726Y-65333274D03*
X165666726Y-67666726D03*
X166150000Y-66500000D03*
G04 #@! TD*
D19*
G04 #@! TO.P,C2,1*
G04 #@! TO.N,GND*
X167550000Y-91500000D03*
G04 #@! TO.P,C2,2*
G04 #@! TO.N,+12V*
X169450000Y-91500000D03*
G04 #@! TD*
D20*
G04 #@! TO.P,C3,1*
G04 #@! TO.N,Net-(U3-SW)*
X173525000Y-97000000D03*
G04 #@! TO.P,C3,2*
G04 #@! TO.N,Net-(U3-BST)*
X175075000Y-97000000D03*
G04 #@! TD*
D10*
G04 #@! TO.P,R6,1*
G04 #@! TO.N,Net-(J1-Pin_12)*
X173375000Y-79400000D03*
G04 #@! TO.P,R6,2*
G04 #@! TO.N,+3V3*
X175025000Y-79400000D03*
G04 #@! TD*
D21*
G04 #@! TO.P,D3,1,K*
G04 #@! TO.N,+12V*
X170000000Y-93400000D03*
G04 #@! TO.P,D3,2,A*
G04 #@! TO.N,Net-(D3-A)*
X170000000Y-96200000D03*
G04 #@! TD*
D22*
G04 #@! TO.P,C5,1*
G04 #@! TO.N,GND*
X174700000Y-83025000D03*
G04 #@! TO.P,C5,2*
G04 #@! TO.N,+3V3*
X174700000Y-84925000D03*
G04 #@! TD*
D23*
G04 #@! TO.P,R2,1*
G04 #@! TO.N,Net-(D1-K)*
X176450000Y-99100000D03*
G04 #@! TO.P,R2,2*
G04 #@! TO.N,GND*
X174800000Y-99100000D03*
G04 #@! TD*
D17*
G04 #@! TO.P,H1,1,1*
G04 #@! TO.N,GND*
X189850000Y-100500000D03*
X190333274Y-99333274D03*
X190333274Y-101666726D03*
X191500000Y-98850000D03*
D18*
X191500000Y-100500000D03*
D17*
X191500000Y-102150000D03*
X192666726Y-99333274D03*
X192666726Y-101666726D03*
X193150000Y-100500000D03*
G04 #@! TD*
G04 #@! TO.P,H2,1,1*
G04 #@! TO.N,GND*
X189850000Y-66500000D03*
X190333274Y-65333274D03*
X190333274Y-67666726D03*
X191500000Y-64850000D03*
D18*
X191500000Y-66500000D03*
D17*
X191500000Y-68150000D03*
X192666726Y-65333274D03*
X192666726Y-67666726D03*
X193150000Y-66500000D03*
G04 #@! TD*
D24*
G04 #@! TO.P,R3,1*
G04 #@! TO.N,+3V3*
X170700000Y-84925000D03*
G04 #@! TO.P,R3,2*
G04 #@! TO.N,Net-(U3-FB)*
X170700000Y-83275000D03*
G04 #@! TD*
D25*
G04 #@! TO.P,U1,1,PDN*
G04 #@! TO.N,Net-(U1-PDN)*
X189900000Y-97000000D03*
G04 #@! TO.P,U1,2,VCC_3V3*
G04 #@! TO.N,+3V3*
X187900000Y-97000000D03*
G04 #@! TO.P,U1,3,USB_D_N*
G04 #@! TO.N,/USB_N*
X185900000Y-97000000D03*
G04 #@! TO.P,U1,4,USB_D_P*
G04 #@! TO.N,/USB_P*
X183900000Y-97000000D03*
G04 #@! TO.P,U1,5,GND*
G04 #@! TO.N,GND*
X181900000Y-97000000D03*
G04 #@! TO.P,U1,6,LED*
G04 #@! TO.N,Net-(D1-A)*
X179900000Y-97000000D03*
D26*
G04 #@! TO.P,U1,7,GND*
G04 #@! TO.N,GND*
X179250000Y-70000000D03*
G04 #@! TO.P,U1,8,NC*
G04 #@! TO.N,unconnected-(U1-NC-Pad8)*
X180750000Y-70000000D03*
G04 #@! TO.P,U1,9,GND*
G04 #@! TO.N,GND*
X182250000Y-70000000D03*
G04 #@! TO.P,U1,10,GND*
X187600000Y-70000000D03*
G04 #@! TO.P,U1,11,NC*
G04 #@! TO.N,unconnected-(U1-NC-Pad11)*
X189100000Y-70000000D03*
G04 #@! TO.P,U1,12,GND*
G04 #@! TO.N,GND*
X190600000Y-70000000D03*
G04 #@! TD*
D22*
G04 #@! TO.P,C4,1*
G04 #@! TO.N,GND*
X172600000Y-83025000D03*
G04 #@! TO.P,C4,2*
G04 #@! TO.N,+3V3*
X172600000Y-84925000D03*
G04 #@! TD*
D27*
G04 #@! TO.P,J3,1,Pin_1*
G04 #@! TO.N,Net-(D3-A)*
X167200000Y-96125000D03*
G04 #@! TO.P,J3,2,Pin_2*
G04 #@! TO.N,/USB_P*
X167200000Y-97375000D03*
G04 #@! TO.P,J3,3,Pin_3*
G04 #@! TO.N,/USB_N*
X167200000Y-98625000D03*
G04 #@! TO.P,J3,4,Pin_4*
G04 #@! TO.N,GND*
X167200000Y-99875000D03*
D28*
G04 #@! TO.P,J3,MP,MountPin*
X164000000Y-94275000D03*
X164000000Y-101725000D03*
G04 #@! TD*
D29*
G04 #@! TO.P,C6,1*
G04 #@! TO.N,+3V3*
X175000000Y-77800000D03*
G04 #@! TO.P,C6,2*
G04 #@! TO.N,GND*
X173450000Y-77800000D03*
G04 #@! TD*
D30*
G04 #@! TO.P,L1,1*
G04 #@! TO.N,Net-(U3-SW)*
X173000000Y-90500000D03*
G04 #@! TO.P,L1,2*
G04 #@! TO.N,+3V3*
X173000000Y-86800000D03*
G04 #@! TD*
D31*
G04 #@! TO.N,GND*
X182372000Y-86614000D03*
X171400000Y-101200000D03*
X182372000Y-81534000D03*
X189992000Y-81534000D03*
X189992000Y-89154000D03*
X185500000Y-101700000D03*
X183000000Y-99900000D03*
X179832000Y-81534000D03*
X165000000Y-70800000D03*
X187600000Y-68200000D03*
X184912000Y-89154000D03*
X184912000Y-84074000D03*
X162800000Y-97500000D03*
X192532000Y-81534000D03*
X170750000Y-77000000D03*
X165500000Y-80200000D03*
X184912000Y-81534000D03*
X182372000Y-78994000D03*
X166500000Y-91900000D03*
X175300000Y-93400000D03*
X173900000Y-88800000D03*
X179832000Y-84074000D03*
X174700000Y-82100000D03*
X187452000Y-89154000D03*
X182300000Y-68200000D03*
X192532000Y-84074000D03*
X173700000Y-99200000D03*
X167100000Y-69400000D03*
X172000000Y-98200000D03*
X168000000Y-89100000D03*
X182372000Y-89154000D03*
X192532000Y-78994000D03*
X187452000Y-84074000D03*
X166500000Y-90900000D03*
X189992000Y-78994000D03*
X192532000Y-89154000D03*
X187452000Y-86614000D03*
X175250000Y-92000000D03*
X172600000Y-82000000D03*
X167200000Y-85800000D03*
X192532000Y-91694000D03*
X176400000Y-70600000D03*
X182372000Y-91694000D03*
X181800000Y-95200000D03*
X179832000Y-78994000D03*
X165100000Y-99800000D03*
X178800000Y-102500000D03*
X189992000Y-84074000D03*
X179832000Y-89154000D03*
X163000000Y-92600000D03*
X176800000Y-85700000D03*
X169200000Y-85700000D03*
X164100000Y-83900000D03*
X189992000Y-91694000D03*
X189992000Y-86614000D03*
X179832000Y-91694000D03*
X187452000Y-81534000D03*
X184912000Y-86614000D03*
X179200000Y-68100000D03*
X179832000Y-86614000D03*
X182372000Y-84074000D03*
X168900000Y-81000000D03*
X184912000Y-91694000D03*
X178200000Y-80800000D03*
X184912000Y-78994000D03*
X187452000Y-91694000D03*
X187452000Y-78994000D03*
X192532000Y-86614000D03*
X173600000Y-82000000D03*
G04 #@! TO.N,+3V3*
X188000000Y-95500000D03*
X173700000Y-85700000D03*
X175600000Y-78600000D03*
G04 #@! TO.N,Net-(U3-SW)*
X172700000Y-91600000D03*
X173300000Y-98100000D03*
G04 #@! TO.N,Net-(D3-A)*
X168600000Y-96125000D03*
G04 #@! TO.N,/SD_CLK*
X178100000Y-79700000D03*
G04 #@! TO.N,/SD_D0*
X178200000Y-81900000D03*
G04 #@! TO.N,/SD_D1*
X178200000Y-83000000D03*
G04 #@! TO.N,/SD_D2*
X171400000Y-74474500D03*
G04 #@! TO.N,/SD_D3*
X172100000Y-75200000D03*
G04 #@! TO.N,/SD_CMD*
X172000000Y-76200000D03*
G04 #@! TO.N,/USB_N*
X167300000Y-98625000D03*
G04 #@! TO.N,/USB_P*
X167300000Y-97375000D03*
G04 #@! TO.N,Net-(U1-PDN)*
X190000000Y-95500000D03*
G04 #@! TO.N,Net-(U3-FB)*
X171700000Y-95100000D03*
X169900000Y-82400000D03*
G04 #@! TD*
D32*
G04 #@! TO.N,GND*
X167200000Y-89100000D02*
X168000000Y-89100000D01*
X170000000Y-76250000D02*
X168850000Y-76250000D01*
X175250000Y-92062500D02*
X174450000Y-92862500D01*
X169100000Y-84900000D02*
X169100000Y-85600000D01*
X173800000Y-99100000D02*
X173700000Y-99200000D01*
X170750000Y-77000000D02*
X170500000Y-77250000D01*
D33*
X172600000Y-83025000D02*
X172600000Y-82000000D01*
D32*
X175250000Y-92000000D02*
X175250000Y-92062500D01*
X169100000Y-85600000D02*
X169200000Y-85700000D01*
X170500000Y-77250000D02*
X168850000Y-77250000D01*
X174800000Y-99100000D02*
X173800000Y-99100000D01*
X170750000Y-77000000D02*
X170000000Y-76250000D01*
D33*
X174700000Y-83025000D02*
X174700000Y-82100000D01*
D32*
G04 #@! TO.N,+3V3*
X175025000Y-79175000D02*
X175600000Y-78600000D01*
D33*
X173700000Y-85700000D02*
X177000000Y-89000000D01*
D34*
X187900000Y-99100000D02*
X187900000Y-97000000D01*
D32*
X175025000Y-79400000D02*
X175025000Y-79175000D01*
X187900000Y-98900000D02*
X188000000Y-98800000D01*
D33*
X177000000Y-89000000D02*
X177000000Y-92000000D01*
X175025000Y-79400000D02*
X175600000Y-79975000D01*
X187900000Y-96798335D02*
X187900000Y-97000000D01*
D32*
X188000000Y-95500000D02*
X188000000Y-96900000D01*
X167187500Y-87500000D02*
X168425305Y-87500000D01*
D33*
X175925000Y-82425000D02*
X175925000Y-83700000D01*
X173000000Y-86800000D02*
X173000000Y-85325000D01*
X185101665Y-94000000D02*
X187900000Y-96798335D01*
X175925000Y-83700000D02*
X174700000Y-84925000D01*
X172600000Y-84925000D02*
X170700000Y-84925000D01*
X179000000Y-94000000D02*
X185101665Y-94000000D01*
X174700000Y-84925000D02*
X172600000Y-84925000D01*
D32*
X170700000Y-85225305D02*
X170700000Y-84925000D01*
D33*
X175600000Y-82100000D02*
X175925000Y-82425000D01*
D32*
X175025000Y-77825000D02*
X175000000Y-77800000D01*
X175025000Y-79400000D02*
X175025000Y-77825000D01*
X168425305Y-87500000D02*
X170700000Y-85225305D01*
D33*
X175600000Y-79975000D02*
X175600000Y-82100000D01*
X177000000Y-92000000D02*
X179000000Y-94000000D01*
D32*
X188000000Y-96900000D02*
X187900000Y-97000000D01*
D33*
X173000000Y-85325000D02*
X172600000Y-84925000D01*
D34*
G04 #@! TO.N,+12V*
X170000000Y-93400000D02*
X172012500Y-93400000D01*
X170000000Y-93400000D02*
X170000000Y-92050000D01*
X170000000Y-92050000D02*
X169450000Y-91500000D01*
D32*
G04 #@! TO.N,Net-(U3-SW)*
X172700000Y-91600000D02*
X172700000Y-90800000D01*
D33*
X173500000Y-92862500D02*
X173500000Y-91000000D01*
D32*
X173525000Y-97875000D02*
X173300000Y-98100000D01*
D33*
X173500000Y-91000000D02*
X173000000Y-90500000D01*
D32*
X173525000Y-97000000D02*
X173525000Y-97875000D01*
X172700000Y-90800000D02*
X173000000Y-90500000D01*
G04 #@! TO.N,Net-(U3-BST)*
X175075000Y-97000000D02*
X175075000Y-95762500D01*
X175075000Y-95762500D02*
X174450000Y-95137500D01*
G04 #@! TO.N,Net-(D1-K)*
X178012500Y-99100000D02*
X176450000Y-99100000D01*
G04 #@! TO.N,Net-(D1-A)*
X179900000Y-97000000D02*
X179900000Y-98787500D01*
X179900000Y-98787500D02*
X179587500Y-99100000D01*
G04 #@! TO.N,Net-(D2-K)*
X165612500Y-87500000D02*
X165612500Y-89037500D01*
X165612500Y-89037500D02*
X165550000Y-89100000D01*
D34*
G04 #@! TO.N,Net-(D3-A)*
X167200000Y-96125000D02*
X168600000Y-96125000D01*
X169925000Y-96125000D02*
X170000000Y-96200000D01*
X168600000Y-96125000D02*
X169925000Y-96125000D01*
D32*
G04 #@! TO.N,/SD_CLK*
X176550000Y-72750000D02*
X178300000Y-74500000D01*
X178300000Y-79500000D02*
X178100000Y-79700000D01*
X178300000Y-74500000D02*
X178300000Y-79500000D01*
X168850000Y-72750000D02*
X176550000Y-72750000D01*
G04 #@! TO.N,/SD_D0*
X177300000Y-81400000D02*
X177800000Y-81900000D01*
X176150000Y-73250000D02*
X177600000Y-74700000D01*
X177300000Y-79500000D02*
X177300000Y-81400000D01*
X168850000Y-73250000D02*
X176150000Y-73250000D01*
X177400000Y-79400000D02*
X177300000Y-79500000D01*
X177400000Y-74900000D02*
X177400000Y-79400000D01*
X177600000Y-74700000D02*
X177400000Y-74900000D01*
X177800000Y-81900000D02*
X178200000Y-81900000D01*
G04 #@! TO.N,/SD_D1*
X176700000Y-75500000D02*
X176700000Y-81500000D01*
X176700000Y-81500000D02*
X178200000Y-83000000D01*
X174950000Y-73750000D02*
X176700000Y-75500000D01*
X168850000Y-73750000D02*
X174950000Y-73750000D01*
G04 #@! TO.N,/SD_D2*
X171175500Y-74250000D02*
X168850000Y-74250000D01*
X171400000Y-74474500D02*
X171175500Y-74250000D01*
G04 #@! TO.N,/SD_D3*
X170325000Y-75200000D02*
X172100000Y-75200000D01*
X168850000Y-74750000D02*
X169875000Y-74750000D01*
X169875000Y-74750000D02*
X170325000Y-75200000D01*
G04 #@! TO.N,/SD_CMD*
X170688604Y-76200000D02*
X172000000Y-76200000D01*
X168850000Y-75250000D02*
X169738604Y-75250000D01*
X169738604Y-75250000D02*
X170688604Y-76200000D01*
D35*
G04 #@! TO.N,/USB_N*
X167275000Y-77906800D02*
X167275000Y-83025000D01*
X167300000Y-98625000D02*
X168475001Y-98625000D01*
X167200000Y-98625000D02*
X167300000Y-98625000D01*
X164175000Y-97593200D02*
X164711811Y-98130011D01*
X164711811Y-98130011D02*
X166705011Y-98130011D01*
X167900000Y-77281800D02*
X167275000Y-77906800D01*
X166075000Y-93793200D02*
X166075000Y-94506800D01*
X166705011Y-98130011D02*
X167200000Y-98625000D01*
X172906800Y-101325000D02*
X183893200Y-101325000D01*
X168850000Y-76750000D02*
X168800000Y-76800000D01*
X167275000Y-83025000D02*
X163675000Y-86625000D01*
X185025000Y-100193200D02*
X185025000Y-97875000D01*
X168800000Y-76800000D02*
X167900000Y-76800000D01*
X168475001Y-98625000D02*
X168875001Y-98225000D01*
X168875001Y-98225000D02*
X169806800Y-98225000D01*
X164175000Y-96406800D02*
X164175000Y-97593200D01*
X183893200Y-101325000D02*
X185025000Y-100193200D01*
X169806800Y-98225000D02*
X172906800Y-101325000D01*
X166075000Y-94506800D02*
X164175000Y-96406800D01*
X163675000Y-91393200D02*
X166075000Y-93793200D01*
X185025000Y-97875000D02*
X185900000Y-97000000D01*
X163675000Y-86625000D02*
X163675000Y-91393200D01*
X167900000Y-76800000D02*
X167900000Y-77281800D01*
G04 #@! TO.N,/USB_P*
X168875001Y-97775000D02*
X169993200Y-97775000D01*
X167300000Y-97375000D02*
X168475001Y-97375000D01*
X168800000Y-77700000D02*
X168118200Y-77700000D01*
X184575000Y-100006800D02*
X184575000Y-97675000D01*
X167725000Y-83284100D02*
X164125000Y-86884100D01*
X164898211Y-97680011D02*
X166894989Y-97680011D01*
X168118200Y-77700000D02*
X167725000Y-78093200D01*
X167200000Y-97375000D02*
X167300000Y-97375000D01*
X164125000Y-91206800D02*
X166525000Y-93606800D01*
X164625000Y-96593200D02*
X164625000Y-97406800D01*
X166525000Y-94693200D02*
X164625000Y-96593200D01*
X184575000Y-97675000D02*
X183900000Y-97000000D01*
X167725000Y-78093200D02*
X167725000Y-83284100D01*
X166525000Y-93606800D02*
X166525000Y-94693200D01*
X164125000Y-86884100D02*
X164125000Y-91206800D01*
X164625000Y-97406800D02*
X164898211Y-97680011D01*
X173093200Y-100875000D02*
X183706800Y-100875000D01*
X169993200Y-97775000D02*
X173093200Y-100875000D01*
X183706800Y-100875000D02*
X184575000Y-100006800D01*
X166894989Y-97680011D02*
X167200000Y-97375000D01*
X168850000Y-77750000D02*
X168800000Y-77700000D01*
X168475001Y-97375000D02*
X168875001Y-97775000D01*
D32*
G04 #@! TO.N,Net-(J1-Pin_12)*
X171900000Y-79400000D02*
X170750000Y-78250000D01*
X170750000Y-78250000D02*
X168850000Y-78250000D01*
X173375000Y-79400000D02*
X171900000Y-79400000D01*
G04 #@! TO.N,Net-(U1-PDN)*
X190000000Y-96900000D02*
X189900000Y-97000000D01*
X190000000Y-95500000D02*
X190000000Y-96900000D01*
G04 #@! TO.N,Net-(U3-FB)*
X169100000Y-83200000D02*
X169900000Y-82400000D01*
X169100000Y-83250000D02*
X169100000Y-83200000D01*
X172512500Y-95100000D02*
X172550000Y-95137500D01*
X169125000Y-83275000D02*
X169100000Y-83250000D01*
X170700000Y-83275000D02*
X169125000Y-83275000D01*
X171700000Y-95100000D02*
X172512500Y-95100000D01*
G04 #@! TD*
G04 #@! TA.AperFunction,Conductor*
G04 #@! TO.N,+12V*
G36*
X170012491Y-90819685D02*
G01*
X170036859Y-90840210D01*
X171100000Y-92000000D01*
X172697550Y-92281920D01*
X172760148Y-92312955D01*
X172796030Y-92372907D01*
X172800000Y-92404033D01*
X172800000Y-93776000D01*
X172780315Y-93843039D01*
X172727511Y-93888794D01*
X172676000Y-93900000D01*
X169124000Y-93900000D01*
X169056961Y-93880315D01*
X169011206Y-93827511D01*
X169000000Y-93776000D01*
X169000000Y-90924000D01*
X169019685Y-90856961D01*
X169072489Y-90811206D01*
X169124000Y-90800000D01*
X169945452Y-90800000D01*
X170012491Y-90819685D01*
G37*
G04 #@! TD.AperFunction*
G04 #@! TD*
G04 #@! TA.AperFunction,Conductor*
G04 #@! TO.N,+3V3*
G36*
X175343039Y-84519685D02*
G01*
X175388794Y-84572489D01*
X175400000Y-84624000D01*
X175400000Y-87573544D01*
X175380315Y-87640583D01*
X175327511Y-87686338D01*
X175273569Y-87697520D01*
X170425553Y-87602461D01*
X170358912Y-87581466D01*
X170314201Y-87527775D01*
X170304048Y-87474490D01*
X170396128Y-84620002D01*
X170417965Y-84553632D01*
X170472217Y-84509603D01*
X170520065Y-84500000D01*
X175276000Y-84500000D01*
X175343039Y-84519685D01*
G37*
G04 #@! TD.AperFunction*
G04 #@! TD*
G04 #@! TA.AperFunction,Conductor*
G04 #@! TO.N,Net-(U3-SW)*
G36*
X175143039Y-89819685D02*
G01*
X175188794Y-89872489D01*
X175200000Y-89924000D01*
X175200000Y-91223363D01*
X175180315Y-91290402D01*
X175131454Y-91334272D01*
X175045292Y-91377353D01*
X175019520Y-91386839D01*
X175017636Y-91387303D01*
X175017632Y-91387305D01*
X174875550Y-91461876D01*
X174871718Y-91464139D01*
X174600001Y-91599999D01*
X174599993Y-91600004D01*
X173800000Y-92199999D01*
X173800000Y-93390535D01*
X173780315Y-93457574D01*
X173727511Y-93503329D01*
X173691380Y-93513577D01*
X173234920Y-93570634D01*
X173165957Y-93559417D01*
X173114006Y-93512696D01*
X173095561Y-93445305D01*
X173097066Y-93428199D01*
X173100500Y-93406519D01*
X173100499Y-92318482D01*
X173085646Y-92224696D01*
X173028050Y-92111658D01*
X173028046Y-92111654D01*
X173028045Y-92111652D01*
X172938347Y-92021954D01*
X172938344Y-92021952D01*
X172938342Y-92021950D01*
X172861517Y-91982805D01*
X172825301Y-91964352D01*
X172731524Y-91949500D01*
X172731519Y-91949500D01*
X172731146Y-91949500D01*
X172363612Y-91949501D01*
X172363612Y-91948591D01*
X172334501Y-91946422D01*
X171717046Y-91803933D01*
X171684708Y-91791504D01*
X170863780Y-91335433D01*
X170814737Y-91285668D01*
X170800000Y-91227037D01*
X170800000Y-89924000D01*
X170819685Y-89856961D01*
X170872489Y-89811206D01*
X170924000Y-89800000D01*
X175076000Y-89800000D01*
X175143039Y-89819685D01*
G37*
G04 #@! TD.AperFunction*
G04 #@! TD*
G04 #@! TA.AperFunction,Conductor*
G04 #@! TO.N,GND*
G36*
X174810140Y-74145185D02*
G01*
X174830782Y-74161819D01*
X176288181Y-75619218D01*
X176321666Y-75680541D01*
X176324500Y-75706899D01*
X176324500Y-78106572D01*
X176304815Y-78173611D01*
X176252011Y-78219366D01*
X176182853Y-78229310D01*
X176119297Y-78200285D01*
X176098451Y-78177013D01*
X176090484Y-78165471D01*
X176024000Y-78106572D01*
X175972240Y-78060717D01*
X175972238Y-78060716D01*
X175972237Y-78060715D01*
X175832365Y-77987303D01*
X175832362Y-77987302D01*
X175794822Y-77978049D01*
X175734442Y-77942892D01*
X175702654Y-77880672D01*
X175700499Y-77857653D01*
X175700499Y-77504518D01*
X175700498Y-77504509D01*
X175700256Y-77502260D01*
X175694412Y-77447886D01*
X175646628Y-77319774D01*
X175564687Y-77210313D01*
X175498911Y-77161074D01*
X175455228Y-77128373D01*
X175455226Y-77128372D01*
X175327114Y-77080588D01*
X175327112Y-77080587D01*
X175327110Y-77080587D01*
X175270493Y-77074500D01*
X174729518Y-77074500D01*
X174729509Y-77074501D01*
X174672885Y-77080587D01*
X174544773Y-77128372D01*
X174435313Y-77210313D01*
X174353373Y-77319771D01*
X174305587Y-77447889D01*
X174299500Y-77504498D01*
X174299500Y-78095481D01*
X174299501Y-78095490D01*
X174305587Y-78152114D01*
X174330672Y-78219366D01*
X174353372Y-78280226D01*
X174435313Y-78389687D01*
X174544774Y-78471628D01*
X174568836Y-78480602D01*
X174624767Y-78522473D01*
X174649184Y-78587937D01*
X174649500Y-78596783D01*
X174649500Y-78632019D01*
X174629815Y-78699058D01*
X174599134Y-78731789D01*
X174502850Y-78802850D01*
X174422207Y-78912117D01*
X174422206Y-78912119D01*
X174377353Y-79040298D01*
X174377353Y-79040300D01*
X174374500Y-79070730D01*
X174374500Y-79729269D01*
X174377353Y-79759699D01*
X174377353Y-79759701D01*
X174422206Y-79887880D01*
X174422207Y-79887882D01*
X174502850Y-79997150D01*
X174612118Y-80077793D01*
X174654845Y-80092744D01*
X174740299Y-80122646D01*
X174770730Y-80125500D01*
X174770734Y-80125500D01*
X174920613Y-80125500D01*
X174987652Y-80145185D01*
X175008294Y-80161819D01*
X175013181Y-80166706D01*
X175046666Y-80228029D01*
X175049500Y-80254387D01*
X175049500Y-82090602D01*
X175047238Y-82156829D01*
X175057715Y-82199819D01*
X175058901Y-82206061D01*
X175064929Y-82249920D01*
X175072079Y-82266379D01*
X175078818Y-82286419D01*
X175083067Y-82303852D01*
X175095055Y-82325174D01*
X175104763Y-82342439D01*
X175107582Y-82348115D01*
X175125220Y-82388720D01*
X175125221Y-82388722D01*
X175136541Y-82402636D01*
X175148439Y-82420117D01*
X175157234Y-82435760D01*
X175157236Y-82435761D01*
X175188530Y-82467055D01*
X175192787Y-82471772D01*
X175202432Y-82483627D01*
X175220722Y-82506108D01*
X175235381Y-82516455D01*
X175251555Y-82530079D01*
X175338181Y-82616705D01*
X175371666Y-82678028D01*
X175374500Y-82704386D01*
X175374500Y-83420612D01*
X175354815Y-83487651D01*
X175338181Y-83508293D01*
X174708292Y-84138181D01*
X174646969Y-84171666D01*
X174620611Y-84174500D01*
X174177129Y-84174500D01*
X174177123Y-84174501D01*
X174117516Y-84180908D01*
X173974359Y-84234303D01*
X173973685Y-84232498D01*
X173926670Y-84244500D01*
X173373330Y-84244500D01*
X173326314Y-84232498D01*
X173325641Y-84234303D01*
X173182482Y-84180908D01*
X173182483Y-84180908D01*
X173122883Y-84174501D01*
X173122881Y-84174500D01*
X173122873Y-84174500D01*
X173122864Y-84174500D01*
X172077129Y-84174500D01*
X172077123Y-84174501D01*
X172017516Y-84180908D01*
X171874359Y-84234303D01*
X171873685Y-84232498D01*
X171826670Y-84244500D01*
X170520065Y-84244500D01*
X170484153Y-84248067D01*
X170469787Y-84249495D01*
X170421935Y-84259099D01*
X170421937Y-84259099D01*
X170399388Y-84264703D01*
X170392378Y-84267378D01*
X170391758Y-84265753D01*
X170358494Y-84275647D01*
X170340299Y-84277353D01*
X170340298Y-84277353D01*
X170212119Y-84322206D01*
X170212117Y-84322207D01*
X170102850Y-84402850D01*
X170022207Y-84512117D01*
X170022206Y-84512119D01*
X169977353Y-84640298D01*
X169977353Y-84640300D01*
X169974500Y-84670730D01*
X169974500Y-85179269D01*
X169977353Y-85209696D01*
X170005333Y-85289658D01*
X170008894Y-85359437D01*
X169975972Y-85418294D01*
X168306086Y-87088181D01*
X168244763Y-87121666D01*
X168218405Y-87124500D01*
X167948694Y-87124500D01*
X167881655Y-87104815D01*
X167835900Y-87052011D01*
X167832512Y-87043832D01*
X167822338Y-87016554D01*
X167822335Y-87016549D01*
X167820130Y-87013603D01*
X167741472Y-86908528D01*
X167633450Y-86827664D01*
X167633447Y-86827662D01*
X167507024Y-86780509D01*
X167451144Y-86774500D01*
X167451130Y-86774500D01*
X166923870Y-86774500D01*
X166923855Y-86774500D01*
X166867975Y-86780509D01*
X166741552Y-86827662D01*
X166741549Y-86827664D01*
X166633528Y-86908528D01*
X166552664Y-87016549D01*
X166552662Y-87016552D01*
X166516182Y-87114361D01*
X166474311Y-87170295D01*
X166408846Y-87194712D01*
X166340573Y-87179860D01*
X166291168Y-87130455D01*
X166283818Y-87114361D01*
X166247337Y-87016552D01*
X166247335Y-87016549D01*
X166245130Y-87013603D01*
X166166472Y-86908528D01*
X166058450Y-86827664D01*
X166058447Y-86827662D01*
X165932024Y-86780509D01*
X165876144Y-86774500D01*
X165876130Y-86774500D01*
X165348870Y-86774500D01*
X165348855Y-86774500D01*
X165292975Y-86780509D01*
X165166552Y-86827662D01*
X165166549Y-86827664D01*
X165058528Y-86908528D01*
X164977664Y-87016549D01*
X164977662Y-87016552D01*
X164930509Y-87142975D01*
X164924500Y-87198855D01*
X164924500Y-87801144D01*
X164930509Y-87857024D01*
X164977662Y-87983447D01*
X164977664Y-87983450D01*
X165058528Y-88091472D01*
X165166550Y-88172336D01*
X165166552Y-88172336D01*
X165172427Y-88175545D01*
X165221832Y-88224951D01*
X165237000Y-88284377D01*
X165237000Y-88299274D01*
X165217315Y-88366313D01*
X165164511Y-88412068D01*
X165153956Y-88416315D01*
X165137118Y-88422206D01*
X165027850Y-88502850D01*
X164947207Y-88612117D01*
X164947206Y-88612119D01*
X164902353Y-88740298D01*
X164902353Y-88740300D01*
X164899500Y-88770730D01*
X164899500Y-89429269D01*
X164902353Y-89459699D01*
X164902353Y-89459701D01*
X164947206Y-89587880D01*
X164947207Y-89587882D01*
X165027850Y-89697150D01*
X165137118Y-89777793D01*
X165157646Y-89784976D01*
X165265299Y-89822646D01*
X165295730Y-89825500D01*
X165295734Y-89825500D01*
X165804270Y-89825500D01*
X165834699Y-89822646D01*
X165834701Y-89822646D01*
X165898790Y-89800219D01*
X165962882Y-89777793D01*
X166072150Y-89697150D01*
X166152793Y-89587882D01*
X166175219Y-89523790D01*
X166197646Y-89459701D01*
X166197646Y-89459699D01*
X166200500Y-89429269D01*
X166200500Y-88770730D01*
X166197646Y-88740300D01*
X166197646Y-88740298D01*
X166164006Y-88644163D01*
X166152793Y-88612118D01*
X166072150Y-88502850D01*
X166072147Y-88502848D01*
X166072145Y-88502845D01*
X166038365Y-88477914D01*
X165996115Y-88422266D01*
X165988000Y-88378145D01*
X165988000Y-88284377D01*
X166007685Y-88217338D01*
X166052573Y-88175545D01*
X166058444Y-88172338D01*
X166058450Y-88172336D01*
X166166472Y-88091472D01*
X166247336Y-87983450D01*
X166283817Y-87885638D01*
X166325689Y-87829704D01*
X166391153Y-87805287D01*
X166459426Y-87820139D01*
X166508832Y-87869544D01*
X166516182Y-87885638D01*
X166552662Y-87983447D01*
X166552664Y-87983450D01*
X166633528Y-88091472D01*
X166741549Y-88172335D01*
X166741552Y-88172337D01*
X166867975Y-88219490D01*
X166867978Y-88219491D01*
X166897318Y-88222645D01*
X166923855Y-88225499D01*
X166923870Y-88225500D01*
X167451130Y-88225500D01*
X167451144Y-88225499D01*
X167473023Y-88223146D01*
X167507022Y-88219491D01*
X167633450Y-88172336D01*
X167741472Y-88091472D01*
X167822336Y-87983450D01*
X167832512Y-87956168D01*
X167874382Y-87900234D01*
X167939846Y-87875816D01*
X167948694Y-87875500D01*
X168373501Y-87875500D01*
X168398946Y-87878139D01*
X168402745Y-87878935D01*
X168409573Y-87880367D01*
X168430530Y-87877754D01*
X168444797Y-87875977D01*
X168452473Y-87875500D01*
X168456417Y-87875500D01*
X168456419Y-87875500D01*
X168456421Y-87875499D01*
X168456427Y-87875499D01*
X168471792Y-87872934D01*
X168479445Y-87871657D01*
X168533931Y-87864866D01*
X168533932Y-87864865D01*
X168533934Y-87864865D01*
X168541446Y-87862628D01*
X168548911Y-87860066D01*
X168548911Y-87860065D01*
X168548915Y-87860065D01*
X168597182Y-87833944D01*
X168646516Y-87809826D01*
X168646518Y-87809823D01*
X168652899Y-87805268D01*
X168659124Y-87800422D01*
X168659131Y-87800419D01*
X168696313Y-87760028D01*
X169862242Y-86594098D01*
X169923563Y-86560615D01*
X169993255Y-86565599D01*
X170049188Y-86607471D01*
X170073605Y-86672935D01*
X170073857Y-86685779D01*
X170048681Y-87466249D01*
X170053064Y-87522310D01*
X170053064Y-87522313D01*
X170063215Y-87575591D01*
X170063217Y-87575598D01*
X170070241Y-87603694D01*
X170117864Y-87691274D01*
X170162575Y-87744965D01*
X170194725Y-87777228D01*
X170245898Y-87805287D01*
X170272984Y-87820139D01*
X170282138Y-87825158D01*
X170282140Y-87825158D01*
X170282141Y-87825159D01*
X170348775Y-87846152D01*
X170348776Y-87846152D01*
X170348779Y-87846153D01*
X170420544Y-87857912D01*
X175122631Y-87950108D01*
X175189269Y-87971103D01*
X175207878Y-87986402D01*
X176413182Y-89191707D01*
X176446666Y-89253028D01*
X176449500Y-89279386D01*
X176449500Y-91990602D01*
X176447238Y-92056829D01*
X176457715Y-92099819D01*
X176458901Y-92106061D01*
X176464929Y-92149920D01*
X176472079Y-92166379D01*
X176478819Y-92186420D01*
X176483067Y-92203852D01*
X176504763Y-92242439D01*
X176507582Y-92248115D01*
X176525220Y-92288720D01*
X176525221Y-92288722D01*
X176536541Y-92302636D01*
X176548439Y-92320117D01*
X176557234Y-92335760D01*
X176557236Y-92335761D01*
X176588532Y-92367057D01*
X176592783Y-92371766D01*
X176620722Y-92406108D01*
X176635381Y-92416455D01*
X176651552Y-92430077D01*
X178604079Y-94382603D01*
X178649320Y-94431044D01*
X178679671Y-94449500D01*
X178687140Y-94454042D01*
X178692379Y-94457607D01*
X178727658Y-94484361D01*
X178744353Y-94490944D01*
X178763290Y-94500351D01*
X178778618Y-94509672D01*
X178821247Y-94521616D01*
X178827263Y-94523639D01*
X178868436Y-94539876D01*
X178886287Y-94541711D01*
X178907052Y-94545657D01*
X178924335Y-94550500D01*
X178968594Y-94550500D01*
X178974935Y-94550824D01*
X179018972Y-94555352D01*
X179036655Y-94552303D01*
X179057724Y-94550500D01*
X184822278Y-94550500D01*
X184889317Y-94570185D01*
X184909959Y-94586819D01*
X185860959Y-95537819D01*
X185894444Y-95599142D01*
X185889460Y-95668834D01*
X185847588Y-95724767D01*
X185782124Y-95749184D01*
X185773278Y-95749500D01*
X185428147Y-95749500D01*
X185412193Y-95750995D01*
X185399061Y-95752227D01*
X185399059Y-95752227D01*
X185399055Y-95752228D01*
X185276570Y-95795088D01*
X185172152Y-95872152D01*
X185095088Y-95976570D01*
X185052226Y-96099058D01*
X185052226Y-96099060D01*
X185049500Y-96128136D01*
X185049500Y-97303455D01*
X185029815Y-97370494D01*
X185013184Y-97391132D01*
X184999502Y-97404815D01*
X184987679Y-97416638D01*
X184926355Y-97450122D01*
X184856663Y-97445136D01*
X184812318Y-97416636D01*
X184786816Y-97391134D01*
X184753332Y-97329810D01*
X184750499Y-97303454D01*
X184750499Y-96128147D01*
X184750499Y-96128142D01*
X184747773Y-96099061D01*
X184704911Y-95976569D01*
X184627848Y-95872152D01*
X184523431Y-95795089D01*
X184523429Y-95795088D01*
X184400940Y-95752226D01*
X184371863Y-95749500D01*
X183428147Y-95749500D01*
X183412193Y-95750995D01*
X183399061Y-95752227D01*
X183399059Y-95752227D01*
X183399055Y-95752228D01*
X183276570Y-95795088D01*
X183172152Y-95872152D01*
X183095088Y-95976570D01*
X183052226Y-96099058D01*
X183052226Y-96099060D01*
X183049500Y-96128136D01*
X183049500Y-97871852D01*
X183049501Y-97871858D01*
X183052227Y-97900939D01*
X183052227Y-97900941D01*
X183052228Y-97900944D01*
X183090133Y-98009268D01*
X183095089Y-98023431D01*
X183172152Y-98127848D01*
X183276569Y-98204911D01*
X183316207Y-98218781D01*
X183399059Y-98247773D01*
X183406647Y-98248484D01*
X183428141Y-98250500D01*
X184100500Y-98250499D01*
X184167539Y-98270183D01*
X184213294Y-98322987D01*
X184224500Y-98374499D01*
X184224500Y-99810256D01*
X184204815Y-99877295D01*
X184188181Y-99897937D01*
X183597937Y-100488181D01*
X183536614Y-100521666D01*
X183510256Y-100524500D01*
X173289744Y-100524500D01*
X173222705Y-100504815D01*
X173202063Y-100488181D01*
X172143151Y-99429269D01*
X175799500Y-99429269D01*
X175802353Y-99459699D01*
X175802353Y-99459701D01*
X175845654Y-99583445D01*
X175847207Y-99587882D01*
X175927850Y-99697150D01*
X176037118Y-99777793D01*
X176079845Y-99792744D01*
X176165299Y-99822646D01*
X176195730Y-99825500D01*
X176195734Y-99825500D01*
X176704270Y-99825500D01*
X176734699Y-99822646D01*
X176734701Y-99822646D01*
X176798790Y-99800219D01*
X176862882Y-99777793D01*
X176972150Y-99697150D01*
X177052793Y-99587882D01*
X177063059Y-99558543D01*
X177103779Y-99501770D01*
X177168731Y-99476022D01*
X177180099Y-99475500D01*
X177251306Y-99475500D01*
X177318345Y-99495185D01*
X177364100Y-99547989D01*
X177367488Y-99556168D01*
X177377661Y-99583445D01*
X177377664Y-99583450D01*
X177458528Y-99691472D01*
X177566549Y-99772335D01*
X177566552Y-99772337D01*
X177624089Y-99793797D01*
X177692978Y-99819491D01*
X177722318Y-99822645D01*
X177748855Y-99825499D01*
X177748870Y-99825500D01*
X178276130Y-99825500D01*
X178276144Y-99825499D01*
X178298023Y-99823146D01*
X178332022Y-99819491D01*
X178458450Y-99772336D01*
X178566472Y-99691472D01*
X178647336Y-99583450D01*
X178683817Y-99485638D01*
X178725689Y-99429704D01*
X178791153Y-99405287D01*
X178859426Y-99420139D01*
X178908832Y-99469544D01*
X178916182Y-99485638D01*
X178952662Y-99583447D01*
X178952664Y-99583450D01*
X179033528Y-99691472D01*
X179141549Y-99772335D01*
X179141552Y-99772337D01*
X179199089Y-99793797D01*
X179267978Y-99819491D01*
X179297318Y-99822645D01*
X179323855Y-99825499D01*
X179323870Y-99825500D01*
X179851130Y-99825500D01*
X179851144Y-99825499D01*
X179873023Y-99823146D01*
X179907022Y-99819491D01*
X180033450Y-99772336D01*
X180141472Y-99691472D01*
X180222336Y-99583450D01*
X180269491Y-99457022D01*
X180275053Y-99405287D01*
X180275499Y-99401144D01*
X180275500Y-99401129D01*
X180275500Y-98860273D01*
X180277736Y-98844937D01*
X180276497Y-98844783D01*
X180277768Y-98834585D01*
X180275500Y-98779744D01*
X180275500Y-98372451D01*
X180295185Y-98305412D01*
X180347989Y-98259657D01*
X180387922Y-98248993D01*
X180400939Y-98247773D01*
X180523431Y-98204911D01*
X180627848Y-98127848D01*
X180704911Y-98023431D01*
X180726341Y-97962185D01*
X180747773Y-97900941D01*
X180747773Y-97900939D01*
X180748844Y-97889514D01*
X180750500Y-97871859D01*
X180750499Y-96128142D01*
X180747773Y-96099061D01*
X180704911Y-95976569D01*
X180627848Y-95872152D01*
X180523431Y-95795089D01*
X180523429Y-95795088D01*
X180400940Y-95752226D01*
X180371863Y-95749500D01*
X179428147Y-95749500D01*
X179412193Y-95750995D01*
X179399061Y-95752227D01*
X179399059Y-95752227D01*
X179399055Y-95752228D01*
X179276570Y-95795088D01*
X179172152Y-95872152D01*
X179095088Y-95976570D01*
X179052226Y-96099058D01*
X179052226Y-96099060D01*
X179049500Y-96128136D01*
X179049500Y-97871852D01*
X179049501Y-97871858D01*
X179052227Y-97900939D01*
X179052227Y-97900941D01*
X179052228Y-97900944D01*
X179090133Y-98009268D01*
X179095089Y-98023431D01*
X179172152Y-98127848D01*
X179247536Y-98183483D01*
X179289785Y-98239129D01*
X179295244Y-98308785D01*
X179262177Y-98370334D01*
X179217236Y-98399433D01*
X179141554Y-98427661D01*
X179141549Y-98427664D01*
X179033528Y-98508528D01*
X178952664Y-98616549D01*
X178952662Y-98616552D01*
X178916182Y-98714361D01*
X178874311Y-98770295D01*
X178808846Y-98794712D01*
X178740573Y-98779860D01*
X178691168Y-98730455D01*
X178683818Y-98714361D01*
X178647337Y-98616552D01*
X178647335Y-98616549D01*
X178644018Y-98612118D01*
X178566472Y-98508528D01*
X178458450Y-98427664D01*
X178458447Y-98427662D01*
X178332024Y-98380509D01*
X178276144Y-98374500D01*
X178276130Y-98374500D01*
X177748870Y-98374500D01*
X177748855Y-98374500D01*
X177692975Y-98380509D01*
X177566552Y-98427662D01*
X177566549Y-98427664D01*
X177458528Y-98508528D01*
X177377664Y-98616549D01*
X177377661Y-98616554D01*
X177367488Y-98643832D01*
X177325618Y-98699766D01*
X177260154Y-98724184D01*
X177251306Y-98724500D01*
X177180099Y-98724500D01*
X177113060Y-98704815D01*
X177067305Y-98652011D01*
X177063065Y-98641474D01*
X177052793Y-98612118D01*
X176972150Y-98502850D01*
X176862882Y-98422207D01*
X176862880Y-98422206D01*
X176734700Y-98377353D01*
X176704270Y-98374500D01*
X176704266Y-98374500D01*
X176195734Y-98374500D01*
X176195730Y-98374500D01*
X176165300Y-98377353D01*
X176165298Y-98377353D01*
X176037119Y-98422206D01*
X176037117Y-98422207D01*
X175927850Y-98502850D01*
X175847207Y-98612117D01*
X175847206Y-98612119D01*
X175802353Y-98740298D01*
X175802353Y-98740300D01*
X175799500Y-98770730D01*
X175799500Y-99429269D01*
X172143151Y-99429269D01*
X170275837Y-97561955D01*
X170259711Y-97542098D01*
X170254637Y-97534331D01*
X170228687Y-97514133D01*
X170222941Y-97509059D01*
X170220507Y-97506625D01*
X170220506Y-97506624D01*
X170220505Y-97506623D01*
X170214048Y-97502013D01*
X170202761Y-97493955D01*
X170162326Y-97462483D01*
X170162322Y-97462481D01*
X170155848Y-97458977D01*
X170149269Y-97455760D01*
X170100154Y-97441138D01*
X170051686Y-97424498D01*
X170044469Y-97423294D01*
X170037153Y-97422382D01*
X169987925Y-97424419D01*
X169985969Y-97424500D01*
X169071545Y-97424500D01*
X169004506Y-97404815D01*
X168983864Y-97388181D01*
X168757638Y-97161955D01*
X168741512Y-97142098D01*
X168736438Y-97134331D01*
X168710488Y-97114133D01*
X168704742Y-97109059D01*
X168702308Y-97106625D01*
X168693614Y-97100417D01*
X168650492Y-97045445D01*
X168643936Y-96975884D01*
X168676028Y-96913821D01*
X168736579Y-96878960D01*
X168765666Y-96875500D01*
X169325165Y-96875500D01*
X169392204Y-96895185D01*
X169399476Y-96900233D01*
X169457668Y-96943795D01*
X169457671Y-96943797D01*
X169502618Y-96960561D01*
X169592517Y-96994091D01*
X169652127Y-97000500D01*
X170347872Y-97000499D01*
X170407483Y-96994091D01*
X170542331Y-96943796D01*
X170657546Y-96857546D01*
X170743796Y-96742331D01*
X170794091Y-96607483D01*
X170800500Y-96547873D01*
X170800499Y-95852128D01*
X170795050Y-95801442D01*
X170794091Y-95792516D01*
X170743797Y-95657671D01*
X170743793Y-95657664D01*
X170657547Y-95542455D01*
X170657544Y-95542452D01*
X170542335Y-95456206D01*
X170542328Y-95456202D01*
X170407482Y-95405908D01*
X170407483Y-95405908D01*
X170347883Y-95399501D01*
X170347881Y-95399500D01*
X170347873Y-95399500D01*
X170347865Y-95399500D01*
X170135421Y-95399500D01*
X170110352Y-95396939D01*
X170087434Y-95392207D01*
X170038472Y-95380603D01*
X170012719Y-95374499D01*
X170005547Y-95373661D01*
X170005553Y-95373601D01*
X169998055Y-95372835D01*
X169998050Y-95372895D01*
X169990860Y-95372265D01*
X169914083Y-95374500D01*
X168687721Y-95374500D01*
X167156291Y-95374500D01*
X167051854Y-95386707D01*
X167025743Y-95389759D01*
X167025740Y-95389760D01*
X166860884Y-95449762D01*
X166860880Y-95449764D01*
X166708270Y-95550138D01*
X166707426Y-95548855D01*
X166651103Y-95573503D01*
X166635410Y-95574500D01*
X166468476Y-95574500D01*
X166468476Y-95574501D01*
X166454373Y-95576734D01*
X166385080Y-95567776D01*
X166331630Y-95522777D01*
X166310994Y-95456024D01*
X166329722Y-95388712D01*
X166347295Y-95366584D01*
X166738043Y-94975836D01*
X166757894Y-94959716D01*
X166765669Y-94954637D01*
X166785864Y-94928688D01*
X166790942Y-94922937D01*
X166793375Y-94920506D01*
X166806038Y-94902769D01*
X166837517Y-94862326D01*
X166837519Y-94862319D01*
X166841017Y-94855855D01*
X166844235Y-94849272D01*
X166844240Y-94849266D01*
X166858861Y-94800154D01*
X166860468Y-94795475D01*
X166863209Y-94787486D01*
X166875500Y-94751688D01*
X166875500Y-94751679D01*
X166876706Y-94744458D01*
X166877617Y-94737151D01*
X166875500Y-94685958D01*
X166875500Y-93656012D01*
X166878139Y-93630565D01*
X166880043Y-93621486D01*
X166878270Y-93607264D01*
X166875977Y-93588862D01*
X166875500Y-93581186D01*
X166875500Y-93577762D01*
X166875499Y-93577751D01*
X166871911Y-93556256D01*
X166865573Y-93505410D01*
X166865573Y-93505408D01*
X166865571Y-93505404D01*
X166863486Y-93498403D01*
X166863476Y-93498372D01*
X166863466Y-93498340D01*
X166861092Y-93491424D01*
X166861092Y-93491419D01*
X166836705Y-93446356D01*
X166820488Y-93413181D01*
X166814202Y-93400322D01*
X166814200Y-93400319D01*
X166814199Y-93400317D01*
X166814197Y-93400315D01*
X166809982Y-93394413D01*
X166809938Y-93394356D01*
X166809880Y-93394275D01*
X166805419Y-93388543D01*
X166767724Y-93353841D01*
X164891910Y-91478027D01*
X168694710Y-91478027D01*
X168697384Y-91508581D01*
X168698766Y-91524384D01*
X168699264Y-91530069D01*
X168699500Y-91535475D01*
X168699500Y-92022870D01*
X168699501Y-92022876D01*
X168705908Y-92082481D01*
X168736682Y-92164988D01*
X168744500Y-92208322D01*
X168744500Y-93776002D01*
X168750338Y-93830312D01*
X168754183Y-93847985D01*
X168761545Y-93881824D01*
X168765212Y-93895191D01*
X168768779Y-93908193D01*
X168768783Y-93908203D01*
X168818105Y-93994818D01*
X168818111Y-93994827D01*
X168853904Y-94036135D01*
X168863867Y-94047632D01*
X168896641Y-94079257D01*
X168984976Y-94125465D01*
X168984977Y-94125465D01*
X168984977Y-94125466D01*
X169035105Y-94140184D01*
X169052015Y-94145150D01*
X169052019Y-94145150D01*
X169052021Y-94145151D01*
X169063652Y-94146823D01*
X169124000Y-94155500D01*
X169466677Y-94155500D01*
X169510010Y-94163318D01*
X169592517Y-94194091D01*
X169652127Y-94200500D01*
X170347872Y-94200499D01*
X170407483Y-94194091D01*
X170489989Y-94163318D01*
X170533323Y-94155500D01*
X172003745Y-94155500D01*
X172070784Y-94175185D01*
X172116539Y-94227989D01*
X172126483Y-94297147D01*
X172097458Y-94360703D01*
X172091426Y-94367181D01*
X172071954Y-94386652D01*
X172071948Y-94386660D01*
X172055469Y-94419001D01*
X172007493Y-94469796D01*
X171939672Y-94486589D01*
X171915312Y-94483100D01*
X171778986Y-94449500D01*
X171778985Y-94449500D01*
X171621015Y-94449500D01*
X171621014Y-94449500D01*
X171467634Y-94487303D01*
X171327762Y-94560715D01*
X171209516Y-94665471D01*
X171119781Y-94795475D01*
X171119780Y-94795476D01*
X171063762Y-94943181D01*
X171044722Y-95099999D01*
X171044722Y-95100000D01*
X171063762Y-95256818D01*
X171116904Y-95396939D01*
X171119780Y-95404523D01*
X171209517Y-95534530D01*
X171327760Y-95639283D01*
X171327762Y-95639284D01*
X171467634Y-95712696D01*
X171621014Y-95750500D01*
X171621015Y-95750500D01*
X171778985Y-95750500D01*
X171881361Y-95725267D01*
X171951164Y-95728336D01*
X172008226Y-95768656D01*
X172021518Y-95789365D01*
X172071950Y-95888342D01*
X172071952Y-95888344D01*
X172071954Y-95888347D01*
X172161652Y-95978045D01*
X172161654Y-95978046D01*
X172161658Y-95978050D01*
X172274694Y-96035645D01*
X172274698Y-96035647D01*
X172368475Y-96050499D01*
X172368481Y-96050500D01*
X172731518Y-96050499D01*
X172825304Y-96035646D01*
X172938342Y-95978050D01*
X172938349Y-95978042D01*
X172946241Y-95972311D01*
X172947225Y-95973665D01*
X172998632Y-95945590D01*
X173068324Y-95950569D01*
X173103253Y-95973014D01*
X173103763Y-95972314D01*
X173111654Y-95978046D01*
X173111658Y-95978050D01*
X173224696Y-96035646D01*
X173224697Y-96035646D01*
X173224699Y-96035647D01*
X173232869Y-96038302D01*
X173290544Y-96077741D01*
X173317740Y-96142100D01*
X173305824Y-96210946D01*
X173258579Y-96262421D01*
X173207802Y-96279522D01*
X173197884Y-96280588D01*
X173069773Y-96328372D01*
X172960313Y-96410313D01*
X172878373Y-96519771D01*
X172878371Y-96519774D01*
X172878372Y-96519774D01*
X172841752Y-96617956D01*
X172830587Y-96647889D01*
X172824500Y-96704498D01*
X172824500Y-97295481D01*
X172824501Y-97295490D01*
X172830587Y-97352114D01*
X172881471Y-97488534D01*
X172879371Y-97489317D01*
X172891593Y-97545523D01*
X172867172Y-97610986D01*
X172850137Y-97629483D01*
X172809518Y-97665468D01*
X172719781Y-97795475D01*
X172719780Y-97795476D01*
X172663762Y-97943181D01*
X172644722Y-98099999D01*
X172644722Y-98100000D01*
X172663762Y-98256818D01*
X172696468Y-98343055D01*
X172719780Y-98404523D01*
X172809517Y-98534530D01*
X172927760Y-98639283D01*
X172936427Y-98643832D01*
X173067634Y-98712696D01*
X173221014Y-98750500D01*
X173221015Y-98750500D01*
X173378985Y-98750500D01*
X173532365Y-98712696D01*
X173557001Y-98699766D01*
X173672240Y-98639283D01*
X173790483Y-98534530D01*
X173880220Y-98404523D01*
X173936237Y-98256818D01*
X173955278Y-98100000D01*
X173936237Y-97943182D01*
X173909188Y-97871859D01*
X173908558Y-97870198D01*
X173900500Y-97826227D01*
X173900500Y-97787459D01*
X173920185Y-97720420D01*
X173972989Y-97674665D01*
X173979928Y-97671790D01*
X173980222Y-97671629D01*
X173980226Y-97671628D01*
X174089687Y-97589687D01*
X174171628Y-97480226D01*
X174183819Y-97447538D01*
X174225687Y-97391609D01*
X174291150Y-97367191D01*
X174359424Y-97382042D01*
X174408830Y-97431446D01*
X174416180Y-97447539D01*
X174428372Y-97480227D01*
X174451989Y-97511775D01*
X174510313Y-97589687D01*
X174619774Y-97671628D01*
X174747886Y-97719412D01*
X174804515Y-97725500D01*
X175345484Y-97725499D01*
X175402114Y-97719412D01*
X175530226Y-97671628D01*
X175639687Y-97589687D01*
X175721628Y-97480226D01*
X175769412Y-97352114D01*
X175773047Y-97318305D01*
X175775499Y-97295501D01*
X175775499Y-97295490D01*
X175775500Y-97295485D01*
X175775499Y-96704516D01*
X175769412Y-96647886D01*
X175763862Y-96633007D01*
X175733819Y-96552459D01*
X175721628Y-96519774D01*
X175639687Y-96410313D01*
X175530226Y-96328372D01*
X175522444Y-96324123D01*
X175523191Y-96322753D01*
X175475232Y-96286850D01*
X175450816Y-96221385D01*
X175450500Y-96212541D01*
X175450500Y-95814303D01*
X175453139Y-95788858D01*
X175454606Y-95781858D01*
X175455367Y-95778231D01*
X175452126Y-95752228D01*
X175450977Y-95743008D01*
X175450500Y-95735332D01*
X175450500Y-95731389D01*
X175450499Y-95731383D01*
X175450280Y-95730072D01*
X175446655Y-95708347D01*
X175440338Y-95657664D01*
X175439865Y-95653873D01*
X175437617Y-95646327D01*
X175435065Y-95638890D01*
X175408942Y-95590619D01*
X175402154Y-95576734D01*
X175384826Y-95541288D01*
X175384823Y-95541285D01*
X175384823Y-95541284D01*
X175380267Y-95534902D01*
X175375423Y-95528678D01*
X175369013Y-95522777D01*
X175335041Y-95491503D01*
X175036818Y-95193280D01*
X175003333Y-95131957D01*
X175000499Y-95105599D01*
X175000499Y-94593482D01*
X174995310Y-94560717D01*
X174985646Y-94499696D01*
X174928050Y-94386658D01*
X174928046Y-94386654D01*
X174928045Y-94386652D01*
X174838347Y-94296954D01*
X174838344Y-94296952D01*
X174838342Y-94296950D01*
X174761517Y-94257805D01*
X174725301Y-94239352D01*
X174631524Y-94224500D01*
X174268482Y-94224500D01*
X174187519Y-94237323D01*
X174174696Y-94239354D01*
X174061658Y-94296950D01*
X174061657Y-94296950D01*
X174061657Y-94296951D01*
X174053759Y-94302689D01*
X174052775Y-94301334D01*
X174001358Y-94329411D01*
X173931666Y-94324427D01*
X173896750Y-94301987D01*
X173896241Y-94302689D01*
X173888345Y-94296953D01*
X173888342Y-94296950D01*
X173811517Y-94257805D01*
X173775301Y-94239352D01*
X173681524Y-94224500D01*
X173318482Y-94224500D01*
X173237519Y-94237323D01*
X173224696Y-94239354D01*
X173131272Y-94286956D01*
X173111654Y-94296952D01*
X173103763Y-94302686D01*
X173102781Y-94301334D01*
X173051348Y-94329413D01*
X172981657Y-94324423D01*
X172946750Y-94301987D01*
X172946241Y-94302689D01*
X172938343Y-94296951D01*
X172938342Y-94296950D01*
X172918728Y-94286956D01*
X172867933Y-94238981D01*
X172851138Y-94171160D01*
X172873676Y-94105026D01*
X172893823Y-94082758D01*
X172894825Y-94081889D01*
X172894828Y-94081888D01*
X172947632Y-94036133D01*
X172979257Y-94003359D01*
X173025465Y-93915024D01*
X173028141Y-93905909D01*
X173065910Y-93847133D01*
X173129463Y-93818103D01*
X173167027Y-93818448D01*
X173193901Y-93822820D01*
X173266611Y-93824161D01*
X173266611Y-93824160D01*
X173266612Y-93824161D01*
X173266616Y-93824161D01*
X173442136Y-93802220D01*
X173652082Y-93775977D01*
X173659769Y-93775499D01*
X173681517Y-93775499D01*
X173681518Y-93775499D01*
X173775304Y-93760646D01*
X173781603Y-93757436D01*
X173789372Y-93753478D01*
X173804715Y-93747259D01*
X173808191Y-93745756D01*
X173808198Y-93745754D01*
X173838138Y-93728703D01*
X173840670Y-93727339D01*
X173888342Y-93703050D01*
X173894322Y-93697068D01*
X173897541Y-93694071D01*
X173947632Y-93650668D01*
X173979257Y-93617894D01*
X174025465Y-93529559D01*
X174028638Y-93518748D01*
X174034177Y-93504820D01*
X174035645Y-93500305D01*
X174035646Y-93500304D01*
X174036885Y-93492476D01*
X174038632Y-93484713D01*
X174045150Y-93462520D01*
X174055500Y-93390535D01*
X174055500Y-92389747D01*
X174075185Y-92322708D01*
X174105097Y-92290550D01*
X174725920Y-91824931D01*
X174744858Y-91813227D01*
X174989970Y-91690670D01*
X174997801Y-91686407D01*
X174998616Y-91685925D01*
X175001268Y-91684446D01*
X175116532Y-91623949D01*
X175123908Y-91620673D01*
X175140188Y-91614682D01*
X175140188Y-91614683D01*
X175153214Y-91609050D01*
X175153211Y-91609052D01*
X175176336Y-91597488D01*
X175245717Y-91562798D01*
X175302149Y-91524386D01*
X175351010Y-91480516D01*
X175379257Y-91450722D01*
X175425465Y-91362387D01*
X175445150Y-91295348D01*
X175455500Y-91223363D01*
X175455500Y-89924000D01*
X175449661Y-89869687D01*
X175445815Y-89852009D01*
X175438457Y-89818183D01*
X175438456Y-89818182D01*
X175438455Y-89818176D01*
X175431219Y-89791802D01*
X175423242Y-89777793D01*
X175381894Y-89705181D01*
X175381888Y-89705172D01*
X175336136Y-89652371D01*
X175303360Y-89620744D01*
X175303359Y-89620743D01*
X175265932Y-89601165D01*
X175210747Y-89572297D01*
X175205037Y-89568909D01*
X175197739Y-89564033D01*
X175197740Y-89564033D01*
X175124676Y-89549500D01*
X175124674Y-89549500D01*
X175119644Y-89549500D01*
X175101998Y-89548238D01*
X175076000Y-89544500D01*
X170924000Y-89544500D01*
X170880792Y-89549145D01*
X170876719Y-89549363D01*
X170875171Y-89549515D01*
X170870075Y-89550296D01*
X170869712Y-89550335D01*
X170869684Y-89550339D01*
X170854512Y-89553640D01*
X170802262Y-89564033D01*
X170794483Y-89567254D01*
X170705174Y-89618110D01*
X170705172Y-89618111D01*
X170652371Y-89663864D01*
X170620743Y-89696640D01*
X170574534Y-89784977D01*
X170574533Y-89784977D01*
X170554851Y-89852009D01*
X170554848Y-89852021D01*
X170544500Y-89923998D01*
X170544500Y-90697106D01*
X170524815Y-90764145D01*
X170472011Y-90809900D01*
X170402853Y-90819844D01*
X170339297Y-90790819D01*
X170329093Y-90780896D01*
X170219643Y-90661497D01*
X170219642Y-90661496D01*
X170207759Y-90650102D01*
X170207754Y-90650097D01*
X170190644Y-90635685D01*
X170177090Y-90624268D01*
X170172811Y-90620743D01*
X170172812Y-90620743D01*
X170084475Y-90574534D01*
X170084474Y-90574533D01*
X170017442Y-90554851D01*
X170017430Y-90554848D01*
X169945453Y-90544500D01*
X169945452Y-90544500D01*
X169866295Y-90544500D01*
X169822961Y-90536681D01*
X169807491Y-90530911D01*
X169807488Y-90530910D01*
X169807484Y-90530909D01*
X169807483Y-90530909D01*
X169747873Y-90524500D01*
X169747863Y-90524500D01*
X169152129Y-90524500D01*
X169152123Y-90524501D01*
X169092516Y-90530908D01*
X168957671Y-90581202D01*
X168957667Y-90581205D01*
X168921623Y-90608185D01*
X168915150Y-90612428D01*
X168905177Y-90618107D01*
X168905169Y-90618113D01*
X168886562Y-90634236D01*
X168883117Y-90637012D01*
X168842458Y-90667450D01*
X168842451Y-90667457D01*
X168756206Y-90782664D01*
X168756202Y-90782671D01*
X168705908Y-90917517D01*
X168699501Y-90977116D01*
X168699500Y-90977135D01*
X168699500Y-91436291D01*
X168698191Y-91454262D01*
X168694711Y-91478020D01*
X168694710Y-91478027D01*
X164891910Y-91478027D01*
X164511819Y-91097936D01*
X164478334Y-91036613D01*
X164475500Y-91010255D01*
X164475500Y-87080642D01*
X164495185Y-87013603D01*
X164511814Y-86992966D01*
X167938043Y-83566736D01*
X167957894Y-83550616D01*
X167965669Y-83545537D01*
X167985864Y-83519588D01*
X167990942Y-83513837D01*
X167993375Y-83511406D01*
X167998470Y-83504269D01*
X168374500Y-83504269D01*
X168377353Y-83534699D01*
X168377353Y-83534701D01*
X168414996Y-83642275D01*
X168422207Y-83662882D01*
X168502850Y-83772150D01*
X168612118Y-83852793D01*
X168654845Y-83867744D01*
X168740299Y-83897646D01*
X168770730Y-83900500D01*
X168770734Y-83900500D01*
X169429270Y-83900500D01*
X169459699Y-83897646D01*
X169459701Y-83897646D01*
X169530899Y-83872732D01*
X169587882Y-83852793D01*
X169697150Y-83772150D01*
X169749758Y-83700867D01*
X169805406Y-83658616D01*
X169849529Y-83650500D01*
X169932020Y-83650500D01*
X169999059Y-83670185D01*
X170031790Y-83700867D01*
X170102848Y-83797148D01*
X170102849Y-83797148D01*
X170102850Y-83797150D01*
X170212118Y-83877793D01*
X170254845Y-83892744D01*
X170340299Y-83922646D01*
X170370730Y-83925500D01*
X170370734Y-83925500D01*
X171029270Y-83925500D01*
X171059699Y-83922646D01*
X171059701Y-83922646D01*
X171131145Y-83897646D01*
X171187882Y-83877793D01*
X171297150Y-83797150D01*
X171377793Y-83687882D01*
X171404102Y-83612696D01*
X171422646Y-83559701D01*
X171422646Y-83559699D01*
X171425500Y-83529269D01*
X171425500Y-83020730D01*
X171422646Y-82990300D01*
X171422646Y-82990298D01*
X171387273Y-82889211D01*
X171377793Y-82862118D01*
X171297150Y-82752850D01*
X171187882Y-82672207D01*
X171187880Y-82672206D01*
X171059700Y-82627353D01*
X171029270Y-82624500D01*
X171029266Y-82624500D01*
X170667986Y-82624500D01*
X170600947Y-82604815D01*
X170555192Y-82552011D01*
X170544890Y-82485554D01*
X170555278Y-82400000D01*
X170555278Y-82399999D01*
X170536237Y-82243181D01*
X170512198Y-82179796D01*
X170480220Y-82095477D01*
X170390483Y-81965470D01*
X170272240Y-81860717D01*
X170272238Y-81860716D01*
X170272237Y-81860715D01*
X170132365Y-81787303D01*
X169978986Y-81749500D01*
X169978985Y-81749500D01*
X169821015Y-81749500D01*
X169821014Y-81749500D01*
X169667634Y-81787303D01*
X169527762Y-81860715D01*
X169409516Y-81965471D01*
X169319781Y-82095475D01*
X169319780Y-82095476D01*
X169263763Y-82243181D01*
X169244722Y-82400000D01*
X169250896Y-82450854D01*
X169239435Y-82519777D01*
X169215486Y-82553475D01*
X169205783Y-82563178D01*
X169144464Y-82596665D01*
X169118100Y-82599500D01*
X168770730Y-82599500D01*
X168740300Y-82602353D01*
X168740298Y-82602353D01*
X168612119Y-82647206D01*
X168612117Y-82647207D01*
X168502850Y-82727850D01*
X168422207Y-82837117D01*
X168422206Y-82837119D01*
X168377353Y-82965298D01*
X168377353Y-82965300D01*
X168374500Y-82995730D01*
X168374500Y-83504269D01*
X167998470Y-83504269D01*
X168006038Y-83493669D01*
X168037517Y-83453226D01*
X168037519Y-83453219D01*
X168041017Y-83446755D01*
X168044235Y-83440172D01*
X168044240Y-83440166D01*
X168058861Y-83391054D01*
X168075500Y-83342588D01*
X168075500Y-83342579D01*
X168076706Y-83335358D01*
X168077617Y-83328051D01*
X168075500Y-83276858D01*
X168075500Y-78774500D01*
X168095185Y-78707461D01*
X168147989Y-78661706D01*
X168199500Y-78650500D01*
X169524676Y-78650500D01*
X169561207Y-78643233D01*
X169597740Y-78635966D01*
X169597743Y-78635963D01*
X169600222Y-78634938D01*
X169647673Y-78625500D01*
X170543101Y-78625500D01*
X170610140Y-78645185D01*
X170630782Y-78661819D01*
X171597849Y-79628886D01*
X171613977Y-79648745D01*
X171619916Y-79657836D01*
X171638580Y-79672363D01*
X171647929Y-79679639D01*
X171653691Y-79684728D01*
X171656483Y-79687520D01*
X171675486Y-79701088D01*
X171718811Y-79734809D01*
X171718813Y-79734809D01*
X171725735Y-79738555D01*
X171732798Y-79742008D01*
X171732801Y-79742010D01*
X171785412Y-79757673D01*
X171811376Y-79766586D01*
X171837339Y-79775500D01*
X171845101Y-79776795D01*
X171852911Y-79777768D01*
X171852912Y-79777769D01*
X171852912Y-79777768D01*
X171852913Y-79777769D01*
X171880340Y-79776634D01*
X171907769Y-79775500D01*
X172644901Y-79775500D01*
X172711940Y-79795185D01*
X172757695Y-79847989D01*
X172761934Y-79858525D01*
X172772207Y-79887882D01*
X172852850Y-79997150D01*
X172962118Y-80077793D01*
X173004845Y-80092744D01*
X173090299Y-80122646D01*
X173120730Y-80125500D01*
X173120734Y-80125500D01*
X173629270Y-80125500D01*
X173659699Y-80122646D01*
X173659701Y-80122646D01*
X173723790Y-80100219D01*
X173787882Y-80077793D01*
X173897150Y-79997150D01*
X173977793Y-79887882D01*
X174013020Y-79787209D01*
X174022646Y-79759701D01*
X174022646Y-79759699D01*
X174025500Y-79729269D01*
X174025500Y-79070730D01*
X174022646Y-79040300D01*
X174022646Y-79040298D01*
X173977793Y-78912119D01*
X173977792Y-78912117D01*
X173897150Y-78802850D01*
X173787882Y-78722207D01*
X173787880Y-78722206D01*
X173659700Y-78677353D01*
X173629270Y-78674500D01*
X173629266Y-78674500D01*
X173120734Y-78674500D01*
X173120730Y-78674500D01*
X173090300Y-78677353D01*
X173090298Y-78677353D01*
X172962119Y-78722206D01*
X172962117Y-78722207D01*
X172915221Y-78756818D01*
X172852850Y-78802850D01*
X172772207Y-78912118D01*
X172761940Y-78941456D01*
X172721221Y-78998230D01*
X172656269Y-79023978D01*
X172644901Y-79024500D01*
X172106899Y-79024500D01*
X172039860Y-79004815D01*
X172019218Y-78988181D01*
X171541726Y-78510689D01*
X171052149Y-78021111D01*
X171036022Y-78001252D01*
X171030086Y-77992167D01*
X171030083Y-77992163D01*
X171002074Y-77970363D01*
X170996310Y-77965272D01*
X170993515Y-77962477D01*
X170974505Y-77948906D01*
X170931189Y-77915190D01*
X170924274Y-77911448D01*
X170917200Y-77907990D01*
X170864596Y-77892329D01*
X170812658Y-77874499D01*
X170804923Y-77873208D01*
X170797085Y-77872231D01*
X170742244Y-77874500D01*
X169874500Y-77874500D01*
X169807461Y-77854815D01*
X169761706Y-77802011D01*
X169750500Y-77750500D01*
X169750500Y-77575323D01*
X169750499Y-77575321D01*
X169735967Y-77502264D01*
X169735966Y-77502260D01*
X169735965Y-77502259D01*
X169680601Y-77419399D01*
X169597740Y-77364034D01*
X169597739Y-77364033D01*
X169587585Y-77357249D01*
X169588409Y-77356015D01*
X169544610Y-77320722D01*
X169522544Y-77254429D01*
X169539822Y-77186729D01*
X169590958Y-77139117D01*
X169597482Y-77136137D01*
X169597737Y-77135966D01*
X169597740Y-77135966D01*
X169680601Y-77080601D01*
X169735966Y-76997740D01*
X169750500Y-76924674D01*
X169750500Y-76575326D01*
X169750500Y-76575325D01*
X169750500Y-76575323D01*
X169750499Y-76575321D01*
X169735967Y-76502264D01*
X169735966Y-76502260D01*
X169726117Y-76487520D01*
X169680601Y-76419399D01*
X169597740Y-76364034D01*
X169597739Y-76364033D01*
X169587585Y-76357249D01*
X169588409Y-76356015D01*
X169544610Y-76320722D01*
X169522544Y-76254429D01*
X169539822Y-76186729D01*
X169590958Y-76139117D01*
X169597482Y-76136137D01*
X169597737Y-76135966D01*
X169597740Y-76135966D01*
X169680601Y-76080601D01*
X169735966Y-75997740D01*
X169735966Y-75997737D01*
X169739877Y-75991885D01*
X169793489Y-75947080D01*
X169862814Y-75938371D01*
X169925842Y-75968526D01*
X169930655Y-75973088D01*
X170203142Y-76245576D01*
X170386454Y-76428888D01*
X170402579Y-76448744D01*
X170408517Y-76457832D01*
X170408520Y-76457836D01*
X170436529Y-76479636D01*
X170442291Y-76484725D01*
X170445086Y-76487520D01*
X170464099Y-76501094D01*
X170507415Y-76534809D01*
X170507422Y-76534811D01*
X170514324Y-76538547D01*
X170521400Y-76542006D01*
X170521405Y-76542010D01*
X170574006Y-76557670D01*
X170574007Y-76557670D01*
X170625942Y-76575500D01*
X170633676Y-76576790D01*
X170641514Y-76577767D01*
X170641516Y-76577768D01*
X170641517Y-76577767D01*
X170641518Y-76577768D01*
X170696360Y-76575500D01*
X171403692Y-76575500D01*
X171470731Y-76595185D01*
X171505742Y-76629061D01*
X171508163Y-76632569D01*
X171509515Y-76634528D01*
X171509517Y-76634530D01*
X171627760Y-76739283D01*
X171627762Y-76739284D01*
X171767634Y-76812696D01*
X171921014Y-76850500D01*
X171921015Y-76850500D01*
X172078985Y-76850500D01*
X172232365Y-76812696D01*
X172279308Y-76788058D01*
X172372240Y-76739283D01*
X172490483Y-76634530D01*
X172580220Y-76504523D01*
X172636237Y-76356818D01*
X172655278Y-76200000D01*
X172640781Y-76080601D01*
X172636237Y-76043181D01*
X172599790Y-75947080D01*
X172580220Y-75895477D01*
X172534747Y-75829598D01*
X172512865Y-75763246D01*
X172530330Y-75695594D01*
X172554572Y-75666344D01*
X172590482Y-75634531D01*
X172614156Y-75600233D01*
X172680220Y-75504523D01*
X172736237Y-75356818D01*
X172755278Y-75200000D01*
X172745181Y-75116838D01*
X172736237Y-75043181D01*
X172710685Y-74975807D01*
X172680220Y-74895477D01*
X172590483Y-74765470D01*
X172472240Y-74660717D01*
X172472238Y-74660716D01*
X172472237Y-74660715D01*
X172332365Y-74587303D01*
X172178986Y-74549500D01*
X172178985Y-74549500D01*
X172174239Y-74549500D01*
X172107200Y-74529815D01*
X172061445Y-74477011D01*
X172051143Y-74440446D01*
X172036237Y-74317682D01*
X172027055Y-74293472D01*
X172021688Y-74223809D01*
X172054835Y-74162302D01*
X172115973Y-74128481D01*
X172142997Y-74125500D01*
X174743101Y-74125500D01*
X174810140Y-74145185D01*
G37*
G04 #@! TD.AperFunction*
G04 #@! TA.AperFunction,Conductor*
G36*
X191501867Y-64000613D02*
G01*
X191518189Y-64001600D01*
X191598917Y-64006483D01*
X191806399Y-64020082D01*
X191813502Y-64020963D01*
X191949227Y-64045836D01*
X192115664Y-64078942D01*
X192121961Y-64080544D01*
X192252376Y-64121183D01*
X192261157Y-64123920D01*
X192415039Y-64176155D01*
X192420539Y-64178321D01*
X192556505Y-64239514D01*
X192699853Y-64310206D01*
X192704493Y-64312747D01*
X192832387Y-64390062D01*
X192834758Y-64391570D01*
X192965590Y-64478990D01*
X192969382Y-64481736D01*
X193087552Y-64574316D01*
X193090196Y-64576508D01*
X193208075Y-64679885D01*
X193211037Y-64682659D01*
X193317339Y-64788961D01*
X193320113Y-64791923D01*
X193423490Y-64909802D01*
X193425682Y-64912446D01*
X193518262Y-65030616D01*
X193521008Y-65034408D01*
X193608428Y-65165240D01*
X193609936Y-65167611D01*
X193687251Y-65295505D01*
X193689799Y-65300160D01*
X193760491Y-65443507D01*
X193821675Y-65579454D01*
X193823848Y-65584973D01*
X193876079Y-65738842D01*
X193919446Y-65878008D01*
X193921063Y-65884362D01*
X193954167Y-66050791D01*
X193979033Y-66186486D01*
X193979917Y-66193612D01*
X193993517Y-66401100D01*
X193999387Y-66498134D01*
X193999500Y-66501879D01*
X193999500Y-100498120D01*
X193999387Y-100501865D01*
X193993517Y-100598899D01*
X193979917Y-100806386D01*
X193979033Y-100813512D01*
X193954167Y-100949208D01*
X193921063Y-101115636D01*
X193919446Y-101121990D01*
X193876079Y-101261157D01*
X193823848Y-101415025D01*
X193821675Y-101420544D01*
X193760491Y-101556492D01*
X193689799Y-101699838D01*
X193687251Y-101704493D01*
X193609936Y-101832387D01*
X193608428Y-101834758D01*
X193521008Y-101965590D01*
X193518262Y-101969382D01*
X193425682Y-102087552D01*
X193423490Y-102090196D01*
X193320113Y-102208075D01*
X193317339Y-102211037D01*
X193211037Y-102317339D01*
X193208075Y-102320113D01*
X193090196Y-102423490D01*
X193087552Y-102425682D01*
X192969382Y-102518262D01*
X192965590Y-102521008D01*
X192834758Y-102608428D01*
X192832387Y-102609936D01*
X192704493Y-102687251D01*
X192699838Y-102689799D01*
X192556492Y-102760491D01*
X192420544Y-102821675D01*
X192415025Y-102823848D01*
X192261157Y-102876079D01*
X192121990Y-102919446D01*
X192115636Y-102921063D01*
X191949208Y-102954167D01*
X191813512Y-102979033D01*
X191806386Y-102979917D01*
X191598899Y-102993517D01*
X191501866Y-102999387D01*
X191498121Y-102999500D01*
X163502214Y-102999500D01*
X163497791Y-102999342D01*
X163469525Y-102997320D01*
X163430331Y-102994517D01*
X163283366Y-102982950D01*
X163275043Y-102981723D01*
X163180244Y-102961101D01*
X163063781Y-102933140D01*
X163056582Y-102930942D01*
X162960260Y-102895016D01*
X162854141Y-102851059D01*
X162848151Y-102848193D01*
X162757076Y-102798463D01*
X162754393Y-102796910D01*
X162694963Y-102760491D01*
X162659106Y-102738517D01*
X162654349Y-102735289D01*
X162630228Y-102717232D01*
X162570567Y-102672570D01*
X162567471Y-102670094D01*
X162483061Y-102598001D01*
X162479485Y-102594695D01*
X162405303Y-102520513D01*
X162401997Y-102516937D01*
X162373339Y-102483383D01*
X162329898Y-102432520D01*
X162327435Y-102429440D01*
X162264705Y-102345643D01*
X162261488Y-102340903D01*
X162203073Y-102245580D01*
X162201535Y-102242922D01*
X162182507Y-102208075D01*
X162151805Y-102151847D01*
X162148939Y-102145856D01*
X162137368Y-102117922D01*
X162104983Y-102039737D01*
X162069051Y-101943401D01*
X162066860Y-101936225D01*
X162038899Y-101819760D01*
X162018274Y-101724947D01*
X162017049Y-101716644D01*
X162005489Y-101569755D01*
X162000657Y-101502207D01*
X162000500Y-101497787D01*
X162000500Y-91378517D01*
X163319957Y-91378517D01*
X163324023Y-91411137D01*
X163324500Y-91418814D01*
X163324500Y-91422238D01*
X163328087Y-91443741D01*
X163334427Y-91494593D01*
X163336520Y-91501626D01*
X163338908Y-91508581D01*
X163363295Y-91553644D01*
X163385801Y-91599683D01*
X163390065Y-91605655D01*
X163394580Y-91611456D01*
X163432275Y-91646158D01*
X165688181Y-93902063D01*
X165721666Y-93963386D01*
X165724500Y-93989744D01*
X165724500Y-94310254D01*
X165704815Y-94377293D01*
X165688181Y-94397935D01*
X163961955Y-96124161D01*
X163942106Y-96140282D01*
X163934331Y-96145362D01*
X163914143Y-96171298D01*
X163909067Y-96177048D01*
X163906634Y-96179481D01*
X163906623Y-96179494D01*
X163893954Y-96197238D01*
X163862483Y-96237672D01*
X163858975Y-96244153D01*
X163855760Y-96250732D01*
X163841138Y-96299845D01*
X163824498Y-96348316D01*
X163823294Y-96355533D01*
X163822382Y-96362846D01*
X163824500Y-96414030D01*
X163824500Y-97543988D01*
X163821861Y-97569432D01*
X163819957Y-97578511D01*
X163819957Y-97578517D01*
X163824023Y-97611137D01*
X163824500Y-97618814D01*
X163824500Y-97622240D01*
X163826891Y-97636573D01*
X163828087Y-97643741D01*
X163834427Y-97694593D01*
X163836520Y-97701626D01*
X163838908Y-97708581D01*
X163863295Y-97753644D01*
X163885801Y-97799683D01*
X163890065Y-97805655D01*
X163894580Y-97811456D01*
X163932275Y-97846158D01*
X164429173Y-98343055D01*
X164445300Y-98362913D01*
X164450374Y-98370680D01*
X164450376Y-98370682D01*
X164476316Y-98390871D01*
X164482079Y-98395961D01*
X164484504Y-98398386D01*
X164484506Y-98398388D01*
X164502248Y-98411055D01*
X164542685Y-98442528D01*
X164542689Y-98442529D01*
X164549125Y-98446011D01*
X164549150Y-98446024D01*
X164549182Y-98446041D01*
X164555741Y-98449248D01*
X164555744Y-98449250D01*
X164604848Y-98463869D01*
X164653323Y-98480511D01*
X164653325Y-98480511D01*
X164660565Y-98481719D01*
X164667857Y-98482628D01*
X164719042Y-98480511D01*
X165975500Y-98480511D01*
X166042539Y-98500196D01*
X166088294Y-98553000D01*
X166099500Y-98604510D01*
X166099500Y-98806517D01*
X166103946Y-98834585D01*
X166114354Y-98900304D01*
X166171950Y-99013342D01*
X166171952Y-99013344D01*
X166171954Y-99013347D01*
X166261652Y-99103045D01*
X166261654Y-99103046D01*
X166261658Y-99103050D01*
X166374694Y-99160645D01*
X166374698Y-99160647D01*
X166468475Y-99175499D01*
X166468481Y-99175500D01*
X166918567Y-99175499D01*
X166976193Y-99189702D01*
X167067635Y-99237696D01*
X167144325Y-99256597D01*
X167221014Y-99275500D01*
X167221015Y-99275500D01*
X167378985Y-99275500D01*
X167532365Y-99237696D01*
X167623806Y-99189702D01*
X167681433Y-99175499D01*
X167931517Y-99175499D01*
X167931518Y-99175499D01*
X168025304Y-99160646D01*
X168138342Y-99103050D01*
X168138346Y-99103045D01*
X168229574Y-99011819D01*
X168290897Y-98978334D01*
X168317255Y-98975500D01*
X168425790Y-98975500D01*
X168451235Y-98978138D01*
X168460316Y-98980043D01*
X168476006Y-98978087D01*
X168492940Y-98975977D01*
X168500616Y-98975500D01*
X168504036Y-98975500D01*
X168504041Y-98975500D01*
X168507609Y-98974904D01*
X168525540Y-98971913D01*
X168552959Y-98968494D01*
X168576394Y-98965573D01*
X168576403Y-98965568D01*
X168583452Y-98963470D01*
X168590378Y-98961092D01*
X168590382Y-98961092D01*
X168635445Y-98936704D01*
X168681485Y-98914198D01*
X168681488Y-98914194D01*
X168687454Y-98909935D01*
X168693255Y-98905419D01*
X168693259Y-98905418D01*
X168727958Y-98867724D01*
X168983863Y-98611819D01*
X169045187Y-98578334D01*
X169071545Y-98575500D01*
X169610256Y-98575500D01*
X169677295Y-98595185D01*
X169697937Y-98611819D01*
X172624162Y-101538044D01*
X172640286Y-101557899D01*
X172645363Y-101565669D01*
X172671308Y-101585862D01*
X172677060Y-101590942D01*
X172679493Y-101593375D01*
X172697238Y-101606044D01*
X172737674Y-101637517D01*
X172737676Y-101637517D01*
X172744110Y-101640999D01*
X172744144Y-101641016D01*
X172744190Y-101641041D01*
X172750732Y-101644239D01*
X172750733Y-101644239D01*
X172750734Y-101644240D01*
X172764878Y-101648451D01*
X172799845Y-101658862D01*
X172848309Y-101675499D01*
X172848312Y-101675500D01*
X172848315Y-101675500D01*
X172855425Y-101676687D01*
X172855531Y-101676700D01*
X172855655Y-101676720D01*
X172862846Y-101677617D01*
X172914031Y-101675500D01*
X183843989Y-101675500D01*
X183869434Y-101678138D01*
X183878515Y-101680043D01*
X183894205Y-101678087D01*
X183911139Y-101675977D01*
X183918815Y-101675500D01*
X183922235Y-101675500D01*
X183922240Y-101675500D01*
X183925808Y-101674904D01*
X183943739Y-101671913D01*
X183971158Y-101668494D01*
X183994593Y-101665573D01*
X183994602Y-101665568D01*
X184001651Y-101663470D01*
X184008577Y-101661092D01*
X184008581Y-101661092D01*
X184053644Y-101636704D01*
X184099684Y-101614198D01*
X184099687Y-101614194D01*
X184105653Y-101609935D01*
X184111454Y-101605419D01*
X184111458Y-101605418D01*
X184146157Y-101567724D01*
X185238043Y-100475836D01*
X185257894Y-100459716D01*
X185265669Y-100454637D01*
X185285864Y-100428688D01*
X185290942Y-100422937D01*
X185293375Y-100420506D01*
X185306038Y-100402769D01*
X185337517Y-100362326D01*
X185337519Y-100362319D01*
X185341017Y-100355855D01*
X185344235Y-100349272D01*
X185344240Y-100349266D01*
X185358861Y-100300154D01*
X185375500Y-100251688D01*
X185375500Y-100251679D01*
X185376706Y-100244456D01*
X185377617Y-100237152D01*
X185375500Y-100185968D01*
X185375500Y-98374499D01*
X185395185Y-98307460D01*
X185447989Y-98261705D01*
X185499495Y-98250499D01*
X186371858Y-98250499D01*
X186400939Y-98247773D01*
X186523431Y-98204911D01*
X186627848Y-98127848D01*
X186704911Y-98023431D01*
X186726341Y-97962185D01*
X186747773Y-97900941D01*
X186747773Y-97900939D01*
X186748844Y-97889514D01*
X186750500Y-97871859D01*
X186750499Y-96726719D01*
X186770184Y-96659681D01*
X186822987Y-96613926D01*
X186892146Y-96603982D01*
X186955702Y-96633007D01*
X186962180Y-96639039D01*
X187013181Y-96690040D01*
X187046666Y-96751363D01*
X187049500Y-96777721D01*
X187049500Y-97871852D01*
X187049501Y-97871858D01*
X187052227Y-97900939D01*
X187052227Y-97900941D01*
X187052228Y-97900944D01*
X187090133Y-98009268D01*
X187095089Y-98023431D01*
X187125270Y-98064324D01*
X187149241Y-98129953D01*
X187149500Y-98137958D01*
X187149500Y-98368964D01*
X187129815Y-98436003D01*
X187099812Y-98468230D01*
X187067457Y-98492450D01*
X187067451Y-98492457D01*
X186981206Y-98607664D01*
X186981202Y-98607671D01*
X186930910Y-98742513D01*
X186930909Y-98742517D01*
X186924500Y-98802127D01*
X186924500Y-98802134D01*
X186924500Y-98802135D01*
X186924500Y-99397870D01*
X186924501Y-99397876D01*
X186930908Y-99457483D01*
X186981202Y-99592328D01*
X186981206Y-99592335D01*
X187067452Y-99707544D01*
X187067455Y-99707547D01*
X187182664Y-99793793D01*
X187182671Y-99793797D01*
X187226801Y-99810256D01*
X187317517Y-99844091D01*
X187377127Y-99850500D01*
X187876348Y-99850499D01*
X187879951Y-99850603D01*
X187943935Y-99854331D01*
X187952052Y-99852899D01*
X187954983Y-99852383D01*
X187976516Y-99850499D01*
X188422871Y-99850499D01*
X188422872Y-99850499D01*
X188482483Y-99844091D01*
X188617331Y-99793796D01*
X188732546Y-99707546D01*
X188818796Y-99592331D01*
X188869091Y-99457483D01*
X188875500Y-99397873D01*
X188875499Y-98802128D01*
X188869091Y-98742517D01*
X188868264Y-98740301D01*
X188818797Y-98607671D01*
X188818793Y-98607664D01*
X188740328Y-98502850D01*
X188732546Y-98492454D01*
X188732544Y-98492452D01*
X188732542Y-98492450D01*
X188700188Y-98468230D01*
X188658318Y-98412296D01*
X188650500Y-98368964D01*
X188650500Y-98137958D01*
X188670185Y-98070919D01*
X188674730Y-98064324D01*
X188704911Y-98023431D01*
X188726341Y-97962185D01*
X188747773Y-97900941D01*
X188747773Y-97900939D01*
X188748844Y-97889514D01*
X188750500Y-97871859D01*
X188750500Y-97871852D01*
X189049500Y-97871852D01*
X189049501Y-97871858D01*
X189052227Y-97900939D01*
X189052227Y-97900941D01*
X189052228Y-97900944D01*
X189090133Y-98009268D01*
X189095089Y-98023431D01*
X189172152Y-98127848D01*
X189276569Y-98204911D01*
X189316207Y-98218781D01*
X189399059Y-98247773D01*
X189406647Y-98248484D01*
X189428141Y-98250500D01*
X190371858Y-98250499D01*
X190400939Y-98247773D01*
X190523431Y-98204911D01*
X190627848Y-98127848D01*
X190704911Y-98023431D01*
X190726341Y-97962185D01*
X190747773Y-97900941D01*
X190747773Y-97900939D01*
X190748844Y-97889514D01*
X190750500Y-97871859D01*
X190750499Y-96128142D01*
X190747773Y-96099061D01*
X190704911Y-95976569D01*
X190627848Y-95872152D01*
X190627846Y-95872151D01*
X190622330Y-95864676D01*
X190624505Y-95863070D01*
X190597925Y-95814391D01*
X190602909Y-95744699D01*
X190603006Y-95744439D01*
X190636237Y-95656818D01*
X190655278Y-95500000D01*
X190654247Y-95491504D01*
X190636237Y-95343181D01*
X190614992Y-95287163D01*
X190580220Y-95195477D01*
X190490483Y-95065470D01*
X190372240Y-94960717D01*
X190372238Y-94960716D01*
X190372237Y-94960715D01*
X190232365Y-94887303D01*
X190078986Y-94849500D01*
X190078985Y-94849500D01*
X189921015Y-94849500D01*
X189921014Y-94849500D01*
X189767634Y-94887303D01*
X189627762Y-94960715D01*
X189509516Y-95065471D01*
X189419781Y-95195475D01*
X189419780Y-95195476D01*
X189363762Y-95343181D01*
X189344722Y-95499999D01*
X189344722Y-95500000D01*
X189364288Y-95661149D01*
X189352827Y-95730072D01*
X189305923Y-95781858D01*
X189282154Y-95793134D01*
X189276570Y-95795088D01*
X189172152Y-95872152D01*
X189095088Y-95976570D01*
X189052226Y-96099058D01*
X189052226Y-96099060D01*
X189049500Y-96128136D01*
X189049500Y-97871852D01*
X188750500Y-97871852D01*
X188750499Y-96128142D01*
X188747773Y-96099061D01*
X188704911Y-95976569D01*
X188627848Y-95872152D01*
X188627846Y-95872151D01*
X188622330Y-95864676D01*
X188624505Y-95863070D01*
X188597925Y-95814391D01*
X188602909Y-95744699D01*
X188603006Y-95744439D01*
X188636237Y-95656818D01*
X188655278Y-95500000D01*
X188654247Y-95491504D01*
X188636237Y-95343181D01*
X188614992Y-95287164D01*
X188580220Y-95195477D01*
X188490483Y-95065470D01*
X188372240Y-94960717D01*
X188372238Y-94960716D01*
X188372237Y-94960715D01*
X188232365Y-94887303D01*
X188078986Y-94849500D01*
X188078985Y-94849500D01*
X187921015Y-94849500D01*
X187921014Y-94849500D01*
X187767634Y-94887303D01*
X187627762Y-94960715D01*
X187509516Y-95065471D01*
X187419781Y-95195475D01*
X187419778Y-95195481D01*
X187393167Y-95265646D01*
X187350989Y-95321349D01*
X187285391Y-95345405D01*
X187217201Y-95330177D01*
X187189545Y-95309355D01*
X185497572Y-93617382D01*
X185497571Y-93617382D01*
X185452345Y-93568956D01*
X185431461Y-93556256D01*
X185414526Y-93545957D01*
X185409275Y-93542383D01*
X185374006Y-93515638D01*
X185374007Y-93515638D01*
X185357307Y-93509052D01*
X185338381Y-93499652D01*
X185323045Y-93490327D01*
X185280423Y-93478384D01*
X185274405Y-93476360D01*
X185233230Y-93460124D01*
X185233221Y-93460122D01*
X185215381Y-93458288D01*
X185194616Y-93454342D01*
X185177334Y-93449500D01*
X185177330Y-93449500D01*
X185133071Y-93449500D01*
X185126729Y-93449175D01*
X185099092Y-93446333D01*
X185082694Y-93444648D01*
X185082689Y-93444648D01*
X185065009Y-93447697D01*
X185043941Y-93449500D01*
X179279386Y-93449500D01*
X179212347Y-93429815D01*
X179191705Y-93413181D01*
X177586819Y-91808294D01*
X177553334Y-91746971D01*
X177550500Y-91720613D01*
X177550500Y-89009414D01*
X177550572Y-89007295D01*
X177552763Y-88943174D01*
X177546974Y-88919421D01*
X177542281Y-88900163D01*
X177541094Y-88893918D01*
X177535070Y-88850081D01*
X177527920Y-88833620D01*
X177521181Y-88813583D01*
X177516933Y-88796148D01*
X177495234Y-88757556D01*
X177492414Y-88751878D01*
X177487385Y-88740301D01*
X177474780Y-88711280D01*
X177474780Y-88711279D01*
X177463458Y-88697363D01*
X177451557Y-88679876D01*
X177442768Y-88664244D01*
X177442767Y-88664243D01*
X177442766Y-88664241D01*
X177411456Y-88632931D01*
X177407210Y-88628225D01*
X177399812Y-88619132D01*
X177379278Y-88593892D01*
X177364612Y-88583539D01*
X177348445Y-88569920D01*
X175691819Y-86913294D01*
X175658334Y-86851971D01*
X175655500Y-86825613D01*
X175655500Y-85341294D01*
X175663319Y-85297958D01*
X175669091Y-85282483D01*
X175675500Y-85222873D01*
X175675499Y-84779385D01*
X175695183Y-84712347D01*
X175711813Y-84691710D01*
X176307618Y-84095906D01*
X176356044Y-84050680D01*
X176379049Y-84012847D01*
X176382606Y-84007622D01*
X176409361Y-83972342D01*
X176415943Y-83955648D01*
X176425344Y-83936719D01*
X176434672Y-83921382D01*
X176446619Y-83878739D01*
X176448632Y-83872753D01*
X176464876Y-83831564D01*
X176466711Y-83813716D01*
X176470658Y-83792944D01*
X176475500Y-83775665D01*
X176475500Y-83731404D01*
X176475825Y-83725060D01*
X176479647Y-83687882D01*
X176480352Y-83681028D01*
X176477303Y-83663343D01*
X176475500Y-83642275D01*
X176475500Y-82434396D01*
X176476205Y-82413761D01*
X176477762Y-82368174D01*
X176475084Y-82357184D01*
X176467283Y-82325174D01*
X176466096Y-82318931D01*
X176465525Y-82314778D01*
X176460070Y-82275080D01*
X176452921Y-82258622D01*
X176446180Y-82238578D01*
X176441933Y-82221148D01*
X176431680Y-82202913D01*
X176420239Y-82182564D01*
X176417414Y-82176876D01*
X176408706Y-82156829D01*
X176399780Y-82136280D01*
X176388454Y-82122359D01*
X176376556Y-82104877D01*
X176371271Y-82095477D01*
X176367765Y-82089241D01*
X176336472Y-82057948D01*
X176332215Y-82053231D01*
X176304278Y-82018892D01*
X176289617Y-82008543D01*
X176273444Y-81994920D01*
X176186818Y-81908293D01*
X176153334Y-81846969D01*
X176150500Y-81820612D01*
X176150500Y-81766930D01*
X176170185Y-81699891D01*
X176222989Y-81654136D01*
X176292147Y-81644192D01*
X176355703Y-81673217D01*
X176385900Y-81712469D01*
X176390173Y-81721209D01*
X176394742Y-81727609D01*
X176399582Y-81733827D01*
X176439971Y-81771009D01*
X177515481Y-82846518D01*
X177548966Y-82907841D01*
X177550896Y-82949143D01*
X177544722Y-82999997D01*
X177544722Y-83000000D01*
X177563762Y-83156818D01*
X177609288Y-83276858D01*
X177619780Y-83304523D01*
X177709517Y-83434530D01*
X177827760Y-83539283D01*
X177827762Y-83539284D01*
X177967634Y-83612696D01*
X178121014Y-83650500D01*
X178121015Y-83650500D01*
X178278985Y-83650500D01*
X178432365Y-83612696D01*
X178432364Y-83612695D01*
X178572240Y-83539283D01*
X178690483Y-83434530D01*
X178780220Y-83304523D01*
X178836237Y-83156818D01*
X178855278Y-83000000D01*
X178851132Y-82965850D01*
X178836237Y-82843181D01*
X178814992Y-82787163D01*
X178780220Y-82695477D01*
X178690483Y-82565470D01*
X178664910Y-82542814D01*
X178627785Y-82483627D01*
X178628552Y-82413761D01*
X178664910Y-82357185D01*
X178690483Y-82334530D01*
X178780220Y-82204523D01*
X178836237Y-82056818D01*
X178855278Y-81900000D01*
X178836237Y-81743182D01*
X178780220Y-81595477D01*
X178690483Y-81465470D01*
X178572240Y-81360717D01*
X178572238Y-81360716D01*
X178572237Y-81360715D01*
X178432365Y-81287303D01*
X178278986Y-81249500D01*
X178278985Y-81249500D01*
X178121015Y-81249500D01*
X178121014Y-81249500D01*
X177967634Y-81287303D01*
X177884937Y-81330707D01*
X177816429Y-81344433D01*
X177751375Y-81318940D01*
X177739630Y-81308592D01*
X177711819Y-81280781D01*
X177678334Y-81219458D01*
X177675500Y-81193100D01*
X177675500Y-80416976D01*
X177695185Y-80349937D01*
X177747989Y-80304182D01*
X177817147Y-80294238D01*
X177857126Y-80307180D01*
X177867635Y-80312696D01*
X177969888Y-80337898D01*
X178021014Y-80350500D01*
X178021015Y-80350500D01*
X178178985Y-80350500D01*
X178332365Y-80312696D01*
X178367533Y-80294238D01*
X178472240Y-80239283D01*
X178590483Y-80134530D01*
X178680220Y-80004523D01*
X178736237Y-79856818D01*
X178755278Y-79700000D01*
X178736237Y-79543182D01*
X178683558Y-79404278D01*
X178675500Y-79360307D01*
X178675500Y-74551803D01*
X178678139Y-74526358D01*
X178678177Y-74526175D01*
X178680367Y-74515732D01*
X178678124Y-74497740D01*
X178675977Y-74480507D01*
X178675500Y-74472831D01*
X178675500Y-74468889D01*
X178675498Y-74468876D01*
X178671657Y-74445859D01*
X178670982Y-74440446D01*
X178664866Y-74391374D01*
X178664864Y-74391370D01*
X178662622Y-74383840D01*
X178660065Y-74376392D01*
X178660065Y-74376390D01*
X178633944Y-74328122D01*
X178609826Y-74278789D01*
X178609824Y-74278787D01*
X178609824Y-74278786D01*
X178605276Y-74272416D01*
X178600420Y-74266176D01*
X178600419Y-74266174D01*
X178560029Y-74228992D01*
X176852149Y-72521111D01*
X176836022Y-72501252D01*
X176830086Y-72492167D01*
X176830083Y-72492163D01*
X176802074Y-72470363D01*
X176796310Y-72465272D01*
X176793515Y-72462477D01*
X176774505Y-72448906D01*
X176731189Y-72415190D01*
X176724274Y-72411448D01*
X176717200Y-72407990D01*
X176664596Y-72392329D01*
X176612658Y-72374499D01*
X176604923Y-72373208D01*
X176597085Y-72372231D01*
X176542244Y-72374500D01*
X169647673Y-72374500D01*
X169600222Y-72365062D01*
X169597738Y-72364033D01*
X169524676Y-72349500D01*
X169524674Y-72349500D01*
X168175326Y-72349500D01*
X168175323Y-72349500D01*
X168102264Y-72364032D01*
X168102260Y-72364033D01*
X168019399Y-72419399D01*
X167964033Y-72502260D01*
X167964032Y-72502264D01*
X167949500Y-72575321D01*
X167949500Y-72924673D01*
X167959671Y-72975810D01*
X167959671Y-73024190D01*
X167949500Y-73075326D01*
X167949500Y-73424673D01*
X167959671Y-73475809D01*
X167959671Y-73524188D01*
X167949500Y-73575325D01*
X167949500Y-73924673D01*
X167959671Y-73975810D01*
X167959671Y-74024190D01*
X167949500Y-74075326D01*
X167949500Y-74424673D01*
X167959671Y-74475810D01*
X167959671Y-74524190D01*
X167949500Y-74575326D01*
X167949500Y-74924676D01*
X167959671Y-74975807D01*
X167959671Y-75024190D01*
X167949500Y-75075321D01*
X167949500Y-75424673D01*
X167959671Y-75475809D01*
X167959671Y-75524188D01*
X167949500Y-75575325D01*
X167949500Y-75924678D01*
X167964032Y-75997735D01*
X167964033Y-75997739D01*
X167964034Y-75997740D01*
X168019399Y-76080601D01*
X168102260Y-76135966D01*
X168112415Y-76142751D01*
X168111591Y-76143983D01*
X168155391Y-76179281D01*
X168177455Y-76245576D01*
X168160175Y-76313275D01*
X168109037Y-76360885D01*
X168102515Y-76363863D01*
X168009244Y-76426184D01*
X168007254Y-76423206D01*
X167964293Y-76446666D01*
X167937935Y-76449500D01*
X167917061Y-76449500D01*
X167911940Y-76449288D01*
X167870656Y-76445868D01*
X167830493Y-76456037D01*
X167825489Y-76457086D01*
X167806689Y-76460224D01*
X167784616Y-76463908D01*
X167782799Y-76464532D01*
X167759050Y-76473797D01*
X167757258Y-76474584D01*
X167722574Y-76497243D01*
X167718173Y-76499865D01*
X167681741Y-76519582D01*
X167680200Y-76520781D01*
X167660747Y-76537258D01*
X167659331Y-76538562D01*
X167633889Y-76571249D01*
X167630578Y-76575159D01*
X167602516Y-76605643D01*
X167601460Y-76607258D01*
X167588409Y-76629160D01*
X167587483Y-76630872D01*
X167574037Y-76670038D01*
X167572175Y-76674811D01*
X167555527Y-76712766D01*
X167555041Y-76714683D01*
X167549821Y-76739584D01*
X167549500Y-76741512D01*
X167549500Y-76782937D01*
X167549288Y-76788058D01*
X167545868Y-76829345D01*
X167546029Y-76831303D01*
X167549500Y-76859143D01*
X167549500Y-77085255D01*
X167529815Y-77152294D01*
X167513181Y-77172936D01*
X167061955Y-77624161D01*
X167042106Y-77640282D01*
X167034331Y-77645362D01*
X167014143Y-77671298D01*
X167009067Y-77677048D01*
X167006634Y-77679481D01*
X167006623Y-77679494D01*
X166993954Y-77697238D01*
X166962483Y-77737672D01*
X166958975Y-77744153D01*
X166955760Y-77750732D01*
X166941138Y-77799845D01*
X166924498Y-77848316D01*
X166923294Y-77855533D01*
X166922382Y-77862846D01*
X166924500Y-77914030D01*
X166924500Y-81911666D01*
X166904815Y-81978705D01*
X166852011Y-82024460D01*
X166782853Y-82034404D01*
X166730060Y-82013716D01*
X166660165Y-81965471D01*
X166623529Y-81940183D01*
X166623529Y-81940182D01*
X166464475Y-81879861D01*
X166464470Y-81879860D01*
X166337974Y-81864501D01*
X166337972Y-81864501D01*
X166253228Y-81864501D01*
X166253226Y-81864501D01*
X166126729Y-81879860D01*
X166126724Y-81879861D01*
X165967670Y-81940183D01*
X165967669Y-81940184D01*
X165827671Y-82036817D01*
X165714866Y-82164149D01*
X165635809Y-82314778D01*
X165595101Y-82479944D01*
X165595101Y-82650055D01*
X165635809Y-82815221D01*
X165635810Y-82815224D01*
X165635811Y-82815225D01*
X165714866Y-82965851D01*
X165827671Y-83093182D01*
X165967671Y-83189817D01*
X166054449Y-83222727D01*
X166126724Y-83250138D01*
X166126726Y-83250138D01*
X166126728Y-83250139D01*
X166253228Y-83265499D01*
X166255081Y-83265724D01*
X166319259Y-83293346D01*
X166358315Y-83351280D01*
X166359850Y-83421133D01*
X166327815Y-83476501D01*
X163461955Y-86342361D01*
X163442106Y-86358482D01*
X163434331Y-86363562D01*
X163414143Y-86389498D01*
X163409067Y-86395248D01*
X163406634Y-86397681D01*
X163406623Y-86397694D01*
X163393954Y-86415438D01*
X163362483Y-86455872D01*
X163358975Y-86462353D01*
X163355760Y-86468932D01*
X163341138Y-86518045D01*
X163324498Y-86566516D01*
X163323294Y-86573733D01*
X163322382Y-86581046D01*
X163324500Y-86632230D01*
X163324500Y-91343988D01*
X163321861Y-91369432D01*
X163319957Y-91378511D01*
X163319957Y-91378517D01*
X162000500Y-91378517D01*
X162000500Y-74674455D01*
X165595101Y-74674455D01*
X165635809Y-74839621D01*
X165635810Y-74839624D01*
X165635811Y-74839625D01*
X165714866Y-74990251D01*
X165827671Y-75117582D01*
X165967671Y-75214217D01*
X166054449Y-75247127D01*
X166126724Y-75274538D01*
X166126726Y-75274538D01*
X166126728Y-75274539D01*
X166161730Y-75278789D01*
X166253226Y-75289899D01*
X166253228Y-75289899D01*
X166337974Y-75289899D01*
X166401222Y-75282219D01*
X166464472Y-75274539D01*
X166623529Y-75214217D01*
X166763529Y-75117582D01*
X166876334Y-74990251D01*
X166955389Y-74839625D01*
X166996099Y-74674456D01*
X166996099Y-74504344D01*
X166987360Y-74468889D01*
X166955390Y-74339178D01*
X166955389Y-74339177D01*
X166955389Y-74339175D01*
X166876334Y-74188549D01*
X166763529Y-74061218D01*
X166623529Y-73964583D01*
X166623528Y-73964583D01*
X166464475Y-73904261D01*
X166464470Y-73904260D01*
X166337974Y-73888901D01*
X166337972Y-73888901D01*
X166253228Y-73888901D01*
X166253226Y-73888901D01*
X166126729Y-73904260D01*
X166126724Y-73904261D01*
X165967670Y-73964583D01*
X165967669Y-73964584D01*
X165827671Y-74061217D01*
X165714866Y-74188549D01*
X165635809Y-74339178D01*
X165595101Y-74504344D01*
X165595101Y-74674455D01*
X162000500Y-74674455D01*
X162000500Y-70881517D01*
X179999500Y-70881517D01*
X180010292Y-70949657D01*
X180014354Y-70975304D01*
X180071950Y-71088342D01*
X180071952Y-71088344D01*
X180071954Y-71088347D01*
X180161652Y-71178045D01*
X180161654Y-71178046D01*
X180161658Y-71178050D01*
X180274694Y-71235645D01*
X180274698Y-71235647D01*
X180368475Y-71250499D01*
X180368481Y-71250500D01*
X181131518Y-71250499D01*
X181225304Y-71235646D01*
X181338342Y-71178050D01*
X181428050Y-71088342D01*
X181485646Y-70975304D01*
X181485646Y-70975302D01*
X181485647Y-70975301D01*
X181500499Y-70881524D01*
X181500500Y-70881519D01*
X181500500Y-70881517D01*
X188349500Y-70881517D01*
X188360292Y-70949657D01*
X188364354Y-70975304D01*
X188421950Y-71088342D01*
X188421952Y-71088344D01*
X188421954Y-71088347D01*
X188511652Y-71178045D01*
X188511654Y-71178046D01*
X188511658Y-71178050D01*
X188624694Y-71235645D01*
X188624698Y-71235647D01*
X188718475Y-71250499D01*
X188718481Y-71250500D01*
X189481518Y-71250499D01*
X189575304Y-71235646D01*
X189688342Y-71178050D01*
X189778050Y-71088342D01*
X189835646Y-70975304D01*
X189835646Y-70975302D01*
X189835647Y-70975301D01*
X189850499Y-70881524D01*
X189850500Y-70881519D01*
X189850499Y-69118482D01*
X189835646Y-69024696D01*
X189778050Y-68911658D01*
X189778046Y-68911654D01*
X189778045Y-68911652D01*
X189688347Y-68821954D01*
X189688344Y-68821952D01*
X189688342Y-68821950D01*
X189611517Y-68782805D01*
X189575301Y-68764352D01*
X189481524Y-68749500D01*
X188718482Y-68749500D01*
X188637519Y-68762323D01*
X188624696Y-68764354D01*
X188511658Y-68821950D01*
X188511657Y-68821951D01*
X188511652Y-68821954D01*
X188421954Y-68911652D01*
X188421951Y-68911657D01*
X188364352Y-69024698D01*
X188349500Y-69118475D01*
X188349500Y-70881517D01*
X181500500Y-70881517D01*
X181500499Y-69118482D01*
X181485646Y-69024696D01*
X181428050Y-68911658D01*
X181428046Y-68911654D01*
X181428045Y-68911652D01*
X181338347Y-68821954D01*
X181338344Y-68821952D01*
X181338342Y-68821950D01*
X181261517Y-68782805D01*
X181225301Y-68764352D01*
X181131524Y-68749500D01*
X180368482Y-68749500D01*
X180287519Y-68762323D01*
X180274696Y-68764354D01*
X180161658Y-68821950D01*
X180161657Y-68821951D01*
X180161652Y-68821954D01*
X180071954Y-68911652D01*
X180071951Y-68911657D01*
X180014352Y-69024698D01*
X179999500Y-69118475D01*
X179999500Y-70881517D01*
X162000500Y-70881517D01*
X162000500Y-66501876D01*
X162000613Y-66498132D01*
X162006482Y-66401100D01*
X162020082Y-66193596D01*
X162020962Y-66186501D01*
X162045836Y-66050771D01*
X162078944Y-65884326D01*
X162080547Y-65878029D01*
X162123922Y-65738834D01*
X162176160Y-65584946D01*
X162178311Y-65579481D01*
X162239520Y-65443481D01*
X162310211Y-65300136D01*
X162312733Y-65295530D01*
X162390083Y-65167577D01*
X162391550Y-65165270D01*
X162478995Y-65034400D01*
X162481718Y-65030639D01*
X162574343Y-64912412D01*
X162576487Y-64909827D01*
X162679905Y-64791901D01*
X162682629Y-64788992D01*
X162788992Y-64682629D01*
X162791901Y-64679905D01*
X162909827Y-64576487D01*
X162912412Y-64574343D01*
X163030639Y-64481718D01*
X163034400Y-64478995D01*
X163165270Y-64391550D01*
X163167577Y-64390083D01*
X163295530Y-64312733D01*
X163300136Y-64310211D01*
X163443481Y-64239520D01*
X163579481Y-64178311D01*
X163584946Y-64176160D01*
X163738812Y-64123929D01*
X163878029Y-64080547D01*
X163884326Y-64078944D01*
X164050771Y-64045836D01*
X164186501Y-64020962D01*
X164193596Y-64020082D01*
X164401027Y-64006486D01*
X164498131Y-64000613D01*
X164501876Y-64000500D01*
X191498123Y-64000500D01*
X191501867Y-64000613D01*
G37*
G04 #@! TD.AperFunction*
G04 #@! TD*
M02*
