G04 #@! TF.GenerationSoftware,KiCad,Pcbnew,7.0.7-7.0.7~ubuntu20.04.1*
G04 #@! TF.CreationDate,2024-03-24T22:46:20+02:00*
G04 #@! TF.ProjectId,rtl-module-breakout,72746c2d-6d6f-4647-956c-652d62726561,rev?*
G04 #@! TF.SameCoordinates,Original*
G04 #@! TF.FileFunction,Legend,Top*
G04 #@! TF.FilePolarity,Positive*
%FSLAX46Y46*%
G04 Gerber Fmt 4.6, Leading zero omitted, Abs format (unit mm)*
G04 Created by KiCad (PCBNEW 7.0.7-7.0.7~ubuntu20.04.1) date 2024-03-24 22:46:20*
%MOMM*%
%LPD*%
G01*
G04 APERTURE LIST*
%ADD10C,0.150000*%
%ADD11C,0.120000*%
%ADD12C,0.100000*%
G04 APERTURE END LIST*
D10*
X168998684Y-64912866D02*
X169098684Y-64946200D01*
X169098684Y-64946200D02*
X169132017Y-64979533D01*
X169132017Y-64979533D02*
X169165350Y-65046200D01*
X169165350Y-65046200D02*
X169165350Y-65146200D01*
X169165350Y-65146200D02*
X169132017Y-65212866D01*
X169132017Y-65212866D02*
X169098684Y-65246200D01*
X169098684Y-65246200D02*
X169032017Y-65279533D01*
X169032017Y-65279533D02*
X168765350Y-65279533D01*
X168765350Y-65279533D02*
X168765350Y-64579533D01*
X168765350Y-64579533D02*
X168998684Y-64579533D01*
X168998684Y-64579533D02*
X169065350Y-64612866D01*
X169065350Y-64612866D02*
X169098684Y-64646200D01*
X169098684Y-64646200D02*
X169132017Y-64712866D01*
X169132017Y-64712866D02*
X169132017Y-64779533D01*
X169132017Y-64779533D02*
X169098684Y-64846200D01*
X169098684Y-64846200D02*
X169065350Y-64879533D01*
X169065350Y-64879533D02*
X168998684Y-64912866D01*
X168998684Y-64912866D02*
X168765350Y-64912866D01*
X169798684Y-65279533D02*
X169465350Y-65279533D01*
X169465350Y-65279533D02*
X169465350Y-64579533D01*
X170032017Y-65012866D02*
X170565351Y-65012866D01*
X171298684Y-65279533D02*
X171065351Y-64946200D01*
X170898684Y-65279533D02*
X170898684Y-64579533D01*
X170898684Y-64579533D02*
X171165351Y-64579533D01*
X171165351Y-64579533D02*
X171232018Y-64612866D01*
X171232018Y-64612866D02*
X171265351Y-64646200D01*
X171265351Y-64646200D02*
X171298684Y-64712866D01*
X171298684Y-64712866D02*
X171298684Y-64812866D01*
X171298684Y-64812866D02*
X171265351Y-64879533D01*
X171265351Y-64879533D02*
X171232018Y-64912866D01*
X171232018Y-64912866D02*
X171165351Y-64946200D01*
X171165351Y-64946200D02*
X170898684Y-64946200D01*
X171698684Y-64879533D02*
X171632018Y-64846200D01*
X171632018Y-64846200D02*
X171598684Y-64812866D01*
X171598684Y-64812866D02*
X171565351Y-64746200D01*
X171565351Y-64746200D02*
X171565351Y-64712866D01*
X171565351Y-64712866D02*
X171598684Y-64646200D01*
X171598684Y-64646200D02*
X171632018Y-64612866D01*
X171632018Y-64612866D02*
X171698684Y-64579533D01*
X171698684Y-64579533D02*
X171832018Y-64579533D01*
X171832018Y-64579533D02*
X171898684Y-64612866D01*
X171898684Y-64612866D02*
X171932018Y-64646200D01*
X171932018Y-64646200D02*
X171965351Y-64712866D01*
X171965351Y-64712866D02*
X171965351Y-64746200D01*
X171965351Y-64746200D02*
X171932018Y-64812866D01*
X171932018Y-64812866D02*
X171898684Y-64846200D01*
X171898684Y-64846200D02*
X171832018Y-64879533D01*
X171832018Y-64879533D02*
X171698684Y-64879533D01*
X171698684Y-64879533D02*
X171632018Y-64912866D01*
X171632018Y-64912866D02*
X171598684Y-64946200D01*
X171598684Y-64946200D02*
X171565351Y-65012866D01*
X171565351Y-65012866D02*
X171565351Y-65146200D01*
X171565351Y-65146200D02*
X171598684Y-65212866D01*
X171598684Y-65212866D02*
X171632018Y-65246200D01*
X171632018Y-65246200D02*
X171698684Y-65279533D01*
X171698684Y-65279533D02*
X171832018Y-65279533D01*
X171832018Y-65279533D02*
X171898684Y-65246200D01*
X171898684Y-65246200D02*
X171932018Y-65212866D01*
X171932018Y-65212866D02*
X171965351Y-65146200D01*
X171965351Y-65146200D02*
X171965351Y-65012866D01*
X171965351Y-65012866D02*
X171932018Y-64946200D01*
X171932018Y-64946200D02*
X171898684Y-64912866D01*
X171898684Y-64912866D02*
X171832018Y-64879533D01*
X172365351Y-64879533D02*
X172298685Y-64846200D01*
X172298685Y-64846200D02*
X172265351Y-64812866D01*
X172265351Y-64812866D02*
X172232018Y-64746200D01*
X172232018Y-64746200D02*
X172232018Y-64712866D01*
X172232018Y-64712866D02*
X172265351Y-64646200D01*
X172265351Y-64646200D02*
X172298685Y-64612866D01*
X172298685Y-64612866D02*
X172365351Y-64579533D01*
X172365351Y-64579533D02*
X172498685Y-64579533D01*
X172498685Y-64579533D02*
X172565351Y-64612866D01*
X172565351Y-64612866D02*
X172598685Y-64646200D01*
X172598685Y-64646200D02*
X172632018Y-64712866D01*
X172632018Y-64712866D02*
X172632018Y-64746200D01*
X172632018Y-64746200D02*
X172598685Y-64812866D01*
X172598685Y-64812866D02*
X172565351Y-64846200D01*
X172565351Y-64846200D02*
X172498685Y-64879533D01*
X172498685Y-64879533D02*
X172365351Y-64879533D01*
X172365351Y-64879533D02*
X172298685Y-64912866D01*
X172298685Y-64912866D02*
X172265351Y-64946200D01*
X172265351Y-64946200D02*
X172232018Y-65012866D01*
X172232018Y-65012866D02*
X172232018Y-65146200D01*
X172232018Y-65146200D02*
X172265351Y-65212866D01*
X172265351Y-65212866D02*
X172298685Y-65246200D01*
X172298685Y-65246200D02*
X172365351Y-65279533D01*
X172365351Y-65279533D02*
X172498685Y-65279533D01*
X172498685Y-65279533D02*
X172565351Y-65246200D01*
X172565351Y-65246200D02*
X172598685Y-65212866D01*
X172598685Y-65212866D02*
X172632018Y-65146200D01*
X172632018Y-65146200D02*
X172632018Y-65012866D01*
X172632018Y-65012866D02*
X172598685Y-64946200D01*
X172598685Y-64946200D02*
X172565351Y-64912866D01*
X172565351Y-64912866D02*
X172498685Y-64879533D01*
X173298685Y-65279533D02*
X172898685Y-65279533D01*
X173098685Y-65279533D02*
X173098685Y-64579533D01*
X173098685Y-64579533D02*
X173032018Y-64679533D01*
X173032018Y-64679533D02*
X172965352Y-64746200D01*
X172965352Y-64746200D02*
X172898685Y-64779533D01*
X173565352Y-64646200D02*
X173598685Y-64612866D01*
X173598685Y-64612866D02*
X173665352Y-64579533D01*
X173665352Y-64579533D02*
X173832019Y-64579533D01*
X173832019Y-64579533D02*
X173898685Y-64612866D01*
X173898685Y-64612866D02*
X173932019Y-64646200D01*
X173932019Y-64646200D02*
X173965352Y-64712866D01*
X173965352Y-64712866D02*
X173965352Y-64779533D01*
X173965352Y-64779533D02*
X173932019Y-64879533D01*
X173932019Y-64879533D02*
X173532019Y-65279533D01*
X173532019Y-65279533D02*
X173965352Y-65279533D01*
X174232019Y-65079533D02*
X174565352Y-65079533D01*
X174165352Y-65279533D02*
X174398686Y-64579533D01*
X174398686Y-64579533D02*
X174632019Y-65279533D01*
X175098686Y-64912866D02*
X174865352Y-64912866D01*
X174865352Y-65279533D02*
X174865352Y-64579533D01*
X174865352Y-64579533D02*
X175198686Y-64579533D01*
X175832019Y-65279533D02*
X175432019Y-65279533D01*
X175632019Y-65279533D02*
X175632019Y-64579533D01*
X175632019Y-64579533D02*
X175565352Y-64679533D01*
X175565352Y-64679533D02*
X175498686Y-64746200D01*
X175498686Y-64746200D02*
X175432019Y-64779533D01*
X176665352Y-65279533D02*
X176665352Y-64579533D01*
X176665352Y-64846200D02*
X176732019Y-64812866D01*
X176732019Y-64812866D02*
X176865352Y-64812866D01*
X176865352Y-64812866D02*
X176932019Y-64846200D01*
X176932019Y-64846200D02*
X176965352Y-64879533D01*
X176965352Y-64879533D02*
X176998686Y-64946200D01*
X176998686Y-64946200D02*
X176998686Y-65146200D01*
X176998686Y-65146200D02*
X176965352Y-65212866D01*
X176965352Y-65212866D02*
X176932019Y-65246200D01*
X176932019Y-65246200D02*
X176865352Y-65279533D01*
X176865352Y-65279533D02*
X176732019Y-65279533D01*
X176732019Y-65279533D02*
X176665352Y-65246200D01*
X177298685Y-65279533D02*
X177298685Y-64812866D01*
X177298685Y-64946200D02*
X177332019Y-64879533D01*
X177332019Y-64879533D02*
X177365352Y-64846200D01*
X177365352Y-64846200D02*
X177432019Y-64812866D01*
X177432019Y-64812866D02*
X177498685Y-64812866D01*
X177998685Y-65246200D02*
X177932018Y-65279533D01*
X177932018Y-65279533D02*
X177798685Y-65279533D01*
X177798685Y-65279533D02*
X177732018Y-65246200D01*
X177732018Y-65246200D02*
X177698685Y-65179533D01*
X177698685Y-65179533D02*
X177698685Y-64912866D01*
X177698685Y-64912866D02*
X177732018Y-64846200D01*
X177732018Y-64846200D02*
X177798685Y-64812866D01*
X177798685Y-64812866D02*
X177932018Y-64812866D01*
X177932018Y-64812866D02*
X177998685Y-64846200D01*
X177998685Y-64846200D02*
X178032018Y-64912866D01*
X178032018Y-64912866D02*
X178032018Y-64979533D01*
X178032018Y-64979533D02*
X177698685Y-65046200D01*
X178632018Y-65279533D02*
X178632018Y-64912866D01*
X178632018Y-64912866D02*
X178598685Y-64846200D01*
X178598685Y-64846200D02*
X178532018Y-64812866D01*
X178532018Y-64812866D02*
X178398685Y-64812866D01*
X178398685Y-64812866D02*
X178332018Y-64846200D01*
X178632018Y-65246200D02*
X178565352Y-65279533D01*
X178565352Y-65279533D02*
X178398685Y-65279533D01*
X178398685Y-65279533D02*
X178332018Y-65246200D01*
X178332018Y-65246200D02*
X178298685Y-65179533D01*
X178298685Y-65179533D02*
X178298685Y-65112866D01*
X178298685Y-65112866D02*
X178332018Y-65046200D01*
X178332018Y-65046200D02*
X178398685Y-65012866D01*
X178398685Y-65012866D02*
X178565352Y-65012866D01*
X178565352Y-65012866D02*
X178632018Y-64979533D01*
X178965351Y-65279533D02*
X178965351Y-64579533D01*
X179032018Y-65012866D02*
X179232018Y-65279533D01*
X179232018Y-64812866D02*
X178965351Y-65079533D01*
X179632018Y-65279533D02*
X179565352Y-65246200D01*
X179565352Y-65246200D02*
X179532018Y-65212866D01*
X179532018Y-65212866D02*
X179498685Y-65146200D01*
X179498685Y-65146200D02*
X179498685Y-64946200D01*
X179498685Y-64946200D02*
X179532018Y-64879533D01*
X179532018Y-64879533D02*
X179565352Y-64846200D01*
X179565352Y-64846200D02*
X179632018Y-64812866D01*
X179632018Y-64812866D02*
X179732018Y-64812866D01*
X179732018Y-64812866D02*
X179798685Y-64846200D01*
X179798685Y-64846200D02*
X179832018Y-64879533D01*
X179832018Y-64879533D02*
X179865352Y-64946200D01*
X179865352Y-64946200D02*
X179865352Y-65146200D01*
X179865352Y-65146200D02*
X179832018Y-65212866D01*
X179832018Y-65212866D02*
X179798685Y-65246200D01*
X179798685Y-65246200D02*
X179732018Y-65279533D01*
X179732018Y-65279533D02*
X179632018Y-65279533D01*
X180465351Y-64812866D02*
X180465351Y-65279533D01*
X180165351Y-64812866D02*
X180165351Y-65179533D01*
X180165351Y-65179533D02*
X180198685Y-65246200D01*
X180198685Y-65246200D02*
X180265351Y-65279533D01*
X180265351Y-65279533D02*
X180365351Y-65279533D01*
X180365351Y-65279533D02*
X180432018Y-65246200D01*
X180432018Y-65246200D02*
X180465351Y-65212866D01*
X180698684Y-64812866D02*
X180965351Y-64812866D01*
X180798684Y-64579533D02*
X180798684Y-65179533D01*
X180798684Y-65179533D02*
X180832018Y-65246200D01*
X180832018Y-65246200D02*
X180898684Y-65279533D01*
X180898684Y-65279533D02*
X180965351Y-65279533D01*
X181732017Y-65279533D02*
X181732017Y-64812866D01*
X181732017Y-64946200D02*
X181765351Y-64879533D01*
X181765351Y-64879533D02*
X181798684Y-64846200D01*
X181798684Y-64846200D02*
X181865351Y-64812866D01*
X181865351Y-64812866D02*
X181932017Y-64812866D01*
X182298684Y-64579533D02*
X182365350Y-64579533D01*
X182365350Y-64579533D02*
X182432017Y-64612866D01*
X182432017Y-64612866D02*
X182465350Y-64646200D01*
X182465350Y-64646200D02*
X182498684Y-64712866D01*
X182498684Y-64712866D02*
X182532017Y-64846200D01*
X182532017Y-64846200D02*
X182532017Y-65012866D01*
X182532017Y-65012866D02*
X182498684Y-65146200D01*
X182498684Y-65146200D02*
X182465350Y-65212866D01*
X182465350Y-65212866D02*
X182432017Y-65246200D01*
X182432017Y-65246200D02*
X182365350Y-65279533D01*
X182365350Y-65279533D02*
X182298684Y-65279533D01*
X182298684Y-65279533D02*
X182232017Y-65246200D01*
X182232017Y-65246200D02*
X182198684Y-65212866D01*
X182198684Y-65212866D02*
X182165350Y-65146200D01*
X182165350Y-65146200D02*
X182132017Y-65012866D01*
X182132017Y-65012866D02*
X182132017Y-64846200D01*
X182132017Y-64846200D02*
X182165350Y-64712866D01*
X182165350Y-64712866D02*
X182198684Y-64646200D01*
X182198684Y-64646200D02*
X182232017Y-64612866D01*
X182232017Y-64612866D02*
X182298684Y-64579533D01*
X169098684Y-65706533D02*
X168765350Y-65706533D01*
X168765350Y-65706533D02*
X168732017Y-66039866D01*
X168732017Y-66039866D02*
X168765350Y-66006533D01*
X168765350Y-66006533D02*
X168832017Y-65973200D01*
X168832017Y-65973200D02*
X168998684Y-65973200D01*
X168998684Y-65973200D02*
X169065350Y-66006533D01*
X169065350Y-66006533D02*
X169098684Y-66039866D01*
X169098684Y-66039866D02*
X169132017Y-66106533D01*
X169132017Y-66106533D02*
X169132017Y-66273200D01*
X169132017Y-66273200D02*
X169098684Y-66339866D01*
X169098684Y-66339866D02*
X169065350Y-66373200D01*
X169065350Y-66373200D02*
X168998684Y-66406533D01*
X168998684Y-66406533D02*
X168832017Y-66406533D01*
X168832017Y-66406533D02*
X168765350Y-66373200D01*
X168765350Y-66373200D02*
X168732017Y-66339866D01*
X169432017Y-66339866D02*
X169465351Y-66373200D01*
X169465351Y-66373200D02*
X169432017Y-66406533D01*
X169432017Y-66406533D02*
X169398684Y-66373200D01*
X169398684Y-66373200D02*
X169432017Y-66339866D01*
X169432017Y-66339866D02*
X169432017Y-66406533D01*
X169765350Y-66339866D02*
X169798684Y-66373200D01*
X169798684Y-66373200D02*
X169765350Y-66406533D01*
X169765350Y-66406533D02*
X169732017Y-66373200D01*
X169732017Y-66373200D02*
X169765350Y-66339866D01*
X169765350Y-66339866D02*
X169765350Y-66406533D01*
X170465350Y-66406533D02*
X170065350Y-66406533D01*
X170265350Y-66406533D02*
X170265350Y-65706533D01*
X170265350Y-65706533D02*
X170198683Y-65806533D01*
X170198683Y-65806533D02*
X170132017Y-65873200D01*
X170132017Y-65873200D02*
X170065350Y-65906533D01*
X170865350Y-66006533D02*
X170798684Y-65973200D01*
X170798684Y-65973200D02*
X170765350Y-65939866D01*
X170765350Y-65939866D02*
X170732017Y-65873200D01*
X170732017Y-65873200D02*
X170732017Y-65839866D01*
X170732017Y-65839866D02*
X170765350Y-65773200D01*
X170765350Y-65773200D02*
X170798684Y-65739866D01*
X170798684Y-65739866D02*
X170865350Y-65706533D01*
X170865350Y-65706533D02*
X170998684Y-65706533D01*
X170998684Y-65706533D02*
X171065350Y-65739866D01*
X171065350Y-65739866D02*
X171098684Y-65773200D01*
X171098684Y-65773200D02*
X171132017Y-65839866D01*
X171132017Y-65839866D02*
X171132017Y-65873200D01*
X171132017Y-65873200D02*
X171098684Y-65939866D01*
X171098684Y-65939866D02*
X171065350Y-65973200D01*
X171065350Y-65973200D02*
X170998684Y-66006533D01*
X170998684Y-66006533D02*
X170865350Y-66006533D01*
X170865350Y-66006533D02*
X170798684Y-66039866D01*
X170798684Y-66039866D02*
X170765350Y-66073200D01*
X170765350Y-66073200D02*
X170732017Y-66139866D01*
X170732017Y-66139866D02*
X170732017Y-66273200D01*
X170732017Y-66273200D02*
X170765350Y-66339866D01*
X170765350Y-66339866D02*
X170798684Y-66373200D01*
X170798684Y-66373200D02*
X170865350Y-66406533D01*
X170865350Y-66406533D02*
X170998684Y-66406533D01*
X170998684Y-66406533D02*
X171065350Y-66373200D01*
X171065350Y-66373200D02*
X171098684Y-66339866D01*
X171098684Y-66339866D02*
X171132017Y-66273200D01*
X171132017Y-66273200D02*
X171132017Y-66139866D01*
X171132017Y-66139866D02*
X171098684Y-66073200D01*
X171098684Y-66073200D02*
X171065350Y-66039866D01*
X171065350Y-66039866D02*
X170998684Y-66006533D01*
X171332017Y-65706533D02*
X171565351Y-66406533D01*
X171565351Y-66406533D02*
X171798684Y-65706533D01*
X172565350Y-66406533D02*
X172565350Y-65939866D01*
X172565350Y-65706533D02*
X172532017Y-65739866D01*
X172532017Y-65739866D02*
X172565350Y-65773200D01*
X172565350Y-65773200D02*
X172598684Y-65739866D01*
X172598684Y-65739866D02*
X172565350Y-65706533D01*
X172565350Y-65706533D02*
X172565350Y-65773200D01*
X172898683Y-65939866D02*
X172898683Y-66406533D01*
X172898683Y-66006533D02*
X172932017Y-65973200D01*
X172932017Y-65973200D02*
X172998683Y-65939866D01*
X172998683Y-65939866D02*
X173098683Y-65939866D01*
X173098683Y-65939866D02*
X173165350Y-65973200D01*
X173165350Y-65973200D02*
X173198683Y-66039866D01*
X173198683Y-66039866D02*
X173198683Y-66406533D01*
X176448684Y-100206533D02*
X176615350Y-100906533D01*
X176615350Y-100906533D02*
X176748684Y-100406533D01*
X176748684Y-100406533D02*
X176882017Y-100906533D01*
X176882017Y-100906533D02*
X177048684Y-100206533D01*
X177315350Y-100906533D02*
X177315350Y-100439866D01*
X177315350Y-100206533D02*
X177282017Y-100239866D01*
X177282017Y-100239866D02*
X177315350Y-100273200D01*
X177315350Y-100273200D02*
X177348684Y-100239866D01*
X177348684Y-100239866D02*
X177315350Y-100206533D01*
X177315350Y-100206533D02*
X177315350Y-100273200D01*
X177882017Y-100539866D02*
X177648683Y-100539866D01*
X177648683Y-100906533D02*
X177648683Y-100206533D01*
X177648683Y-100206533D02*
X177982017Y-100206533D01*
X178248683Y-100906533D02*
X178248683Y-100439866D01*
X178248683Y-100206533D02*
X178215350Y-100239866D01*
X178215350Y-100239866D02*
X178248683Y-100273200D01*
X178248683Y-100273200D02*
X178282017Y-100239866D01*
X178282017Y-100239866D02*
X178248683Y-100206533D01*
X178248683Y-100206533D02*
X178248683Y-100273200D01*
X179415349Y-100906533D02*
X179415349Y-100539866D01*
X179415349Y-100539866D02*
X179382016Y-100473200D01*
X179382016Y-100473200D02*
X179315349Y-100439866D01*
X179315349Y-100439866D02*
X179182016Y-100439866D01*
X179182016Y-100439866D02*
X179115349Y-100473200D01*
X179415349Y-100873200D02*
X179348683Y-100906533D01*
X179348683Y-100906533D02*
X179182016Y-100906533D01*
X179182016Y-100906533D02*
X179115349Y-100873200D01*
X179115349Y-100873200D02*
X179082016Y-100806533D01*
X179082016Y-100806533D02*
X179082016Y-100739866D01*
X179082016Y-100739866D02*
X179115349Y-100673200D01*
X179115349Y-100673200D02*
X179182016Y-100639866D01*
X179182016Y-100639866D02*
X179348683Y-100639866D01*
X179348683Y-100639866D02*
X179415349Y-100606533D01*
X180048682Y-100873200D02*
X179982016Y-100906533D01*
X179982016Y-100906533D02*
X179848682Y-100906533D01*
X179848682Y-100906533D02*
X179782016Y-100873200D01*
X179782016Y-100873200D02*
X179748682Y-100839866D01*
X179748682Y-100839866D02*
X179715349Y-100773200D01*
X179715349Y-100773200D02*
X179715349Y-100573200D01*
X179715349Y-100573200D02*
X179748682Y-100506533D01*
X179748682Y-100506533D02*
X179782016Y-100473200D01*
X179782016Y-100473200D02*
X179848682Y-100439866D01*
X179848682Y-100439866D02*
X179982016Y-100439866D01*
X179982016Y-100439866D02*
X180048682Y-100473200D01*
X180248682Y-100439866D02*
X180515349Y-100439866D01*
X180348682Y-100206533D02*
X180348682Y-100806533D01*
X180348682Y-100806533D02*
X180382016Y-100873200D01*
X180382016Y-100873200D02*
X180448682Y-100906533D01*
X180448682Y-100906533D02*
X180515349Y-100906533D01*
X162765350Y-87906533D02*
X162765350Y-87206533D01*
X162765350Y-87206533D02*
X163032017Y-87206533D01*
X163032017Y-87206533D02*
X163098684Y-87239866D01*
X163098684Y-87239866D02*
X163132017Y-87273200D01*
X163132017Y-87273200D02*
X163165350Y-87339866D01*
X163165350Y-87339866D02*
X163165350Y-87439866D01*
X163165350Y-87439866D02*
X163132017Y-87506533D01*
X163132017Y-87506533D02*
X163098684Y-87539866D01*
X163098684Y-87539866D02*
X163032017Y-87573200D01*
X163032017Y-87573200D02*
X162765350Y-87573200D01*
X163398684Y-87439866D02*
X163532017Y-87906533D01*
X163532017Y-87906533D02*
X163665350Y-87573200D01*
X163665350Y-87573200D02*
X163798684Y-87906533D01*
X163798684Y-87906533D02*
X163932017Y-87439866D01*
X164198683Y-87906533D02*
X164198683Y-87439866D01*
X164198683Y-87573200D02*
X164232017Y-87506533D01*
X164232017Y-87506533D02*
X164265350Y-87473200D01*
X164265350Y-87473200D02*
X164332017Y-87439866D01*
X164332017Y-87439866D02*
X164398683Y-87439866D01*
X168883333Y-89416033D02*
X168650000Y-89082700D01*
X168483333Y-89416033D02*
X168483333Y-88716033D01*
X168483333Y-88716033D02*
X168750000Y-88716033D01*
X168750000Y-88716033D02*
X168816667Y-88749366D01*
X168816667Y-88749366D02*
X168850000Y-88782700D01*
X168850000Y-88782700D02*
X168883333Y-88849366D01*
X168883333Y-88849366D02*
X168883333Y-88949366D01*
X168883333Y-88949366D02*
X168850000Y-89016033D01*
X168850000Y-89016033D02*
X168816667Y-89049366D01*
X168816667Y-89049366D02*
X168750000Y-89082700D01*
X168750000Y-89082700D02*
X168483333Y-89082700D01*
X169516667Y-88716033D02*
X169183333Y-88716033D01*
X169183333Y-88716033D02*
X169150000Y-89049366D01*
X169150000Y-89049366D02*
X169183333Y-89016033D01*
X169183333Y-89016033D02*
X169250000Y-88982700D01*
X169250000Y-88982700D02*
X169416667Y-88982700D01*
X169416667Y-88982700D02*
X169483333Y-89016033D01*
X169483333Y-89016033D02*
X169516667Y-89049366D01*
X169516667Y-89049366D02*
X169550000Y-89116033D01*
X169550000Y-89116033D02*
X169550000Y-89282700D01*
X169550000Y-89282700D02*
X169516667Y-89349366D01*
X169516667Y-89349366D02*
X169483333Y-89382700D01*
X169483333Y-89382700D02*
X169416667Y-89416033D01*
X169416667Y-89416033D02*
X169250000Y-89416033D01*
X169250000Y-89416033D02*
X169183333Y-89382700D01*
X169183333Y-89382700D02*
X169150000Y-89349366D01*
X168016033Y-84016666D02*
X167682700Y-84249999D01*
X168016033Y-84416666D02*
X167316033Y-84416666D01*
X167316033Y-84416666D02*
X167316033Y-84149999D01*
X167316033Y-84149999D02*
X167349366Y-84083333D01*
X167349366Y-84083333D02*
X167382700Y-84049999D01*
X167382700Y-84049999D02*
X167449366Y-84016666D01*
X167449366Y-84016666D02*
X167549366Y-84016666D01*
X167549366Y-84016666D02*
X167616033Y-84049999D01*
X167616033Y-84049999D02*
X167649366Y-84083333D01*
X167649366Y-84083333D02*
X167682700Y-84149999D01*
X167682700Y-84149999D02*
X167682700Y-84416666D01*
X167549366Y-83416666D02*
X168016033Y-83416666D01*
X167282700Y-83583333D02*
X167782700Y-83749999D01*
X167782700Y-83749999D02*
X167782700Y-83316666D01*
X168483333Y-87716033D02*
X168483333Y-87016033D01*
X168483333Y-87016033D02*
X168650000Y-87016033D01*
X168650000Y-87016033D02*
X168750000Y-87049366D01*
X168750000Y-87049366D02*
X168816667Y-87116033D01*
X168816667Y-87116033D02*
X168850000Y-87182700D01*
X168850000Y-87182700D02*
X168883333Y-87316033D01*
X168883333Y-87316033D02*
X168883333Y-87416033D01*
X168883333Y-87416033D02*
X168850000Y-87549366D01*
X168850000Y-87549366D02*
X168816667Y-87616033D01*
X168816667Y-87616033D02*
X168750000Y-87682700D01*
X168750000Y-87682700D02*
X168650000Y-87716033D01*
X168650000Y-87716033D02*
X168483333Y-87716033D01*
X169150000Y-87082700D02*
X169183333Y-87049366D01*
X169183333Y-87049366D02*
X169250000Y-87016033D01*
X169250000Y-87016033D02*
X169416667Y-87016033D01*
X169416667Y-87016033D02*
X169483333Y-87049366D01*
X169483333Y-87049366D02*
X169516667Y-87082700D01*
X169516667Y-87082700D02*
X169550000Y-87149366D01*
X169550000Y-87149366D02*
X169550000Y-87216033D01*
X169550000Y-87216033D02*
X169516667Y-87316033D01*
X169516667Y-87316033D02*
X169116667Y-87716033D01*
X169116667Y-87716033D02*
X169550000Y-87716033D01*
X170716666Y-91616033D02*
X170716666Y-92182700D01*
X170716666Y-92182700D02*
X170750000Y-92249366D01*
X170750000Y-92249366D02*
X170783333Y-92282700D01*
X170783333Y-92282700D02*
X170850000Y-92316033D01*
X170850000Y-92316033D02*
X170983333Y-92316033D01*
X170983333Y-92316033D02*
X171050000Y-92282700D01*
X171050000Y-92282700D02*
X171083333Y-92249366D01*
X171083333Y-92249366D02*
X171116666Y-92182700D01*
X171116666Y-92182700D02*
X171116666Y-91616033D01*
X171383333Y-91616033D02*
X171816666Y-91616033D01*
X171816666Y-91616033D02*
X171583333Y-91882700D01*
X171583333Y-91882700D02*
X171683333Y-91882700D01*
X171683333Y-91882700D02*
X171749999Y-91916033D01*
X171749999Y-91916033D02*
X171783333Y-91949366D01*
X171783333Y-91949366D02*
X171816666Y-92016033D01*
X171816666Y-92016033D02*
X171816666Y-92182700D01*
X171816666Y-92182700D02*
X171783333Y-92249366D01*
X171783333Y-92249366D02*
X171749999Y-92282700D01*
X171749999Y-92282700D02*
X171683333Y-92316033D01*
X171683333Y-92316033D02*
X171483333Y-92316033D01*
X171483333Y-92316033D02*
X171416666Y-92282700D01*
X171416666Y-92282700D02*
X171383333Y-92249366D01*
X170316033Y-75733333D02*
X170816033Y-75733333D01*
X170816033Y-75733333D02*
X170916033Y-75766666D01*
X170916033Y-75766666D02*
X170982700Y-75833333D01*
X170982700Y-75833333D02*
X171016033Y-75933333D01*
X171016033Y-75933333D02*
X171016033Y-76000000D01*
X171016033Y-75033333D02*
X171016033Y-75433333D01*
X171016033Y-75233333D02*
X170316033Y-75233333D01*
X170316033Y-75233333D02*
X170416033Y-75300000D01*
X170416033Y-75300000D02*
X170482700Y-75366667D01*
X170482700Y-75366667D02*
X170516033Y-75433333D01*
X180883333Y-99416033D02*
X180883333Y-98716033D01*
X180883333Y-98716033D02*
X181050000Y-98716033D01*
X181050000Y-98716033D02*
X181150000Y-98749366D01*
X181150000Y-98749366D02*
X181216667Y-98816033D01*
X181216667Y-98816033D02*
X181250000Y-98882700D01*
X181250000Y-98882700D02*
X181283333Y-99016033D01*
X181283333Y-99016033D02*
X181283333Y-99116033D01*
X181283333Y-99116033D02*
X181250000Y-99249366D01*
X181250000Y-99249366D02*
X181216667Y-99316033D01*
X181216667Y-99316033D02*
X181150000Y-99382700D01*
X181150000Y-99382700D02*
X181050000Y-99416033D01*
X181050000Y-99416033D02*
X180883333Y-99416033D01*
X181950000Y-99416033D02*
X181550000Y-99416033D01*
X181750000Y-99416033D02*
X181750000Y-98716033D01*
X181750000Y-98716033D02*
X181683333Y-98816033D01*
X181683333Y-98816033D02*
X181616667Y-98882700D01*
X181616667Y-98882700D02*
X181550000Y-98916033D01*
X186469366Y-100166666D02*
X186502700Y-100199999D01*
X186502700Y-100199999D02*
X186536033Y-100299999D01*
X186536033Y-100299999D02*
X186536033Y-100366666D01*
X186536033Y-100366666D02*
X186502700Y-100466666D01*
X186502700Y-100466666D02*
X186436033Y-100533333D01*
X186436033Y-100533333D02*
X186369366Y-100566666D01*
X186369366Y-100566666D02*
X186236033Y-100599999D01*
X186236033Y-100599999D02*
X186136033Y-100599999D01*
X186136033Y-100599999D02*
X186002700Y-100566666D01*
X186002700Y-100566666D02*
X185936033Y-100533333D01*
X185936033Y-100533333D02*
X185869366Y-100466666D01*
X185869366Y-100466666D02*
X185836033Y-100366666D01*
X185836033Y-100366666D02*
X185836033Y-100299999D01*
X185836033Y-100299999D02*
X185869366Y-100199999D01*
X185869366Y-100199999D02*
X185902700Y-100166666D01*
X186536033Y-99499999D02*
X186536033Y-99899999D01*
X186536033Y-99699999D02*
X185836033Y-99699999D01*
X185836033Y-99699999D02*
X185936033Y-99766666D01*
X185936033Y-99766666D02*
X186002700Y-99833333D01*
X186002700Y-99833333D02*
X186036033Y-99899999D01*
X165383333Y-91749366D02*
X165350000Y-91782700D01*
X165350000Y-91782700D02*
X165250000Y-91816033D01*
X165250000Y-91816033D02*
X165183333Y-91816033D01*
X165183333Y-91816033D02*
X165083333Y-91782700D01*
X165083333Y-91782700D02*
X165016667Y-91716033D01*
X165016667Y-91716033D02*
X164983333Y-91649366D01*
X164983333Y-91649366D02*
X164950000Y-91516033D01*
X164950000Y-91516033D02*
X164950000Y-91416033D01*
X164950000Y-91416033D02*
X164983333Y-91282700D01*
X164983333Y-91282700D02*
X165016667Y-91216033D01*
X165016667Y-91216033D02*
X165083333Y-91149366D01*
X165083333Y-91149366D02*
X165183333Y-91116033D01*
X165183333Y-91116033D02*
X165250000Y-91116033D01*
X165250000Y-91116033D02*
X165350000Y-91149366D01*
X165350000Y-91149366D02*
X165383333Y-91182700D01*
X165650000Y-91182700D02*
X165683333Y-91149366D01*
X165683333Y-91149366D02*
X165750000Y-91116033D01*
X165750000Y-91116033D02*
X165916667Y-91116033D01*
X165916667Y-91116033D02*
X165983333Y-91149366D01*
X165983333Y-91149366D02*
X166016667Y-91182700D01*
X166016667Y-91182700D02*
X166050000Y-91249366D01*
X166050000Y-91249366D02*
X166050000Y-91316033D01*
X166050000Y-91316033D02*
X166016667Y-91416033D01*
X166016667Y-91416033D02*
X165616667Y-91816033D01*
X165616667Y-91816033D02*
X166050000Y-91816033D01*
X171683333Y-97349366D02*
X171650000Y-97382700D01*
X171650000Y-97382700D02*
X171550000Y-97416033D01*
X171550000Y-97416033D02*
X171483333Y-97416033D01*
X171483333Y-97416033D02*
X171383333Y-97382700D01*
X171383333Y-97382700D02*
X171316667Y-97316033D01*
X171316667Y-97316033D02*
X171283333Y-97249366D01*
X171283333Y-97249366D02*
X171250000Y-97116033D01*
X171250000Y-97116033D02*
X171250000Y-97016033D01*
X171250000Y-97016033D02*
X171283333Y-96882700D01*
X171283333Y-96882700D02*
X171316667Y-96816033D01*
X171316667Y-96816033D02*
X171383333Y-96749366D01*
X171383333Y-96749366D02*
X171483333Y-96716033D01*
X171483333Y-96716033D02*
X171550000Y-96716033D01*
X171550000Y-96716033D02*
X171650000Y-96749366D01*
X171650000Y-96749366D02*
X171683333Y-96782700D01*
X171916667Y-96716033D02*
X172350000Y-96716033D01*
X172350000Y-96716033D02*
X172116667Y-96982700D01*
X172116667Y-96982700D02*
X172216667Y-96982700D01*
X172216667Y-96982700D02*
X172283333Y-97016033D01*
X172283333Y-97016033D02*
X172316667Y-97049366D01*
X172316667Y-97049366D02*
X172350000Y-97116033D01*
X172350000Y-97116033D02*
X172350000Y-97282700D01*
X172350000Y-97282700D02*
X172316667Y-97349366D01*
X172316667Y-97349366D02*
X172283333Y-97382700D01*
X172283333Y-97382700D02*
X172216667Y-97416033D01*
X172216667Y-97416033D02*
X172016667Y-97416033D01*
X172016667Y-97416033D02*
X171950000Y-97382700D01*
X171950000Y-97382700D02*
X171916667Y-97349366D01*
X171533333Y-79716033D02*
X171300000Y-79382700D01*
X171133333Y-79716033D02*
X171133333Y-79016033D01*
X171133333Y-79016033D02*
X171400000Y-79016033D01*
X171400000Y-79016033D02*
X171466667Y-79049366D01*
X171466667Y-79049366D02*
X171500000Y-79082700D01*
X171500000Y-79082700D02*
X171533333Y-79149366D01*
X171533333Y-79149366D02*
X171533333Y-79249366D01*
X171533333Y-79249366D02*
X171500000Y-79316033D01*
X171500000Y-79316033D02*
X171466667Y-79349366D01*
X171466667Y-79349366D02*
X171400000Y-79382700D01*
X171400000Y-79382700D02*
X171133333Y-79382700D01*
X172133333Y-79016033D02*
X172000000Y-79016033D01*
X172000000Y-79016033D02*
X171933333Y-79049366D01*
X171933333Y-79049366D02*
X171900000Y-79082700D01*
X171900000Y-79082700D02*
X171833333Y-79182700D01*
X171833333Y-79182700D02*
X171800000Y-79316033D01*
X171800000Y-79316033D02*
X171800000Y-79582700D01*
X171800000Y-79582700D02*
X171833333Y-79649366D01*
X171833333Y-79649366D02*
X171866667Y-79682700D01*
X171866667Y-79682700D02*
X171933333Y-79716033D01*
X171933333Y-79716033D02*
X172066667Y-79716033D01*
X172066667Y-79716033D02*
X172133333Y-79682700D01*
X172133333Y-79682700D02*
X172166667Y-79649366D01*
X172166667Y-79649366D02*
X172200000Y-79582700D01*
X172200000Y-79582700D02*
X172200000Y-79416033D01*
X172200000Y-79416033D02*
X172166667Y-79349366D01*
X172166667Y-79349366D02*
X172133333Y-79316033D01*
X172133333Y-79316033D02*
X172066667Y-79282700D01*
X172066667Y-79282700D02*
X171933333Y-79282700D01*
X171933333Y-79282700D02*
X171866667Y-79316033D01*
X171866667Y-79316033D02*
X171833333Y-79349366D01*
X171833333Y-79349366D02*
X171800000Y-79416033D01*
X168566033Y-94266666D02*
X167866033Y-94266666D01*
X167866033Y-94266666D02*
X167866033Y-94099999D01*
X167866033Y-94099999D02*
X167899366Y-93999999D01*
X167899366Y-93999999D02*
X167966033Y-93933333D01*
X167966033Y-93933333D02*
X168032700Y-93899999D01*
X168032700Y-93899999D02*
X168166033Y-93866666D01*
X168166033Y-93866666D02*
X168266033Y-93866666D01*
X168266033Y-93866666D02*
X168399366Y-93899999D01*
X168399366Y-93899999D02*
X168466033Y-93933333D01*
X168466033Y-93933333D02*
X168532700Y-93999999D01*
X168532700Y-93999999D02*
X168566033Y-94099999D01*
X168566033Y-94099999D02*
X168566033Y-94266666D01*
X167866033Y-93633333D02*
X167866033Y-93199999D01*
X167866033Y-93199999D02*
X168132700Y-93433333D01*
X168132700Y-93433333D02*
X168132700Y-93333333D01*
X168132700Y-93333333D02*
X168166033Y-93266666D01*
X168166033Y-93266666D02*
X168199366Y-93233333D01*
X168199366Y-93233333D02*
X168266033Y-93199999D01*
X168266033Y-93199999D02*
X168432700Y-93199999D01*
X168432700Y-93199999D02*
X168499366Y-93233333D01*
X168499366Y-93233333D02*
X168532700Y-93266666D01*
X168532700Y-93266666D02*
X168566033Y-93333333D01*
X168566033Y-93333333D02*
X168566033Y-93533333D01*
X168566033Y-93533333D02*
X168532700Y-93599999D01*
X168532700Y-93599999D02*
X168499366Y-93633333D01*
X174949366Y-81291666D02*
X174982700Y-81324999D01*
X174982700Y-81324999D02*
X175016033Y-81424999D01*
X175016033Y-81424999D02*
X175016033Y-81491666D01*
X175016033Y-81491666D02*
X174982700Y-81591666D01*
X174982700Y-81591666D02*
X174916033Y-81658333D01*
X174916033Y-81658333D02*
X174849366Y-81691666D01*
X174849366Y-81691666D02*
X174716033Y-81724999D01*
X174716033Y-81724999D02*
X174616033Y-81724999D01*
X174616033Y-81724999D02*
X174482700Y-81691666D01*
X174482700Y-81691666D02*
X174416033Y-81658333D01*
X174416033Y-81658333D02*
X174349366Y-81591666D01*
X174349366Y-81591666D02*
X174316033Y-81491666D01*
X174316033Y-81491666D02*
X174316033Y-81424999D01*
X174316033Y-81424999D02*
X174349366Y-81324999D01*
X174349366Y-81324999D02*
X174382700Y-81291666D01*
X174316033Y-80658333D02*
X174316033Y-80991666D01*
X174316033Y-80991666D02*
X174649366Y-81024999D01*
X174649366Y-81024999D02*
X174616033Y-80991666D01*
X174616033Y-80991666D02*
X174582700Y-80924999D01*
X174582700Y-80924999D02*
X174582700Y-80758333D01*
X174582700Y-80758333D02*
X174616033Y-80691666D01*
X174616033Y-80691666D02*
X174649366Y-80658333D01*
X174649366Y-80658333D02*
X174716033Y-80624999D01*
X174716033Y-80624999D02*
X174882700Y-80624999D01*
X174882700Y-80624999D02*
X174949366Y-80658333D01*
X174949366Y-80658333D02*
X174982700Y-80691666D01*
X174982700Y-80691666D02*
X175016033Y-80758333D01*
X175016033Y-80758333D02*
X175016033Y-80924999D01*
X175016033Y-80924999D02*
X174982700Y-80991666D01*
X174982700Y-80991666D02*
X174949366Y-81024999D01*
X176383333Y-98316033D02*
X176150000Y-97982700D01*
X175983333Y-98316033D02*
X175983333Y-97616033D01*
X175983333Y-97616033D02*
X176250000Y-97616033D01*
X176250000Y-97616033D02*
X176316667Y-97649366D01*
X176316667Y-97649366D02*
X176350000Y-97682700D01*
X176350000Y-97682700D02*
X176383333Y-97749366D01*
X176383333Y-97749366D02*
X176383333Y-97849366D01*
X176383333Y-97849366D02*
X176350000Y-97916033D01*
X176350000Y-97916033D02*
X176316667Y-97949366D01*
X176316667Y-97949366D02*
X176250000Y-97982700D01*
X176250000Y-97982700D02*
X175983333Y-97982700D01*
X176650000Y-97682700D02*
X176683333Y-97649366D01*
X176683333Y-97649366D02*
X176750000Y-97616033D01*
X176750000Y-97616033D02*
X176916667Y-97616033D01*
X176916667Y-97616033D02*
X176983333Y-97649366D01*
X176983333Y-97649366D02*
X177016667Y-97682700D01*
X177016667Y-97682700D02*
X177050000Y-97749366D01*
X177050000Y-97749366D02*
X177050000Y-97816033D01*
X177050000Y-97816033D02*
X177016667Y-97916033D01*
X177016667Y-97916033D02*
X176616667Y-98316033D01*
X176616667Y-98316033D02*
X177050000Y-98316033D01*
X171116033Y-81691666D02*
X170782700Y-81924999D01*
X171116033Y-82091666D02*
X170416033Y-82091666D01*
X170416033Y-82091666D02*
X170416033Y-81824999D01*
X170416033Y-81824999D02*
X170449366Y-81758333D01*
X170449366Y-81758333D02*
X170482700Y-81724999D01*
X170482700Y-81724999D02*
X170549366Y-81691666D01*
X170549366Y-81691666D02*
X170649366Y-81691666D01*
X170649366Y-81691666D02*
X170716033Y-81724999D01*
X170716033Y-81724999D02*
X170749366Y-81758333D01*
X170749366Y-81758333D02*
X170782700Y-81824999D01*
X170782700Y-81824999D02*
X170782700Y-82091666D01*
X170416033Y-81458333D02*
X170416033Y-81024999D01*
X170416033Y-81024999D02*
X170682700Y-81258333D01*
X170682700Y-81258333D02*
X170682700Y-81158333D01*
X170682700Y-81158333D02*
X170716033Y-81091666D01*
X170716033Y-81091666D02*
X170749366Y-81058333D01*
X170749366Y-81058333D02*
X170816033Y-81024999D01*
X170816033Y-81024999D02*
X170982700Y-81024999D01*
X170982700Y-81024999D02*
X171049366Y-81058333D01*
X171049366Y-81058333D02*
X171082700Y-81091666D01*
X171082700Y-81091666D02*
X171116033Y-81158333D01*
X171116033Y-81158333D02*
X171116033Y-81358333D01*
X171116033Y-81358333D02*
X171082700Y-81424999D01*
X171082700Y-81424999D02*
X171049366Y-81458333D01*
X193533333Y-97883966D02*
X193533333Y-97317300D01*
X193533333Y-97317300D02*
X193500000Y-97250633D01*
X193500000Y-97250633D02*
X193466666Y-97217300D01*
X193466666Y-97217300D02*
X193400000Y-97183966D01*
X193400000Y-97183966D02*
X193266666Y-97183966D01*
X193266666Y-97183966D02*
X193200000Y-97217300D01*
X193200000Y-97217300D02*
X193166666Y-97250633D01*
X193166666Y-97250633D02*
X193133333Y-97317300D01*
X193133333Y-97317300D02*
X193133333Y-97883966D01*
X192433333Y-97183966D02*
X192833333Y-97183966D01*
X192633333Y-97183966D02*
X192633333Y-97883966D01*
X192633333Y-97883966D02*
X192700000Y-97783966D01*
X192700000Y-97783966D02*
X192766667Y-97717300D01*
X192766667Y-97717300D02*
X192833333Y-97683966D01*
X172849366Y-81391666D02*
X172882700Y-81424999D01*
X172882700Y-81424999D02*
X172916033Y-81524999D01*
X172916033Y-81524999D02*
X172916033Y-81591666D01*
X172916033Y-81591666D02*
X172882700Y-81691666D01*
X172882700Y-81691666D02*
X172816033Y-81758333D01*
X172816033Y-81758333D02*
X172749366Y-81791666D01*
X172749366Y-81791666D02*
X172616033Y-81824999D01*
X172616033Y-81824999D02*
X172516033Y-81824999D01*
X172516033Y-81824999D02*
X172382700Y-81791666D01*
X172382700Y-81791666D02*
X172316033Y-81758333D01*
X172316033Y-81758333D02*
X172249366Y-81691666D01*
X172249366Y-81691666D02*
X172216033Y-81591666D01*
X172216033Y-81591666D02*
X172216033Y-81524999D01*
X172216033Y-81524999D02*
X172249366Y-81424999D01*
X172249366Y-81424999D02*
X172282700Y-81391666D01*
X172449366Y-80791666D02*
X172916033Y-80791666D01*
X172182700Y-80958333D02*
X172682700Y-81124999D01*
X172682700Y-81124999D02*
X172682700Y-80691666D01*
X168866033Y-98233333D02*
X169366033Y-98233333D01*
X169366033Y-98233333D02*
X169466033Y-98266666D01*
X169466033Y-98266666D02*
X169532700Y-98333333D01*
X169532700Y-98333333D02*
X169566033Y-98433333D01*
X169566033Y-98433333D02*
X169566033Y-98500000D01*
X168866033Y-97966667D02*
X168866033Y-97533333D01*
X168866033Y-97533333D02*
X169132700Y-97766667D01*
X169132700Y-97766667D02*
X169132700Y-97666667D01*
X169132700Y-97666667D02*
X169166033Y-97600000D01*
X169166033Y-97600000D02*
X169199366Y-97566667D01*
X169199366Y-97566667D02*
X169266033Y-97533333D01*
X169266033Y-97533333D02*
X169432700Y-97533333D01*
X169432700Y-97533333D02*
X169499366Y-97566667D01*
X169499366Y-97566667D02*
X169532700Y-97600000D01*
X169532700Y-97600000D02*
X169566033Y-97666667D01*
X169566033Y-97666667D02*
X169566033Y-97866667D01*
X169566033Y-97866667D02*
X169532700Y-97933333D01*
X169532700Y-97933333D02*
X169499366Y-97966667D01*
X171683333Y-78049366D02*
X171650000Y-78082700D01*
X171650000Y-78082700D02*
X171550000Y-78116033D01*
X171550000Y-78116033D02*
X171483333Y-78116033D01*
X171483333Y-78116033D02*
X171383333Y-78082700D01*
X171383333Y-78082700D02*
X171316667Y-78016033D01*
X171316667Y-78016033D02*
X171283333Y-77949366D01*
X171283333Y-77949366D02*
X171250000Y-77816033D01*
X171250000Y-77816033D02*
X171250000Y-77716033D01*
X171250000Y-77716033D02*
X171283333Y-77582700D01*
X171283333Y-77582700D02*
X171316667Y-77516033D01*
X171316667Y-77516033D02*
X171383333Y-77449366D01*
X171383333Y-77449366D02*
X171483333Y-77416033D01*
X171483333Y-77416033D02*
X171550000Y-77416033D01*
X171550000Y-77416033D02*
X171650000Y-77449366D01*
X171650000Y-77449366D02*
X171683333Y-77482700D01*
X172283333Y-77416033D02*
X172150000Y-77416033D01*
X172150000Y-77416033D02*
X172083333Y-77449366D01*
X172083333Y-77449366D02*
X172050000Y-77482700D01*
X172050000Y-77482700D02*
X171983333Y-77582700D01*
X171983333Y-77582700D02*
X171950000Y-77716033D01*
X171950000Y-77716033D02*
X171950000Y-77982700D01*
X171950000Y-77982700D02*
X171983333Y-78049366D01*
X171983333Y-78049366D02*
X172016667Y-78082700D01*
X172016667Y-78082700D02*
X172083333Y-78116033D01*
X172083333Y-78116033D02*
X172216667Y-78116033D01*
X172216667Y-78116033D02*
X172283333Y-78082700D01*
X172283333Y-78082700D02*
X172316667Y-78049366D01*
X172316667Y-78049366D02*
X172350000Y-77982700D01*
X172350000Y-77982700D02*
X172350000Y-77816033D01*
X172350000Y-77816033D02*
X172316667Y-77749366D01*
X172316667Y-77749366D02*
X172283333Y-77716033D01*
X172283333Y-77716033D02*
X172216667Y-77682700D01*
X172216667Y-77682700D02*
X172083333Y-77682700D01*
X172083333Y-77682700D02*
X172016667Y-77716033D01*
X172016667Y-77716033D02*
X171983333Y-77749366D01*
X171983333Y-77749366D02*
X171950000Y-77816033D01*
X169383333Y-86616033D02*
X169049999Y-86616033D01*
X169049999Y-86616033D02*
X169049999Y-85916033D01*
X169983333Y-86616033D02*
X169583333Y-86616033D01*
X169783333Y-86616033D02*
X169783333Y-85916033D01*
X169783333Y-85916033D02*
X169716666Y-86016033D01*
X169716666Y-86016033D02*
X169650000Y-86082700D01*
X169650000Y-86082700D02*
X169583333Y-86116033D01*
D11*
G04 #@! TO.C,R5*
X166137742Y-88577500D02*
X166612258Y-88577500D01*
X166137742Y-89622500D02*
X166612258Y-89622500D01*
G04 #@! TO.C,R4*
X169622500Y-83837742D02*
X169622500Y-84312258D01*
X168577500Y-83837742D02*
X168577500Y-84312258D01*
G04 #@! TO.C,D2*
X164915000Y-86765000D02*
X164915000Y-88235000D01*
X164915000Y-88235000D02*
X167200000Y-88235000D01*
X167200000Y-86765000D02*
X164915000Y-86765000D01*
G04 #@! TO.C,U3*
X175060000Y-94000000D02*
X175060000Y-93200000D01*
X175060000Y-94000000D02*
X175060000Y-94800000D01*
X171940000Y-94000000D02*
X171940000Y-93200000D01*
X171940000Y-94000000D02*
X171940000Y-94800000D01*
X175340000Y-92940000D02*
X175010000Y-92700000D01*
X175340000Y-92460000D01*
X175340000Y-92940000D01*
G36*
X175340000Y-92940000D02*
G01*
X175010000Y-92700000D01*
X175340000Y-92460000D01*
X175340000Y-92940000D01*
G37*
G04 #@! TO.C,J1*
X168300000Y-70850000D02*
X166960000Y-70850000D01*
X164240000Y-70850000D02*
X162500000Y-70850000D01*
X162500000Y-70850000D02*
X162500000Y-80150000D01*
X168300000Y-72340000D02*
X168300000Y-70850000D01*
X168300000Y-72340000D02*
X169500000Y-72340000D01*
X168300000Y-78660000D02*
X168300000Y-80150000D01*
X168300000Y-80150000D02*
X166960000Y-80150000D01*
X162500000Y-80150000D02*
X164240000Y-80150000D01*
G04 #@! TO.C,D1*
X177315000Y-98365000D02*
X177315000Y-99835000D01*
X177315000Y-99835000D02*
X179600000Y-99835000D01*
X179600000Y-98365000D02*
X177315000Y-98365000D01*
G04 #@! TO.C,C1*
X187165000Y-100311252D02*
X187165000Y-99788748D01*
X188635000Y-100311252D02*
X188635000Y-99788748D01*
G04 #@! TO.C,C2*
X168238748Y-90765000D02*
X168761252Y-90765000D01*
X168238748Y-92235000D02*
X168761252Y-92235000D01*
G04 #@! TO.C,C3*
X174159420Y-96490000D02*
X174440580Y-96490000D01*
X174159420Y-97510000D02*
X174440580Y-97510000D01*
G04 #@! TO.C,R6*
X173962742Y-78877500D02*
X174437258Y-78877500D01*
X173962742Y-79922500D02*
X174437258Y-79922500D01*
G04 #@! TO.C,D3*
X171000000Y-92590000D02*
X169000000Y-92590000D01*
X171000000Y-92590000D02*
X171000000Y-96450000D01*
X169000000Y-92590000D02*
X169000000Y-96450000D01*
G04 #@! TO.C,C5*
X175435000Y-83713748D02*
X175435000Y-84236252D01*
X173965000Y-83713748D02*
X173965000Y-84236252D01*
G04 #@! TO.C,R2*
X175862258Y-99622500D02*
X175387742Y-99622500D01*
X175862258Y-98577500D02*
X175387742Y-98577500D01*
G04 #@! TO.C,R3*
X170177500Y-84337258D02*
X170177500Y-83862742D01*
X171222500Y-84337258D02*
X171222500Y-83862742D01*
D12*
G04 #@! TO.C,U1*
X176000000Y-97000000D02*
X193800000Y-97000000D01*
X193800000Y-97000000D02*
X193800000Y-70000000D01*
X193800000Y-70000000D02*
X176000000Y-70000000D01*
X176000000Y-70000000D02*
X176000000Y-97000000D01*
D11*
G04 #@! TO.C,C4*
X173335000Y-83713748D02*
X173335000Y-84236252D01*
X171865000Y-83713748D02*
X171865000Y-84236252D01*
G04 #@! TO.C,J3*
X167060000Y-93765000D02*
X167060000Y-95565000D01*
X165610000Y-93765000D02*
X167060000Y-93765000D01*
X162790000Y-95035000D02*
X162790000Y-100965000D01*
X167060000Y-95565000D02*
X168050000Y-95565000D01*
X167060000Y-102235000D02*
X167060000Y-100435000D01*
X165610000Y-102235000D02*
X167060000Y-102235000D01*
G04 #@! TO.C,C6*
X174365580Y-78310000D02*
X174084420Y-78310000D01*
X174365580Y-77290000D02*
X174084420Y-77290000D01*
G04 #@! TO.C,L1*
X170240000Y-91410000D02*
X170640000Y-91410000D01*
X170240000Y-91410000D02*
X170240000Y-85890000D01*
X175760000Y-91410000D02*
X175360000Y-91410000D01*
X175760000Y-91410000D02*
X175760000Y-85890000D01*
X170240000Y-85890000D02*
X170640000Y-85890000D01*
X175760000Y-85890000D02*
X175360000Y-85890000D01*
G04 #@! TD*
M02*
