G04 #@! TF.GenerationSoftware,KiCad,Pcbnew,7.0.7-7.0.7~ubuntu20.04.1*
G04 #@! TF.CreationDate,2024-03-24T22:46:20+02:00*
G04 #@! TF.ProjectId,rtl-module-breakout,72746c2d-6d6f-4647-956c-652d62726561,rev?*
G04 #@! TF.SameCoordinates,Original*
G04 #@! TF.FileFunction,Copper,L2,Bot*
G04 #@! TF.FilePolarity,Positive*
%FSLAX46Y46*%
G04 Gerber Fmt 4.6, Leading zero omitted, Abs format (unit mm)*
G04 Created by KiCad (PCBNEW 7.0.7-7.0.7~ubuntu20.04.1) date 2024-03-24 22:46:20*
%MOMM*%
%LPD*%
G01*
G04 APERTURE LIST*
G04 Aperture macros list*
%AMRoundRect*
0 Rectangle with rounded corners*
0 $1 Rounding radius*
0 $2 $3 $4 $5 $6 $7 $8 $9 X,Y pos of 4 corners*
0 Add a 4 corners polygon primitive as box body*
4,1,4,$2,$3,$4,$5,$6,$7,$8,$9,$2,$3,0*
0 Add four circle primitives for the rounded corners*
1,1,$1+$1,$2,$3*
1,1,$1+$1,$4,$5*
1,1,$1+$1,$6,$7*
1,1,$1+$1,$8,$9*
0 Add four rect primitives between the rounded corners*
20,1,$1+$1,$2,$3,$4,$5,0*
20,1,$1+$1,$4,$5,$6,$7,0*
20,1,$1+$1,$6,$7,$8,$9,0*
20,1,$1+$1,$8,$9,$2,$3,0*%
G04 Aperture macros list end*
G04 #@! TA.AperFunction,ComponentPad*
%ADD10C,0.700000*%
G04 #@! TD*
G04 #@! TA.AperFunction,ComponentPad*
%ADD11C,4.400000*%
G04 #@! TD*
G04 #@! TA.AperFunction,SMDPad,CuDef*
%ADD12R,1.300000X0.700000*%
G04 #@! TD*
G04 #@! TA.AperFunction,SMDPad,CuDef*
%ADD13R,2.438400X1.447800*%
G04 #@! TD*
G04 #@! TA.AperFunction,SMDPad,CuDef*
%ADD14R,1.651000X1.447800*%
G04 #@! TD*
G04 #@! TA.AperFunction,SMDPad,CuDef*
%ADD15R,1.651000X1.854200*%
G04 #@! TD*
G04 #@! TA.AperFunction,SMDPad,CuDef*
%ADD16C,1.000000*%
G04 #@! TD*
G04 #@! TA.AperFunction,SMDPad,CuDef*
%ADD17RoundRect,0.200000X-0.200000X-0.275000X0.200000X-0.275000X0.200000X0.275000X-0.200000X0.275000X0*%
G04 #@! TD*
G04 #@! TA.AperFunction,ViaPad*
%ADD18C,0.800000*%
G04 #@! TD*
G04 #@! TA.AperFunction,Conductor*
%ADD19C,0.250000*%
G04 #@! TD*
G04 #@! TA.AperFunction,Conductor*
%ADD20C,0.600000*%
G04 #@! TD*
G04 APERTURE END LIST*
D10*
G04 #@! TO.P,H3,1,1*
G04 #@! TO.N,GND*
X162850000Y-66500000D03*
X163333274Y-65333274D03*
X163333274Y-67666726D03*
X164500000Y-64850000D03*
D11*
X164500000Y-66500000D03*
D10*
X164500000Y-68150000D03*
X165666726Y-65333274D03*
X165666726Y-67666726D03*
X166150000Y-66500000D03*
G04 #@! TD*
G04 #@! TO.P,H1,1,1*
G04 #@! TO.N,GND*
X189850000Y-100500000D03*
X190333274Y-99333274D03*
X190333274Y-101666726D03*
X191500000Y-98850000D03*
D11*
X191500000Y-100500000D03*
D10*
X191500000Y-102150000D03*
X192666726Y-99333274D03*
X192666726Y-101666726D03*
X193150000Y-100500000D03*
G04 #@! TD*
G04 #@! TO.P,H2,1,1*
G04 #@! TO.N,GND*
X189850000Y-66500000D03*
X190333274Y-65333274D03*
X190333274Y-67666726D03*
X191500000Y-64850000D03*
D11*
X191500000Y-66500000D03*
D10*
X191500000Y-68150000D03*
X192666726Y-65333274D03*
X192666726Y-67666726D03*
X193150000Y-66500000D03*
G04 #@! TD*
D12*
G04 #@! TO.P,J2,1,DAT2*
G04 #@! TO.N,/SD_D2*
X177000000Y-75331400D03*
G04 #@! TO.P,J2,2,DAT3/CD*
G04 #@! TO.N,/SD_D3*
X177000000Y-76431400D03*
G04 #@! TO.P,J2,3,CMD*
G04 #@! TO.N,/SD_CMD*
X177000000Y-77531400D03*
G04 #@! TO.P,J2,4,VDD*
G04 #@! TO.N,+3V3*
X177000000Y-78631400D03*
G04 #@! TO.P,J2,5,CLK*
G04 #@! TO.N,/SD_CLK*
X177000000Y-79731400D03*
G04 #@! TO.P,J2,6,VSS*
G04 #@! TO.N,GND*
X177000000Y-80831400D03*
G04 #@! TO.P,J2,7,DAT0*
G04 #@! TO.N,/SD_D0*
X177000000Y-81931400D03*
G04 #@! TO.P,J2,8,DAT1*
G04 #@! TO.N,/SD_D1*
X177000000Y-83031400D03*
G04 #@! TO.P,J2,9,DET*
G04 #@! TO.N,unconnected-(J2-DET-Pad9)*
X177000000Y-84131400D03*
D13*
G04 #@! TO.P,J2,10,SHIELD*
G04 #@! TO.N,GND*
X166526200Y-85549800D03*
D14*
X176226200Y-85549800D03*
D15*
X176226200Y-70500000D03*
D13*
X166526200Y-69725000D03*
G04 #@! TD*
D16*
G04 #@! TO.P,TP2,1,1*
G04 #@! TO.N,+3V3*
X176800000Y-88200000D03*
G04 #@! TD*
G04 #@! TO.P,TP6,1,1*
G04 #@! TO.N,/USB_N*
X167300000Y-99200000D03*
G04 #@! TD*
G04 #@! TO.P,TP7,1,1*
G04 #@! TO.N,/USB_P*
X167300000Y-97000000D03*
G04 #@! TD*
G04 #@! TO.P,TP3,1,1*
G04 #@! TO.N,GND*
X167300000Y-101500000D03*
G04 #@! TD*
D17*
G04 #@! TO.P,R1,1*
G04 #@! TO.N,+3V3*
X188075000Y-94500000D03*
G04 #@! TO.P,R1,2*
G04 #@! TO.N,Net-(U1-PDN)*
X189725000Y-94500000D03*
G04 #@! TD*
D16*
G04 #@! TO.P,TP1,1,1*
G04 #@! TO.N,Net-(D3-A)*
X167300000Y-94800000D03*
G04 #@! TD*
D18*
G04 #@! TO.N,GND*
X182372000Y-86614000D03*
X171400000Y-101200000D03*
X182372000Y-81534000D03*
X189992000Y-81534000D03*
X189992000Y-89154000D03*
X185500000Y-101700000D03*
X183000000Y-99900000D03*
X179832000Y-81534000D03*
X165000000Y-70800000D03*
X187600000Y-68200000D03*
X184912000Y-89154000D03*
X184912000Y-84074000D03*
X162800000Y-97500000D03*
X192532000Y-81534000D03*
X170750000Y-77000000D03*
X165500000Y-80200000D03*
X184912000Y-81534000D03*
X182372000Y-78994000D03*
X166500000Y-91900000D03*
X175300000Y-93400000D03*
X173900000Y-88800000D03*
X179832000Y-84074000D03*
X174700000Y-82100000D03*
X187452000Y-89154000D03*
X182300000Y-68200000D03*
X192532000Y-84074000D03*
X173700000Y-99200000D03*
X167100000Y-69400000D03*
X172000000Y-98200000D03*
X168000000Y-89100000D03*
X182372000Y-89154000D03*
X192532000Y-78994000D03*
X187452000Y-84074000D03*
X166500000Y-90900000D03*
X189992000Y-78994000D03*
X192532000Y-89154000D03*
X187452000Y-86614000D03*
X175250000Y-92000000D03*
X172600000Y-82000000D03*
X167200000Y-85800000D03*
X192532000Y-91694000D03*
X176400000Y-70600000D03*
X182372000Y-91694000D03*
X181800000Y-95200000D03*
X179832000Y-78994000D03*
X165100000Y-99800000D03*
X178800000Y-102500000D03*
X189992000Y-84074000D03*
X179832000Y-89154000D03*
X163000000Y-92600000D03*
X176800000Y-85700000D03*
X169200000Y-85700000D03*
X164100000Y-83900000D03*
X189992000Y-91694000D03*
X189992000Y-86614000D03*
X179832000Y-91694000D03*
X187452000Y-81534000D03*
X184912000Y-86614000D03*
X179200000Y-68100000D03*
X179832000Y-86614000D03*
X182372000Y-84074000D03*
X168900000Y-81000000D03*
X184912000Y-91694000D03*
X178200000Y-80800000D03*
X184912000Y-78994000D03*
X187452000Y-91694000D03*
X187452000Y-78994000D03*
X192532000Y-86614000D03*
X173600000Y-82000000D03*
G04 #@! TO.N,+3V3*
X188000000Y-95500000D03*
X173700000Y-85700000D03*
X175600000Y-78600000D03*
G04 #@! TO.N,Net-(U3-SW)*
X172700000Y-91600000D03*
X173300000Y-98100000D03*
G04 #@! TO.N,Net-(D3-A)*
X168600000Y-96125000D03*
G04 #@! TO.N,/SD_CLK*
X178100000Y-79700000D03*
G04 #@! TO.N,/SD_D0*
X178200000Y-81900000D03*
G04 #@! TO.N,/SD_D1*
X178200000Y-83000000D03*
G04 #@! TO.N,/SD_D2*
X171400000Y-74474500D03*
G04 #@! TO.N,/SD_D3*
X172100000Y-75200000D03*
G04 #@! TO.N,/SD_CMD*
X172000000Y-76200000D03*
G04 #@! TO.N,/USB_N*
X167300000Y-98625000D03*
G04 #@! TO.N,/USB_P*
X167300000Y-97375000D03*
G04 #@! TO.N,Net-(U1-PDN)*
X190000000Y-95500000D03*
G04 #@! TO.N,Net-(U3-FB)*
X171700000Y-95100000D03*
X169900000Y-82400000D03*
G04 #@! TD*
D19*
G04 #@! TO.N,GND*
X178168600Y-80831400D02*
X178200000Y-80800000D01*
X177000000Y-80831400D02*
X178168600Y-80831400D01*
G04 #@! TO.N,+3V3*
X175600000Y-78600000D02*
X176968600Y-78600000D01*
X188075000Y-94500000D02*
X188075000Y-95425000D01*
X188075000Y-95425000D02*
X188000000Y-95500000D01*
D20*
X176800000Y-88200000D02*
X176200000Y-88200000D01*
D19*
X176968600Y-78600000D02*
X177000000Y-78631400D01*
D20*
X176200000Y-88200000D02*
X173700000Y-85700000D01*
D19*
G04 #@! TO.N,Net-(U3-SW)*
X173300000Y-92200000D02*
X172700000Y-91600000D01*
X173300000Y-98100000D02*
X173300000Y-92200000D01*
D20*
G04 #@! TO.N,Net-(D3-A)*
X167300000Y-94800000D02*
X167300000Y-94825000D01*
X167300000Y-94825000D02*
X168600000Y-96125000D01*
D19*
G04 #@! TO.N,/SD_CLK*
X177031400Y-79700000D02*
X177000000Y-79731400D01*
X178100000Y-79700000D02*
X177031400Y-79700000D01*
G04 #@! TO.N,/SD_D0*
X178200000Y-81900000D02*
X177031400Y-81900000D01*
X177031400Y-81900000D02*
X177000000Y-81931400D01*
G04 #@! TO.N,/SD_D1*
X178200000Y-83000000D02*
X177031400Y-83000000D01*
X177031400Y-83000000D02*
X177000000Y-83031400D01*
G04 #@! TO.N,/SD_D2*
X175331400Y-75331400D02*
X177000000Y-75331400D01*
X174474500Y-74474500D02*
X175331400Y-75331400D01*
X171400000Y-74474500D02*
X174474500Y-74474500D01*
G04 #@! TO.N,/SD_D3*
X172100000Y-75200000D02*
X173331400Y-76431400D01*
X173331400Y-76431400D02*
X177000000Y-76431400D01*
G04 #@! TO.N,/SD_CMD*
X173331400Y-77531400D02*
X177000000Y-77531400D01*
X172000000Y-76200000D02*
X173331400Y-77531400D01*
G04 #@! TO.N,Net-(U1-PDN)*
X189725000Y-95225000D02*
X190000000Y-95500000D01*
X189725000Y-94500000D02*
X189725000Y-95225000D01*
G04 #@! TO.N,Net-(U3-FB)*
X169900000Y-82400000D02*
X171700000Y-84200000D01*
X171700000Y-84200000D02*
X171700000Y-95100000D01*
G04 #@! TD*
G04 #@! TA.AperFunction,Conductor*
G04 #@! TO.N,GND*
G36*
X191501867Y-64000613D02*
G01*
X191518189Y-64001600D01*
X191598917Y-64006483D01*
X191806399Y-64020082D01*
X191813502Y-64020963D01*
X191949227Y-64045836D01*
X192115664Y-64078942D01*
X192121961Y-64080544D01*
X192252376Y-64121183D01*
X192261157Y-64123920D01*
X192415039Y-64176155D01*
X192420539Y-64178321D01*
X192556505Y-64239514D01*
X192699853Y-64310206D01*
X192704493Y-64312747D01*
X192832387Y-64390062D01*
X192834758Y-64391570D01*
X192965590Y-64478990D01*
X192969382Y-64481736D01*
X193087552Y-64574316D01*
X193090196Y-64576508D01*
X193208075Y-64679885D01*
X193211037Y-64682659D01*
X193317339Y-64788961D01*
X193320113Y-64791923D01*
X193423490Y-64909802D01*
X193425682Y-64912446D01*
X193518262Y-65030616D01*
X193521008Y-65034408D01*
X193608428Y-65165240D01*
X193609936Y-65167611D01*
X193687251Y-65295505D01*
X193689799Y-65300160D01*
X193760491Y-65443507D01*
X193821675Y-65579454D01*
X193823848Y-65584973D01*
X193876079Y-65738842D01*
X193919446Y-65878008D01*
X193921063Y-65884362D01*
X193954167Y-66050791D01*
X193979033Y-66186486D01*
X193979917Y-66193612D01*
X193993517Y-66401100D01*
X193999387Y-66498134D01*
X193999500Y-66501879D01*
X193999500Y-100498120D01*
X193999387Y-100501865D01*
X193993517Y-100598899D01*
X193979917Y-100806386D01*
X193979033Y-100813512D01*
X193954167Y-100949208D01*
X193921063Y-101115636D01*
X193919446Y-101121990D01*
X193876079Y-101261157D01*
X193823848Y-101415025D01*
X193821675Y-101420544D01*
X193760491Y-101556492D01*
X193689799Y-101699838D01*
X193687251Y-101704493D01*
X193609936Y-101832387D01*
X193608428Y-101834758D01*
X193521008Y-101965590D01*
X193518262Y-101969382D01*
X193425682Y-102087552D01*
X193423490Y-102090196D01*
X193320113Y-102208075D01*
X193317339Y-102211037D01*
X193211037Y-102317339D01*
X193208075Y-102320113D01*
X193090196Y-102423490D01*
X193087552Y-102425682D01*
X192969382Y-102518262D01*
X192965590Y-102521008D01*
X192834758Y-102608428D01*
X192832387Y-102609936D01*
X192704493Y-102687251D01*
X192699838Y-102689799D01*
X192556492Y-102760491D01*
X192420544Y-102821675D01*
X192415025Y-102823848D01*
X192261157Y-102876079D01*
X192121990Y-102919446D01*
X192115636Y-102921063D01*
X191949208Y-102954167D01*
X191813512Y-102979033D01*
X191806386Y-102979917D01*
X191598899Y-102993517D01*
X191501866Y-102999387D01*
X191498121Y-102999500D01*
X163502214Y-102999500D01*
X163497791Y-102999342D01*
X163469525Y-102997320D01*
X163430331Y-102994517D01*
X163283366Y-102982950D01*
X163275043Y-102981723D01*
X163180244Y-102961101D01*
X163063781Y-102933140D01*
X163056582Y-102930942D01*
X162960260Y-102895016D01*
X162854141Y-102851059D01*
X162848151Y-102848193D01*
X162757076Y-102798463D01*
X162754393Y-102796910D01*
X162694963Y-102760491D01*
X162659106Y-102738517D01*
X162654349Y-102735289D01*
X162630228Y-102717232D01*
X162570567Y-102672570D01*
X162567471Y-102670094D01*
X162483061Y-102598001D01*
X162479485Y-102594695D01*
X162405303Y-102520513D01*
X162401997Y-102516937D01*
X162373339Y-102483383D01*
X162329898Y-102432520D01*
X162327435Y-102429440D01*
X162264705Y-102345643D01*
X162261488Y-102340903D01*
X162203073Y-102245580D01*
X162201535Y-102242922D01*
X162182507Y-102208075D01*
X162151805Y-102151847D01*
X162148939Y-102145856D01*
X162137368Y-102117922D01*
X162104983Y-102039737D01*
X162069051Y-101943401D01*
X162066860Y-101936225D01*
X162038899Y-101819760D01*
X162018274Y-101724947D01*
X162017049Y-101716644D01*
X162005489Y-101569755D01*
X162000657Y-101502207D01*
X162000500Y-101497787D01*
X162000500Y-99200002D01*
X166544751Y-99200002D01*
X166563685Y-99368056D01*
X166619545Y-99527694D01*
X166619547Y-99527697D01*
X166709518Y-99670884D01*
X166709523Y-99670890D01*
X166829109Y-99790476D01*
X166829115Y-99790481D01*
X166972302Y-99880452D01*
X166972305Y-99880454D01*
X166972309Y-99880455D01*
X166972310Y-99880456D01*
X167044913Y-99905860D01*
X167131943Y-99936314D01*
X167299997Y-99955249D01*
X167300000Y-99955249D01*
X167300003Y-99955249D01*
X167468056Y-99936314D01*
X167468059Y-99936313D01*
X167627690Y-99880456D01*
X167627692Y-99880454D01*
X167627694Y-99880454D01*
X167627697Y-99880452D01*
X167770884Y-99790481D01*
X167770885Y-99790480D01*
X167770890Y-99790477D01*
X167890477Y-99670890D01*
X167980452Y-99527697D01*
X167980454Y-99527694D01*
X167980454Y-99527692D01*
X167980456Y-99527690D01*
X168036313Y-99368059D01*
X168036313Y-99368058D01*
X168036314Y-99368056D01*
X168055249Y-99200002D01*
X168055249Y-99199997D01*
X168036313Y-99031942D01*
X167980457Y-98872312D01*
X167980456Y-98872310D01*
X167957593Y-98835924D01*
X167938593Y-98768691D01*
X167939489Y-98755033D01*
X167955278Y-98625000D01*
X167936237Y-98468182D01*
X167880220Y-98320477D01*
X167790483Y-98190470D01*
X167790482Y-98190468D01*
X167680253Y-98092816D01*
X167643126Y-98033627D01*
X167643892Y-97963761D01*
X167680253Y-97907184D01*
X167790482Y-97809531D01*
X167790483Y-97809530D01*
X167880220Y-97679523D01*
X167936237Y-97531818D01*
X167953024Y-97393559D01*
X167971126Y-97342537D01*
X167980456Y-97327690D01*
X168013970Y-97231911D01*
X168036313Y-97168061D01*
X168036313Y-97168059D01*
X168055249Y-97000002D01*
X168055249Y-96999997D01*
X168036313Y-96831942D01*
X168022642Y-96792870D01*
X168019081Y-96723091D01*
X168053810Y-96662464D01*
X168115803Y-96630237D01*
X168185379Y-96636643D01*
X168221910Y-96659100D01*
X168225707Y-96662464D01*
X168227762Y-96664285D01*
X168367634Y-96737696D01*
X168521014Y-96775500D01*
X168521015Y-96775500D01*
X168678985Y-96775500D01*
X168832365Y-96737696D01*
X168860192Y-96723091D01*
X168972240Y-96664283D01*
X169090483Y-96559530D01*
X169180220Y-96429523D01*
X169236237Y-96281818D01*
X169255278Y-96125000D01*
X169236237Y-95968182D01*
X169180220Y-95820477D01*
X169090483Y-95690470D01*
X168972240Y-95585717D01*
X168972238Y-95585716D01*
X168972237Y-95585715D01*
X168832367Y-95512304D01*
X168777626Y-95498812D01*
X168719621Y-95466096D01*
X168086149Y-94832624D01*
X168052664Y-94771301D01*
X168050610Y-94758826D01*
X168036314Y-94631944D01*
X167980454Y-94472305D01*
X167980452Y-94472302D01*
X167890481Y-94329115D01*
X167890476Y-94329109D01*
X167770890Y-94209523D01*
X167770884Y-94209518D01*
X167627697Y-94119547D01*
X167627694Y-94119545D01*
X167468056Y-94063685D01*
X167300003Y-94044751D01*
X167299997Y-94044751D01*
X167131943Y-94063685D01*
X166972305Y-94119545D01*
X166972302Y-94119547D01*
X166829115Y-94209518D01*
X166829109Y-94209523D01*
X166709523Y-94329109D01*
X166709518Y-94329115D01*
X166619547Y-94472302D01*
X166619545Y-94472305D01*
X166563685Y-94631943D01*
X166544751Y-94799997D01*
X166544751Y-94800002D01*
X166563685Y-94968056D01*
X166619545Y-95127694D01*
X166619547Y-95127697D01*
X166709518Y-95270884D01*
X166709523Y-95270890D01*
X166829109Y-95390476D01*
X166829115Y-95390481D01*
X166972302Y-95480452D01*
X166972308Y-95480455D01*
X166972310Y-95480456D01*
X167131941Y-95536313D01*
X167202478Y-95544260D01*
X167266889Y-95571325D01*
X167276274Y-95579799D01*
X167894354Y-96197879D01*
X167927839Y-96259202D01*
X167922855Y-96328894D01*
X167880983Y-96384827D01*
X167815519Y-96409244D01*
X167747246Y-96394392D01*
X167740701Y-96390553D01*
X167627697Y-96319547D01*
X167627694Y-96319545D01*
X167468056Y-96263685D01*
X167300003Y-96244751D01*
X167299997Y-96244751D01*
X167131943Y-96263685D01*
X166972305Y-96319545D01*
X166972302Y-96319547D01*
X166829115Y-96409518D01*
X166829109Y-96409523D01*
X166709523Y-96529109D01*
X166709518Y-96529115D01*
X166619547Y-96672302D01*
X166619545Y-96672305D01*
X166563685Y-96831943D01*
X166544751Y-96999997D01*
X166544751Y-97000002D01*
X166563685Y-97168056D01*
X166619544Y-97327691D01*
X166628874Y-97342539D01*
X166646975Y-97393563D01*
X166663763Y-97531819D01*
X166719780Y-97679523D01*
X166719781Y-97679524D01*
X166809516Y-97809529D01*
X166919747Y-97907184D01*
X166956874Y-97966374D01*
X166956106Y-98036239D01*
X166919747Y-98092816D01*
X166809516Y-98190470D01*
X166719781Y-98320475D01*
X166719780Y-98320476D01*
X166663762Y-98468181D01*
X166644722Y-98624999D01*
X166644721Y-98625000D01*
X166660507Y-98755008D01*
X166649046Y-98823931D01*
X166642406Y-98835924D01*
X166619544Y-98872308D01*
X166563685Y-99031943D01*
X166544751Y-99199997D01*
X166544751Y-99200002D01*
X162000500Y-99200002D01*
X162000500Y-82650055D01*
X165595101Y-82650055D01*
X165635809Y-82815221D01*
X165635810Y-82815224D01*
X165635811Y-82815225D01*
X165714866Y-82965851D01*
X165827671Y-83093182D01*
X165967671Y-83189817D01*
X166054449Y-83222727D01*
X166126724Y-83250138D01*
X166126726Y-83250138D01*
X166126728Y-83250139D01*
X166168894Y-83255259D01*
X166253226Y-83265499D01*
X166253228Y-83265499D01*
X166337974Y-83265499D01*
X166401222Y-83257819D01*
X166464472Y-83250139D01*
X166623529Y-83189817D01*
X166763529Y-83093182D01*
X166876334Y-82965851D01*
X166955389Y-82815225D01*
X166996099Y-82650056D01*
X166996099Y-82479944D01*
X166976395Y-82400000D01*
X169244722Y-82400000D01*
X169263762Y-82556818D01*
X169316349Y-82695476D01*
X169319780Y-82704523D01*
X169409517Y-82834530D01*
X169527760Y-82939283D01*
X169527762Y-82939284D01*
X169667634Y-83012696D01*
X169821014Y-83050500D01*
X169968101Y-83050500D01*
X170035140Y-83070185D01*
X170055782Y-83086819D01*
X171288181Y-84319218D01*
X171321666Y-84380541D01*
X171324500Y-84406899D01*
X171324500Y-94507796D01*
X171304815Y-94574835D01*
X171282727Y-94600611D01*
X171209518Y-94665468D01*
X171119781Y-94795475D01*
X171119780Y-94795476D01*
X171063762Y-94943181D01*
X171044722Y-95099999D01*
X171044722Y-95100000D01*
X171063762Y-95256818D01*
X171119779Y-95404523D01*
X171119780Y-95404523D01*
X171209517Y-95534530D01*
X171327760Y-95639283D01*
X171327762Y-95639284D01*
X171467634Y-95712696D01*
X171621014Y-95750500D01*
X171621015Y-95750500D01*
X171778985Y-95750500D01*
X171932365Y-95712696D01*
X171932365Y-95712695D01*
X172072240Y-95639283D01*
X172190483Y-95534530D01*
X172280220Y-95404523D01*
X172336237Y-95256818D01*
X172355278Y-95100000D01*
X172351086Y-95065471D01*
X172336237Y-94943181D01*
X172306572Y-94864962D01*
X172280220Y-94795477D01*
X172190483Y-94665470D01*
X172152640Y-94631944D01*
X172117273Y-94600611D01*
X172080146Y-94541422D01*
X172075500Y-94507796D01*
X172075500Y-92191317D01*
X172095185Y-92124278D01*
X172147989Y-92078523D01*
X172217147Y-92068579D01*
X172280703Y-92097604D01*
X172281649Y-92098433D01*
X172310823Y-92124278D01*
X172327762Y-92139285D01*
X172467634Y-92212696D01*
X172621014Y-92250500D01*
X172768100Y-92250500D01*
X172835139Y-92270185D01*
X172855780Y-92286817D01*
X172888180Y-92319216D01*
X172921666Y-92380539D01*
X172924500Y-92406899D01*
X172924500Y-97507796D01*
X172904815Y-97574835D01*
X172882727Y-97600611D01*
X172809518Y-97665468D01*
X172719781Y-97795475D01*
X172719780Y-97795476D01*
X172663762Y-97943181D01*
X172644722Y-98099999D01*
X172644722Y-98100000D01*
X172663762Y-98256818D01*
X172719779Y-98404522D01*
X172719780Y-98404523D01*
X172809517Y-98534530D01*
X172927760Y-98639283D01*
X172927762Y-98639284D01*
X173067634Y-98712696D01*
X173221014Y-98750500D01*
X173221015Y-98750500D01*
X173378985Y-98750500D01*
X173532365Y-98712696D01*
X173532365Y-98712695D01*
X173672240Y-98639283D01*
X173790483Y-98534530D01*
X173880220Y-98404523D01*
X173936237Y-98256818D01*
X173955278Y-98100000D01*
X173936237Y-97943182D01*
X173880220Y-97795477D01*
X173790483Y-97665470D01*
X173790481Y-97665468D01*
X173717273Y-97600611D01*
X173680146Y-97541422D01*
X173675500Y-97507796D01*
X173675500Y-95500000D01*
X187344722Y-95500000D01*
X187363762Y-95656818D01*
X187419779Y-95804522D01*
X187419780Y-95804523D01*
X187509517Y-95934530D01*
X187627760Y-96039283D01*
X187627762Y-96039284D01*
X187767634Y-96112696D01*
X187921014Y-96150500D01*
X187921015Y-96150500D01*
X188078985Y-96150500D01*
X188232365Y-96112696D01*
X188232364Y-96112696D01*
X188372240Y-96039283D01*
X188490483Y-95934530D01*
X188580220Y-95804523D01*
X188636237Y-95656818D01*
X188655278Y-95500000D01*
X188652904Y-95480452D01*
X188636237Y-95343182D01*
X188632613Y-95333626D01*
X188585305Y-95208886D01*
X188579939Y-95139228D01*
X188601477Y-95091286D01*
X188677793Y-94987882D01*
X188700219Y-94923790D01*
X188722646Y-94859701D01*
X188722646Y-94859699D01*
X188725500Y-94829269D01*
X189074500Y-94829269D01*
X189077353Y-94859699D01*
X189077353Y-94859701D01*
X189122206Y-94987880D01*
X189122207Y-94987882D01*
X189202850Y-95097150D01*
X189259864Y-95139228D01*
X189299728Y-95168649D01*
X189341978Y-95224297D01*
X189348078Y-95251154D01*
X189348656Y-95251058D01*
X189353342Y-95279141D01*
X189360673Y-95337949D01*
X189360721Y-95368234D01*
X189344722Y-95499999D01*
X189344722Y-95500000D01*
X189363762Y-95656818D01*
X189419780Y-95804522D01*
X189419780Y-95804523D01*
X189509517Y-95934530D01*
X189627760Y-96039283D01*
X189627762Y-96039284D01*
X189767634Y-96112696D01*
X189921014Y-96150500D01*
X189921015Y-96150500D01*
X190078985Y-96150500D01*
X190232365Y-96112696D01*
X190232364Y-96112696D01*
X190372240Y-96039283D01*
X190490483Y-95934530D01*
X190580220Y-95804523D01*
X190636237Y-95656818D01*
X190655278Y-95500000D01*
X190652905Y-95480452D01*
X190636237Y-95343181D01*
X190614992Y-95287163D01*
X190580220Y-95195477D01*
X190490483Y-95065470D01*
X190407873Y-94992285D01*
X190370747Y-94933096D01*
X190371471Y-94867163D01*
X190371036Y-94867068D01*
X190371495Y-94864962D01*
X190371515Y-94863231D01*
X190372593Y-94859939D01*
X190372647Y-94859693D01*
X190375500Y-94829269D01*
X190375500Y-94170730D01*
X190372646Y-94140300D01*
X190372646Y-94140298D01*
X190327793Y-94012119D01*
X190327792Y-94012117D01*
X190247150Y-93902850D01*
X190137882Y-93822207D01*
X190137880Y-93822206D01*
X190009700Y-93777353D01*
X189979270Y-93774500D01*
X189979266Y-93774500D01*
X189470734Y-93774500D01*
X189470730Y-93774500D01*
X189440300Y-93777353D01*
X189440298Y-93777353D01*
X189312119Y-93822206D01*
X189312117Y-93822207D01*
X189202850Y-93902850D01*
X189122207Y-94012117D01*
X189122206Y-94012119D01*
X189077353Y-94140298D01*
X189077353Y-94140300D01*
X189074500Y-94170730D01*
X189074500Y-94829269D01*
X188725500Y-94829269D01*
X188725500Y-94170730D01*
X188722646Y-94140300D01*
X188722646Y-94140298D01*
X188677793Y-94012119D01*
X188677792Y-94012117D01*
X188597150Y-93902850D01*
X188487882Y-93822207D01*
X188487880Y-93822206D01*
X188359700Y-93777353D01*
X188329270Y-93774500D01*
X188329266Y-93774500D01*
X187820734Y-93774500D01*
X187820730Y-93774500D01*
X187790300Y-93777353D01*
X187790298Y-93777353D01*
X187662119Y-93822206D01*
X187662117Y-93822207D01*
X187552850Y-93902850D01*
X187472207Y-94012117D01*
X187472206Y-94012119D01*
X187427353Y-94140298D01*
X187427353Y-94140300D01*
X187424500Y-94170730D01*
X187424500Y-94829269D01*
X187427353Y-94859696D01*
X187472208Y-94987885D01*
X187476470Y-94995949D01*
X187490391Y-95064418D01*
X187468890Y-95124328D01*
X187419780Y-95195476D01*
X187363762Y-95343181D01*
X187344722Y-95499999D01*
X187344722Y-95500000D01*
X173675500Y-95500000D01*
X173675500Y-92251804D01*
X173678139Y-92226359D01*
X173678785Y-92223275D01*
X173680367Y-92215732D01*
X173677324Y-92191317D01*
X173675977Y-92180506D01*
X173675500Y-92172830D01*
X173675500Y-92168889D01*
X173675498Y-92168876D01*
X173671657Y-92145859D01*
X173665754Y-92098501D01*
X173664866Y-92091374D01*
X173664864Y-92091370D01*
X173662622Y-92083840D01*
X173660065Y-92076392D01*
X173660065Y-92076390D01*
X173633944Y-92028122D01*
X173609826Y-91978789D01*
X173609824Y-91978787D01*
X173609824Y-91978786D01*
X173605276Y-91972416D01*
X173600420Y-91966176D01*
X173600419Y-91966174D01*
X173560029Y-91928992D01*
X173384516Y-91753479D01*
X173351032Y-91692157D01*
X173349102Y-91650857D01*
X173355278Y-91600000D01*
X173336237Y-91443182D01*
X173280220Y-91295477D01*
X173190483Y-91165470D01*
X173072240Y-91060717D01*
X173072238Y-91060716D01*
X173072237Y-91060715D01*
X172932365Y-90987303D01*
X172778986Y-90949500D01*
X172778985Y-90949500D01*
X172621015Y-90949500D01*
X172621014Y-90949500D01*
X172467634Y-90987303D01*
X172327761Y-91060715D01*
X172327759Y-91060717D01*
X172281726Y-91101498D01*
X172218493Y-91131219D01*
X172149229Y-91122035D01*
X172095926Y-91076862D01*
X172075507Y-91010042D01*
X172075500Y-91008682D01*
X172075500Y-85700000D01*
X173044722Y-85700000D01*
X173063762Y-85856818D01*
X173119779Y-86004523D01*
X173119780Y-86004523D01*
X173209517Y-86134530D01*
X173327760Y-86239283D01*
X173467635Y-86312696D01*
X173522369Y-86326186D01*
X173580377Y-86358902D01*
X175804093Y-88582618D01*
X175849320Y-88631044D01*
X175887144Y-88654045D01*
X175892374Y-88657604D01*
X175927658Y-88684361D01*
X175935930Y-88687623D01*
X175944353Y-88690945D01*
X175963290Y-88700351D01*
X175978618Y-88709672D01*
X176021247Y-88721616D01*
X176027263Y-88723639D01*
X176068436Y-88739876D01*
X176086287Y-88741711D01*
X176107052Y-88745657D01*
X176124335Y-88750500D01*
X176168594Y-88750500D01*
X176174935Y-88750824D01*
X176218972Y-88755352D01*
X176219632Y-88755238D01*
X176220240Y-88755308D01*
X176227450Y-88755062D01*
X176227486Y-88756143D01*
X176289042Y-88763243D01*
X176323440Y-88786420D01*
X176323667Y-88786136D01*
X176327202Y-88788955D01*
X176328386Y-88789753D01*
X176329109Y-88790476D01*
X176329115Y-88790481D01*
X176472302Y-88880452D01*
X176472305Y-88880454D01*
X176472309Y-88880455D01*
X176472310Y-88880456D01*
X176544913Y-88905860D01*
X176631943Y-88936314D01*
X176799997Y-88955249D01*
X176800000Y-88955249D01*
X176800003Y-88955249D01*
X176968056Y-88936314D01*
X176968059Y-88936313D01*
X177127690Y-88880456D01*
X177127692Y-88880454D01*
X177127694Y-88880454D01*
X177127697Y-88880452D01*
X177270884Y-88790481D01*
X177270885Y-88790480D01*
X177270890Y-88790477D01*
X177390477Y-88670890D01*
X177400027Y-88655692D01*
X177480452Y-88527697D01*
X177480454Y-88527694D01*
X177480454Y-88527692D01*
X177480456Y-88527690D01*
X177536313Y-88368059D01*
X177536313Y-88368058D01*
X177536314Y-88368056D01*
X177555249Y-88200002D01*
X177555249Y-88199997D01*
X177536314Y-88031943D01*
X177480454Y-87872305D01*
X177480452Y-87872302D01*
X177390481Y-87729115D01*
X177390476Y-87729109D01*
X177270890Y-87609523D01*
X177270884Y-87609518D01*
X177127697Y-87519547D01*
X177127694Y-87519545D01*
X176968056Y-87463685D01*
X176800003Y-87444751D01*
X176799997Y-87444751D01*
X176631943Y-87463685D01*
X176472307Y-87519545D01*
X176449034Y-87534169D01*
X176381797Y-87553169D01*
X176314962Y-87532801D01*
X176295381Y-87516856D01*
X174363937Y-85585412D01*
X174335676Y-85541702D01*
X174318067Y-85495274D01*
X174280220Y-85395477D01*
X174190483Y-85265470D01*
X174072240Y-85160717D01*
X174072238Y-85160716D01*
X174072237Y-85160715D01*
X173932365Y-85087303D01*
X173778986Y-85049500D01*
X173778985Y-85049500D01*
X173621015Y-85049500D01*
X173621014Y-85049500D01*
X173467634Y-85087303D01*
X173327762Y-85160715D01*
X173209516Y-85265471D01*
X173119781Y-85395475D01*
X173119780Y-85395476D01*
X173063762Y-85543181D01*
X173044722Y-85699999D01*
X173044722Y-85700000D01*
X172075500Y-85700000D01*
X172075500Y-84506078D01*
X176099500Y-84506078D01*
X176114032Y-84579135D01*
X176114033Y-84579139D01*
X176114034Y-84579140D01*
X176169399Y-84662001D01*
X176252260Y-84717366D01*
X176252264Y-84717367D01*
X176325321Y-84731899D01*
X176325324Y-84731900D01*
X176325326Y-84731900D01*
X177674676Y-84731900D01*
X177674677Y-84731899D01*
X177747740Y-84717366D01*
X177830601Y-84662001D01*
X177885966Y-84579140D01*
X177900500Y-84506074D01*
X177900500Y-83756726D01*
X177900500Y-83756725D01*
X177900500Y-83754422D01*
X177920185Y-83687383D01*
X177972989Y-83641628D01*
X178042147Y-83631684D01*
X178054156Y-83634021D01*
X178121015Y-83650500D01*
X178121017Y-83650500D01*
X178278985Y-83650500D01*
X178432365Y-83612696D01*
X178432364Y-83612695D01*
X178572240Y-83539283D01*
X178690483Y-83434530D01*
X178780220Y-83304523D01*
X178836237Y-83156818D01*
X178855278Y-83000000D01*
X178851132Y-82965850D01*
X178836237Y-82843181D01*
X178783651Y-82704524D01*
X178780220Y-82695477D01*
X178690483Y-82565470D01*
X178664910Y-82542814D01*
X178627785Y-82483627D01*
X178628552Y-82413761D01*
X178664910Y-82357185D01*
X178690483Y-82334530D01*
X178780220Y-82204523D01*
X178836237Y-82056818D01*
X178855278Y-81900000D01*
X178836237Y-81743182D01*
X178780220Y-81595477D01*
X178690483Y-81465470D01*
X178572240Y-81360717D01*
X178572238Y-81360716D01*
X178572237Y-81360715D01*
X178432365Y-81287303D01*
X178278986Y-81249500D01*
X178278985Y-81249500D01*
X178121015Y-81249500D01*
X178121014Y-81249500D01*
X177967637Y-81287303D01*
X177860161Y-81343711D01*
X177791652Y-81357436D01*
X177755083Y-81348475D01*
X177747740Y-81345433D01*
X177674676Y-81330900D01*
X177674674Y-81330900D01*
X176325326Y-81330900D01*
X176325323Y-81330900D01*
X176252264Y-81345432D01*
X176252260Y-81345433D01*
X176169399Y-81400799D01*
X176114033Y-81483660D01*
X176114032Y-81483664D01*
X176099500Y-81556721D01*
X176099500Y-82306078D01*
X176114032Y-82379135D01*
X176114034Y-82379140D01*
X176136330Y-82412509D01*
X176157208Y-82479185D01*
X176138724Y-82546566D01*
X176136331Y-82550288D01*
X176114035Y-82583657D01*
X176114032Y-82583664D01*
X176099500Y-82656721D01*
X176099500Y-83406078D01*
X176114032Y-83479135D01*
X176114033Y-83479139D01*
X176136331Y-83512510D01*
X176157208Y-83579188D01*
X176138723Y-83646568D01*
X176136337Y-83650279D01*
X176131708Y-83657207D01*
X176114033Y-83683660D01*
X176114032Y-83683664D01*
X176099500Y-83756721D01*
X176099500Y-84506078D01*
X172075500Y-84506078D01*
X172075500Y-84251803D01*
X172078139Y-84226358D01*
X172078785Y-84223274D01*
X172080367Y-84215731D01*
X172078287Y-84199051D01*
X172075977Y-84180508D01*
X172075500Y-84172832D01*
X172075500Y-84168889D01*
X172075499Y-84168883D01*
X172071655Y-84145846D01*
X172064865Y-84091373D01*
X172062617Y-84083827D01*
X172060065Y-84076390D01*
X172033942Y-84028119D01*
X172033941Y-84028118D01*
X172009826Y-83978788D01*
X172009823Y-83978785D01*
X172009823Y-83978784D01*
X172005267Y-83972402D01*
X172000423Y-83966178D01*
X172000419Y-83966174D01*
X171960041Y-83929003D01*
X170584518Y-82553480D01*
X170551033Y-82492157D01*
X170549103Y-82450852D01*
X170555278Y-82400000D01*
X170536237Y-82243182D01*
X170480220Y-82095477D01*
X170390483Y-81965470D01*
X170272240Y-81860717D01*
X170272238Y-81860716D01*
X170272237Y-81860715D01*
X170132365Y-81787303D01*
X169978986Y-81749500D01*
X169978985Y-81749500D01*
X169821015Y-81749500D01*
X169821014Y-81749500D01*
X169667634Y-81787303D01*
X169527762Y-81860715D01*
X169409516Y-81965471D01*
X169319781Y-82095475D01*
X169319780Y-82095476D01*
X169263762Y-82243181D01*
X169244722Y-82399999D01*
X169244722Y-82400000D01*
X166976395Y-82400000D01*
X166976395Y-82399999D01*
X166955390Y-82314778D01*
X166955389Y-82314777D01*
X166955389Y-82314775D01*
X166876334Y-82164149D01*
X166763529Y-82036818D01*
X166623529Y-81940183D01*
X166623529Y-81940182D01*
X166464475Y-81879861D01*
X166464470Y-81879860D01*
X166337974Y-81864501D01*
X166337972Y-81864501D01*
X166253228Y-81864501D01*
X166253226Y-81864501D01*
X166126729Y-81879860D01*
X166126724Y-81879861D01*
X165967670Y-81940183D01*
X165967669Y-81940184D01*
X165827671Y-82036817D01*
X165714866Y-82164149D01*
X165635809Y-82314778D01*
X165595101Y-82479944D01*
X165595101Y-82650055D01*
X162000500Y-82650055D01*
X162000500Y-74674455D01*
X165595101Y-74674455D01*
X165635809Y-74839621D01*
X165635810Y-74839624D01*
X165635811Y-74839625D01*
X165714866Y-74990251D01*
X165827671Y-75117582D01*
X165967671Y-75214217D01*
X166054449Y-75247127D01*
X166126724Y-75274538D01*
X166126726Y-75274538D01*
X166126728Y-75274539D01*
X166168894Y-75279659D01*
X166253226Y-75289899D01*
X166253228Y-75289899D01*
X166337974Y-75289899D01*
X166401222Y-75282219D01*
X166464472Y-75274539D01*
X166623529Y-75214217D01*
X166763529Y-75117582D01*
X166876334Y-74990251D01*
X166955389Y-74839625D01*
X166996099Y-74674456D01*
X166996099Y-74504344D01*
X166988743Y-74474500D01*
X170744722Y-74474500D01*
X170763762Y-74631318D01*
X170807041Y-74745433D01*
X170819780Y-74779023D01*
X170909517Y-74909030D01*
X171027760Y-75013783D01*
X171027762Y-75013784D01*
X171167634Y-75087196D01*
X171321014Y-75125000D01*
X171321015Y-75125000D01*
X171325761Y-75125000D01*
X171392800Y-75144685D01*
X171438555Y-75197489D01*
X171448856Y-75234053D01*
X171453773Y-75274539D01*
X171463763Y-75356818D01*
X171519780Y-75504523D01*
X171519781Y-75504524D01*
X171565251Y-75570400D01*
X171587134Y-75636755D01*
X171569668Y-75704407D01*
X171545428Y-75733655D01*
X171509518Y-75765468D01*
X171419781Y-75895475D01*
X171419780Y-75895476D01*
X171363762Y-76043181D01*
X171344722Y-76199999D01*
X171344722Y-76200000D01*
X171363762Y-76356818D01*
X171419780Y-76504523D01*
X171509517Y-76634530D01*
X171627760Y-76739283D01*
X171627762Y-76739284D01*
X171767634Y-76812696D01*
X171921014Y-76850500D01*
X172068100Y-76850500D01*
X172135139Y-76870185D01*
X172155781Y-76886819D01*
X173029250Y-77760288D01*
X173045375Y-77780144D01*
X173051313Y-77789232D01*
X173051316Y-77789236D01*
X173079325Y-77811036D01*
X173085087Y-77816125D01*
X173087882Y-77818920D01*
X173106895Y-77832494D01*
X173150211Y-77866209D01*
X173150218Y-77866211D01*
X173157120Y-77869947D01*
X173164196Y-77873406D01*
X173164201Y-77873410D01*
X173216802Y-77889070D01*
X173216803Y-77889070D01*
X173268738Y-77906900D01*
X173276472Y-77908190D01*
X173284310Y-77909167D01*
X173284312Y-77909168D01*
X173284313Y-77909167D01*
X173284314Y-77909168D01*
X173339156Y-77906900D01*
X175074422Y-77906900D01*
X175141461Y-77926585D01*
X175187216Y-77979389D01*
X175197160Y-78048547D01*
X175168135Y-78112103D01*
X175156648Y-78123716D01*
X175109517Y-78165468D01*
X175019781Y-78295475D01*
X175019780Y-78295476D01*
X174963762Y-78443181D01*
X174944722Y-78599999D01*
X174944722Y-78600000D01*
X174963762Y-78756818D01*
X175019780Y-78904522D01*
X175019780Y-78904523D01*
X175109517Y-79034530D01*
X175227760Y-79139283D01*
X175227762Y-79139284D01*
X175367634Y-79212696D01*
X175521014Y-79250500D01*
X175521015Y-79250500D01*
X175678985Y-79250500D01*
X175832365Y-79212696D01*
X175932732Y-79160019D01*
X176001240Y-79146293D01*
X176066293Y-79171785D01*
X176107238Y-79228401D01*
X176111975Y-79294006D01*
X176099500Y-79356721D01*
X176099500Y-80106078D01*
X176114032Y-80179135D01*
X176114033Y-80179139D01*
X176114034Y-80179140D01*
X176169399Y-80262001D01*
X176252260Y-80317366D01*
X176252264Y-80317367D01*
X176325321Y-80331899D01*
X176325324Y-80331900D01*
X176325326Y-80331900D01*
X177674676Y-80331900D01*
X177674677Y-80331899D01*
X177747740Y-80317366D01*
X177747744Y-80317363D01*
X177759020Y-80312693D01*
X177760038Y-80315152D01*
X177809797Y-80299568D01*
X177860074Y-80311482D01*
X177860623Y-80310037D01*
X177867634Y-80312696D01*
X178021014Y-80350500D01*
X178021015Y-80350500D01*
X178178985Y-80350500D01*
X178332365Y-80312696D01*
X178357378Y-80299568D01*
X178472240Y-80239283D01*
X178590483Y-80134530D01*
X178680220Y-80004523D01*
X178736237Y-79856818D01*
X178755278Y-79700000D01*
X178736237Y-79543182D01*
X178680220Y-79395477D01*
X178590483Y-79265470D01*
X178472240Y-79160717D01*
X178472238Y-79160716D01*
X178472237Y-79160715D01*
X178332365Y-79087303D01*
X178178986Y-79049500D01*
X178178985Y-79049500D01*
X178024500Y-79049500D01*
X177957461Y-79029815D01*
X177911706Y-78977011D01*
X177900500Y-78925500D01*
X177900500Y-78256723D01*
X177900499Y-78256721D01*
X177885967Y-78183664D01*
X177885966Y-78183662D01*
X177885966Y-78183660D01*
X177885964Y-78183658D01*
X177885964Y-78183656D01*
X177863669Y-78150289D01*
X177842791Y-78083612D01*
X177861276Y-78016232D01*
X177863621Y-78012581D01*
X177885966Y-77979140D01*
X177900500Y-77906074D01*
X177900500Y-77156726D01*
X177900500Y-77156723D01*
X177900499Y-77156721D01*
X177885967Y-77083664D01*
X177885967Y-77083662D01*
X177885966Y-77083660D01*
X177863667Y-77050287D01*
X177842791Y-76983614D01*
X177861275Y-76916234D01*
X177863628Y-76912570D01*
X177885966Y-76879140D01*
X177900500Y-76806074D01*
X177900500Y-76056726D01*
X177900500Y-76056725D01*
X177900500Y-76056723D01*
X177900499Y-76056721D01*
X177885967Y-75983664D01*
X177885966Y-75983663D01*
X177885966Y-75983660D01*
X177885964Y-75983657D01*
X177863669Y-75950288D01*
X177842792Y-75883610D01*
X177861278Y-75816230D01*
X177863654Y-75812531D01*
X177885966Y-75779140D01*
X177900500Y-75706074D01*
X177900500Y-74956726D01*
X177900500Y-74956725D01*
X177900500Y-74956723D01*
X177900499Y-74956721D01*
X177885967Y-74883664D01*
X177885966Y-74883660D01*
X177876628Y-74869685D01*
X177830601Y-74800799D01*
X177747740Y-74745434D01*
X177747739Y-74745433D01*
X177747735Y-74745432D01*
X177674677Y-74730900D01*
X177674674Y-74730900D01*
X176325326Y-74730900D01*
X176325323Y-74730900D01*
X176252264Y-74745432D01*
X176252260Y-74745433D01*
X176169398Y-74800799D01*
X176107248Y-74893815D01*
X176105243Y-74892475D01*
X176071970Y-74933760D01*
X176005675Y-74955821D01*
X176001256Y-74955900D01*
X175538299Y-74955900D01*
X175471260Y-74936215D01*
X175450618Y-74919581D01*
X174776649Y-74245611D01*
X174760522Y-74225752D01*
X174754586Y-74216667D01*
X174754583Y-74216663D01*
X174726574Y-74194863D01*
X174720810Y-74189772D01*
X174718015Y-74186977D01*
X174699005Y-74173406D01*
X174655689Y-74139690D01*
X174648774Y-74135948D01*
X174641700Y-74132490D01*
X174589096Y-74116829D01*
X174537158Y-74098999D01*
X174529423Y-74097708D01*
X174521585Y-74096731D01*
X174466744Y-74099000D01*
X171996308Y-74099000D01*
X171929269Y-74079315D01*
X171894257Y-74045438D01*
X171890483Y-74039970D01*
X171772240Y-73935217D01*
X171772238Y-73935216D01*
X171772237Y-73935215D01*
X171632365Y-73861803D01*
X171478986Y-73824000D01*
X171478985Y-73824000D01*
X171321015Y-73824000D01*
X171321014Y-73824000D01*
X171167634Y-73861803D01*
X171027762Y-73935215D01*
X170909516Y-74039971D01*
X170819781Y-74169975D01*
X170819780Y-74169976D01*
X170763762Y-74317681D01*
X170744722Y-74474499D01*
X170744722Y-74474500D01*
X166988743Y-74474500D01*
X166955389Y-74339175D01*
X166876334Y-74188549D01*
X166763529Y-74061218D01*
X166740666Y-74045437D01*
X166623530Y-73964584D01*
X166623529Y-73964583D01*
X166464475Y-73904261D01*
X166464470Y-73904260D01*
X166337974Y-73888901D01*
X166337972Y-73888901D01*
X166253228Y-73888901D01*
X166253226Y-73888901D01*
X166126729Y-73904260D01*
X166126724Y-73904261D01*
X165967670Y-73964583D01*
X165967669Y-73964584D01*
X165827671Y-74061217D01*
X165714866Y-74188549D01*
X165635809Y-74339178D01*
X165595101Y-74504344D01*
X165595101Y-74674455D01*
X162000500Y-74674455D01*
X162000500Y-66501876D01*
X162000613Y-66498132D01*
X162006482Y-66401100D01*
X162020082Y-66193596D01*
X162020962Y-66186501D01*
X162045836Y-66050771D01*
X162078944Y-65884326D01*
X162080547Y-65878029D01*
X162123922Y-65738834D01*
X162176160Y-65584946D01*
X162178311Y-65579481D01*
X162239520Y-65443481D01*
X162310211Y-65300136D01*
X162312733Y-65295530D01*
X162390083Y-65167577D01*
X162391550Y-65165270D01*
X162478995Y-65034400D01*
X162481718Y-65030639D01*
X162574343Y-64912412D01*
X162576487Y-64909827D01*
X162679905Y-64791901D01*
X162682629Y-64788992D01*
X162788992Y-64682629D01*
X162791901Y-64679905D01*
X162909827Y-64576487D01*
X162912412Y-64574343D01*
X163030639Y-64481718D01*
X163034400Y-64478995D01*
X163165270Y-64391550D01*
X163167577Y-64390083D01*
X163295530Y-64312733D01*
X163300136Y-64310211D01*
X163443481Y-64239520D01*
X163579481Y-64178311D01*
X163584946Y-64176160D01*
X163738812Y-64123929D01*
X163878029Y-64080547D01*
X163884326Y-64078944D01*
X164050771Y-64045836D01*
X164186501Y-64020962D01*
X164193596Y-64020082D01*
X164401027Y-64006486D01*
X164498131Y-64000613D01*
X164501876Y-64000500D01*
X191498123Y-64000500D01*
X191501867Y-64000613D01*
G37*
G04 #@! TD.AperFunction*
G04 #@! TD*
M02*
