G04 #@! TF.GenerationSoftware,KiCad,Pcbnew,7.0.7-7.0.7~ubuntu20.04.1*
G04 #@! TF.CreationDate,2024-03-24T22:46:20+02:00*
G04 #@! TF.ProjectId,rtl-module-breakout,72746c2d-6d6f-4647-956c-652d62726561,rev?*
G04 #@! TF.SameCoordinates,Original*
G04 #@! TF.FileFunction,Paste,Top*
G04 #@! TF.FilePolarity,Positive*
%FSLAX46Y46*%
G04 Gerber Fmt 4.6, Leading zero omitted, Abs format (unit mm)*
G04 Created by KiCad (PCBNEW 7.0.7-7.0.7~ubuntu20.04.1) date 2024-03-24 22:46:20*
%MOMM*%
%LPD*%
G01*
G04 APERTURE LIST*
G04 Aperture macros list*
%AMRoundRect*
0 Rectangle with rounded corners*
0 $1 Rounding radius*
0 $2 $3 $4 $5 $6 $7 $8 $9 X,Y pos of 4 corners*
0 Add a 4 corners polygon primitive as box body*
4,1,4,$2,$3,$4,$5,$6,$7,$8,$9,$2,$3,0*
0 Add four circle primitives for the rounded corners*
1,1,$1+$1,$2,$3*
1,1,$1+$1,$4,$5*
1,1,$1+$1,$6,$7*
1,1,$1+$1,$8,$9*
0 Add four rect primitives between the rounded corners*
20,1,$1+$1,$2,$3,$4,$5,0*
20,1,$1+$1,$4,$5,$6,$7,0*
20,1,$1+$1,$6,$7,$8,$9,0*
20,1,$1+$1,$8,$9,$2,$3,0*%
G04 Aperture macros list end*
%ADD10RoundRect,0.200000X-0.200000X-0.275000X0.200000X-0.275000X0.200000X0.275000X-0.200000X0.275000X0*%
%ADD11RoundRect,0.200000X-0.275000X0.200000X-0.275000X-0.200000X0.275000X-0.200000X0.275000X0.200000X0*%
%ADD12RoundRect,0.218750X-0.218750X-0.256250X0.218750X-0.256250X0.218750X0.256250X-0.218750X0.256250X0*%
%ADD13RoundRect,0.150000X-0.150000X0.512500X-0.150000X-0.512500X0.150000X-0.512500X0.150000X0.512500X0*%
%ADD14R,1.300000X0.300000*%
%ADD15R,2.200000X1.800000*%
%ADD16RoundRect,0.250000X0.475000X-0.250000X0.475000X0.250000X-0.475000X0.250000X-0.475000X-0.250000X0*%
%ADD17RoundRect,0.250000X-0.250000X-0.475000X0.250000X-0.475000X0.250000X0.475000X-0.250000X0.475000X0*%
%ADD18RoundRect,0.225000X-0.225000X-0.250000X0.225000X-0.250000X0.225000X0.250000X-0.225000X0.250000X0*%
%ADD19RoundRect,0.250000X-0.300000X0.300000X-0.300000X-0.300000X0.300000X-0.300000X0.300000X0.300000X0*%
%ADD20RoundRect,0.250000X-0.475000X0.250000X-0.475000X-0.250000X0.475000X-0.250000X0.475000X0.250000X0*%
%ADD21RoundRect,0.200000X0.200000X0.275000X-0.200000X0.275000X-0.200000X-0.275000X0.200000X-0.275000X0*%
%ADD22RoundRect,0.200000X0.275000X-0.200000X0.275000X0.200000X-0.275000X0.200000X-0.275000X-0.200000X0*%
%ADD23RoundRect,0.180000X0.420000X-0.820000X0.420000X0.820000X-0.420000X0.820000X-0.420000X-0.820000X0*%
%ADD24RoundRect,0.150000X0.350000X-0.850000X0.350000X0.850000X-0.350000X0.850000X-0.350000X-0.850000X0*%
%ADD25RoundRect,0.150000X-0.700000X0.150000X-0.700000X-0.150000X0.700000X-0.150000X0.700000X0.150000X0*%
%ADD26RoundRect,0.250000X-1.100000X0.250000X-1.100000X-0.250000X1.100000X-0.250000X1.100000X0.250000X0*%
%ADD27RoundRect,0.225000X0.225000X0.250000X-0.225000X0.250000X-0.225000X-0.250000X0.225000X-0.250000X0*%
%ADD28R,4.200000X1.400000*%
G04 APERTURE END LIST*
D10*
G04 #@! TO.C,R5*
X165550000Y-89100000D03*
X167200000Y-89100000D03*
G04 #@! TD*
D11*
G04 #@! TO.C,R4*
X169100000Y-83250000D03*
X169100000Y-84900000D03*
G04 #@! TD*
D12*
G04 #@! TO.C,D2*
X165612500Y-87500000D03*
X167187500Y-87500000D03*
G04 #@! TD*
D13*
G04 #@! TO.C,U3*
X174450000Y-92862500D03*
X173500000Y-92862500D03*
X172550000Y-92862500D03*
X172550000Y-95137500D03*
X173500000Y-95137500D03*
X174450000Y-95137500D03*
G04 #@! TD*
D14*
G04 #@! TO.C,J1*
X168850000Y-72750000D03*
X168850000Y-73250000D03*
X168850000Y-73750000D03*
X168850000Y-74250000D03*
X168850000Y-74750000D03*
X168850000Y-75250000D03*
X168850000Y-75750000D03*
X168850000Y-76250000D03*
X168850000Y-76750000D03*
X168850000Y-77250000D03*
X168850000Y-77750000D03*
X168850000Y-78250000D03*
D15*
X165600000Y-70850000D03*
X165600000Y-80150000D03*
G04 #@! TD*
D12*
G04 #@! TO.C,D1*
X178012500Y-99100000D03*
X179587500Y-99100000D03*
G04 #@! TD*
D16*
G04 #@! TO.C,C1*
X187900000Y-101000000D03*
X187900000Y-99100000D03*
G04 #@! TD*
D17*
G04 #@! TO.C,C2*
X167550000Y-91500000D03*
X169450000Y-91500000D03*
G04 #@! TD*
D18*
G04 #@! TO.C,C3*
X173525000Y-97000000D03*
X175075000Y-97000000D03*
G04 #@! TD*
D10*
G04 #@! TO.C,R6*
X173375000Y-79400000D03*
X175025000Y-79400000D03*
G04 #@! TD*
D19*
G04 #@! TO.C,D3*
X170000000Y-93400000D03*
X170000000Y-96200000D03*
G04 #@! TD*
D20*
G04 #@! TO.C,C5*
X174700000Y-83025000D03*
X174700000Y-84925000D03*
G04 #@! TD*
D21*
G04 #@! TO.C,R2*
X176450000Y-99100000D03*
X174800000Y-99100000D03*
G04 #@! TD*
D22*
G04 #@! TO.C,R3*
X170700000Y-84925000D03*
X170700000Y-83275000D03*
G04 #@! TD*
D23*
G04 #@! TO.C,U1*
X189900000Y-97000000D03*
X187900000Y-97000000D03*
X185900000Y-97000000D03*
X183900000Y-97000000D03*
X181900000Y-97000000D03*
X179900000Y-97000000D03*
D24*
X179250000Y-70000000D03*
X180750000Y-70000000D03*
X182250000Y-70000000D03*
X187600000Y-70000000D03*
X189100000Y-70000000D03*
X190600000Y-70000000D03*
G04 #@! TD*
D20*
G04 #@! TO.C,C4*
X172600000Y-83025000D03*
X172600000Y-84925000D03*
G04 #@! TD*
D25*
G04 #@! TO.C,J3*
X167200000Y-96125000D03*
X167200000Y-97375000D03*
X167200000Y-98625000D03*
X167200000Y-99875000D03*
D26*
X164000000Y-94275000D03*
X164000000Y-101725000D03*
G04 #@! TD*
D27*
G04 #@! TO.C,C6*
X175000000Y-77800000D03*
X173450000Y-77800000D03*
G04 #@! TD*
D28*
G04 #@! TO.C,L1*
X173000000Y-90500000D03*
X173000000Y-86800000D03*
G04 #@! TD*
M02*
