G04 #@! TF.GenerationSoftware,KiCad,Pcbnew,7.0.7-7.0.7~ubuntu20.04.1*
G04 #@! TF.CreationDate,2024-03-24T22:46:20+02:00*
G04 #@! TF.ProjectId,rtl-module-breakout,72746c2d-6d6f-4647-956c-652d62726561,rev?*
G04 #@! TF.SameCoordinates,Original*
G04 #@! TF.FileFunction,Legend,Bot*
G04 #@! TF.FilePolarity,Positive*
%FSLAX46Y46*%
G04 Gerber Fmt 4.6, Leading zero omitted, Abs format (unit mm)*
G04 Created by KiCad (PCBNEW 7.0.7-7.0.7~ubuntu20.04.1) date 2024-03-24 22:46:20*
%MOMM*%
%LPD*%
G01*
G04 APERTURE LIST*
%ADD10C,0.200000*%
%ADD11C,0.150000*%
%ADD12C,0.203200*%
%ADD13C,0.254000*%
%ADD14C,0.120000*%
G04 APERTURE END LIST*
D10*
X170973183Y-95037219D02*
X170639850Y-96037219D01*
X170639850Y-96037219D02*
X170306517Y-95037219D01*
X169973183Y-96037219D02*
X169973183Y-95370552D01*
X169973183Y-95037219D02*
X170020802Y-95084838D01*
X170020802Y-95084838D02*
X169973183Y-95132457D01*
X169973183Y-95132457D02*
X169925564Y-95084838D01*
X169925564Y-95084838D02*
X169973183Y-95037219D01*
X169973183Y-95037219D02*
X169973183Y-95132457D01*
X169496993Y-95370552D02*
X169496993Y-96037219D01*
X169496993Y-95465790D02*
X169449374Y-95418171D01*
X169449374Y-95418171D02*
X169354136Y-95370552D01*
X169354136Y-95370552D02*
X169211279Y-95370552D01*
X169211279Y-95370552D02*
X169116041Y-95418171D01*
X169116041Y-95418171D02*
X169068422Y-95513409D01*
X169068422Y-95513409D02*
X169068422Y-96037219D01*
X170830326Y-97647219D02*
X170830326Y-96647219D01*
X170830326Y-96647219D02*
X170592231Y-96647219D01*
X170592231Y-96647219D02*
X170449374Y-96694838D01*
X170449374Y-96694838D02*
X170354136Y-96790076D01*
X170354136Y-96790076D02*
X170306517Y-96885314D01*
X170306517Y-96885314D02*
X170258898Y-97075790D01*
X170258898Y-97075790D02*
X170258898Y-97218647D01*
X170258898Y-97218647D02*
X170306517Y-97409123D01*
X170306517Y-97409123D02*
X170354136Y-97504361D01*
X170354136Y-97504361D02*
X170449374Y-97599600D01*
X170449374Y-97599600D02*
X170592231Y-97647219D01*
X170592231Y-97647219D02*
X170830326Y-97647219D01*
X169830326Y-97266266D02*
X169068422Y-97266266D01*
X169449374Y-97647219D02*
X169449374Y-96885314D01*
X170830326Y-99257219D02*
X170830326Y-98257219D01*
X170830326Y-98257219D02*
X170592231Y-98257219D01*
X170592231Y-98257219D02*
X170449374Y-98304838D01*
X170449374Y-98304838D02*
X170354136Y-98400076D01*
X170354136Y-98400076D02*
X170306517Y-98495314D01*
X170306517Y-98495314D02*
X170258898Y-98685790D01*
X170258898Y-98685790D02*
X170258898Y-98828647D01*
X170258898Y-98828647D02*
X170306517Y-99019123D01*
X170306517Y-99019123D02*
X170354136Y-99114361D01*
X170354136Y-99114361D02*
X170449374Y-99209600D01*
X170449374Y-99209600D02*
X170592231Y-99257219D01*
X170592231Y-99257219D02*
X170830326Y-99257219D01*
X169830326Y-98876266D02*
X169068422Y-98876266D01*
X170306517Y-99914838D02*
X170401755Y-99867219D01*
X170401755Y-99867219D02*
X170544612Y-99867219D01*
X170544612Y-99867219D02*
X170687469Y-99914838D01*
X170687469Y-99914838D02*
X170782707Y-100010076D01*
X170782707Y-100010076D02*
X170830326Y-100105314D01*
X170830326Y-100105314D02*
X170877945Y-100295790D01*
X170877945Y-100295790D02*
X170877945Y-100438647D01*
X170877945Y-100438647D02*
X170830326Y-100629123D01*
X170830326Y-100629123D02*
X170782707Y-100724361D01*
X170782707Y-100724361D02*
X170687469Y-100819600D01*
X170687469Y-100819600D02*
X170544612Y-100867219D01*
X170544612Y-100867219D02*
X170449374Y-100867219D01*
X170449374Y-100867219D02*
X170306517Y-100819600D01*
X170306517Y-100819600D02*
X170258898Y-100771980D01*
X170258898Y-100771980D02*
X170258898Y-100438647D01*
X170258898Y-100438647D02*
X170449374Y-100438647D01*
X169830326Y-100867219D02*
X169830326Y-99867219D01*
X169830326Y-99867219D02*
X169258898Y-100867219D01*
X169258898Y-100867219D02*
X169258898Y-99867219D01*
X168782707Y-100867219D02*
X168782707Y-99867219D01*
X168782707Y-99867219D02*
X168544612Y-99867219D01*
X168544612Y-99867219D02*
X168401755Y-99914838D01*
X168401755Y-99914838D02*
X168306517Y-100010076D01*
X168306517Y-100010076D02*
X168258898Y-100105314D01*
X168258898Y-100105314D02*
X168211279Y-100295790D01*
X168211279Y-100295790D02*
X168211279Y-100438647D01*
X168211279Y-100438647D02*
X168258898Y-100629123D01*
X168258898Y-100629123D02*
X168306517Y-100724361D01*
X168306517Y-100724361D02*
X168401755Y-100819600D01*
X168401755Y-100819600D02*
X168544612Y-100867219D01*
X168544612Y-100867219D02*
X168782707Y-100867219D01*
D11*
X174466233Y-79867866D02*
X174966233Y-79867866D01*
X174966233Y-79867866D02*
X175066233Y-79834533D01*
X175066233Y-79834533D02*
X175132900Y-79767866D01*
X175132900Y-79767866D02*
X175166233Y-79667866D01*
X175166233Y-79667866D02*
X175166233Y-79601200D01*
X174532900Y-80167866D02*
X174499566Y-80201199D01*
X174499566Y-80201199D02*
X174466233Y-80267866D01*
X174466233Y-80267866D02*
X174466233Y-80434533D01*
X174466233Y-80434533D02*
X174499566Y-80501199D01*
X174499566Y-80501199D02*
X174532900Y-80534533D01*
X174532900Y-80534533D02*
X174599566Y-80567866D01*
X174599566Y-80567866D02*
X174666233Y-80567866D01*
X174666233Y-80567866D02*
X174766233Y-80534533D01*
X174766233Y-80534533D02*
X175166233Y-80134533D01*
X175166233Y-80134533D02*
X175166233Y-80567866D01*
X177921333Y-89786033D02*
X177521333Y-89786033D01*
X177721333Y-90486033D02*
X177721333Y-89786033D01*
X177288000Y-90486033D02*
X177288000Y-89786033D01*
X177288000Y-89786033D02*
X177021333Y-89786033D01*
X177021333Y-89786033D02*
X176954667Y-89819366D01*
X176954667Y-89819366D02*
X176921333Y-89852700D01*
X176921333Y-89852700D02*
X176888000Y-89919366D01*
X176888000Y-89919366D02*
X176888000Y-90019366D01*
X176888000Y-90019366D02*
X176921333Y-90086033D01*
X176921333Y-90086033D02*
X176954667Y-90119366D01*
X176954667Y-90119366D02*
X177021333Y-90152700D01*
X177021333Y-90152700D02*
X177288000Y-90152700D01*
X176621333Y-89852700D02*
X176588000Y-89819366D01*
X176588000Y-89819366D02*
X176521333Y-89786033D01*
X176521333Y-89786033D02*
X176354667Y-89786033D01*
X176354667Y-89786033D02*
X176288000Y-89819366D01*
X176288000Y-89819366D02*
X176254667Y-89852700D01*
X176254667Y-89852700D02*
X176221333Y-89919366D01*
X176221333Y-89919366D02*
X176221333Y-89986033D01*
X176221333Y-89986033D02*
X176254667Y-90086033D01*
X176254667Y-90086033D02*
X176654667Y-90486033D01*
X176654667Y-90486033D02*
X176221333Y-90486033D01*
X189016666Y-96246033D02*
X189249999Y-95912700D01*
X189416666Y-96246033D02*
X189416666Y-95546033D01*
X189416666Y-95546033D02*
X189149999Y-95546033D01*
X189149999Y-95546033D02*
X189083333Y-95579366D01*
X189083333Y-95579366D02*
X189049999Y-95612700D01*
X189049999Y-95612700D02*
X189016666Y-95679366D01*
X189016666Y-95679366D02*
X189016666Y-95779366D01*
X189016666Y-95779366D02*
X189049999Y-95846033D01*
X189049999Y-95846033D02*
X189083333Y-95879366D01*
X189083333Y-95879366D02*
X189149999Y-95912700D01*
X189149999Y-95912700D02*
X189416666Y-95912700D01*
X188349999Y-96246033D02*
X188749999Y-96246033D01*
X188549999Y-96246033D02*
X188549999Y-95546033D01*
X188549999Y-95546033D02*
X188616666Y-95646033D01*
X188616666Y-95646033D02*
X188683333Y-95712700D01*
X188683333Y-95712700D02*
X188749999Y-95746033D01*
D12*
G04 #@! TO.C,J2*
X164826200Y-84961200D02*
X162576200Y-84960220D01*
X174826200Y-84961200D02*
X168326200Y-84961200D01*
X162576200Y-84960220D02*
X162563500Y-70162180D01*
X177076200Y-74061200D02*
X177076200Y-71823200D01*
X162563500Y-70162180D02*
X164326200Y-70161200D01*
X168326200Y-70161200D02*
X174826200Y-70161200D01*
D13*
X177937690Y-74265550D02*
G75*
G03*
X177937690Y-74265550I-127000J0D01*
G01*
D14*
G04 #@! TO.C,TP2*
X177500000Y-88200000D02*
G75*
G03*
X177500000Y-88200000I-700000J0D01*
G01*
G04 #@! TO.C,TP6*
X168000000Y-99200000D02*
G75*
G03*
X168000000Y-99200000I-700000J0D01*
G01*
G04 #@! TO.C,TP7*
X168000000Y-97000000D02*
G75*
G03*
X168000000Y-97000000I-700000J0D01*
G01*
G04 #@! TO.C,TP3*
X168000000Y-101500000D02*
G75*
G03*
X168000000Y-101500000I-700000J0D01*
G01*
G04 #@! TO.C,R1*
X188662742Y-93977500D02*
X189137258Y-93977500D01*
X188662742Y-95022500D02*
X189137258Y-95022500D01*
G04 #@! TO.C,TP1*
X168000000Y-94800000D02*
G75*
G03*
X168000000Y-94800000I-700000J0D01*
G01*
G04 #@! TD*
M02*
