G04 #@! TF.GenerationSoftware,KiCad,Pcbnew,7.0.7-7.0.7~ubuntu20.04.1*
G04 #@! TF.CreationDate,2024-03-24T22:46:20+02:00*
G04 #@! TF.ProjectId,rtl-module-breakout,72746c2d-6d6f-4647-956c-652d62726561,rev?*
G04 #@! TF.SameCoordinates,Original*
G04 #@! TF.FileFunction,Soldermask,Top*
G04 #@! TF.FilePolarity,Negative*
%FSLAX46Y46*%
G04 Gerber Fmt 4.6, Leading zero omitted, Abs format (unit mm)*
G04 Created by KiCad (PCBNEW 7.0.7-7.0.7~ubuntu20.04.1) date 2024-03-24 22:46:20*
%MOMM*%
%LPD*%
G01*
G04 APERTURE LIST*
G04 Aperture macros list*
%AMRoundRect*
0 Rectangle with rounded corners*
0 $1 Rounding radius*
0 $2 $3 $4 $5 $6 $7 $8 $9 X,Y pos of 4 corners*
0 Add a 4 corners polygon primitive as box body*
4,1,4,$2,$3,$4,$5,$6,$7,$8,$9,$2,$3,0*
0 Add four circle primitives for the rounded corners*
1,1,$1+$1,$2,$3*
1,1,$1+$1,$4,$5*
1,1,$1+$1,$6,$7*
1,1,$1+$1,$8,$9*
0 Add four rect primitives between the rounded corners*
20,1,$1+$1,$2,$3,$4,$5,0*
20,1,$1+$1,$4,$5,$6,$7,0*
20,1,$1+$1,$6,$7,$8,$9,0*
20,1,$1+$1,$8,$9,$2,$3,0*%
G04 Aperture macros list end*
%ADD10C,0.150000*%
%ADD11RoundRect,0.200000X-0.200000X-0.275000X0.200000X-0.275000X0.200000X0.275000X-0.200000X0.275000X0*%
%ADD12RoundRect,0.200000X-0.275000X0.200000X-0.275000X-0.200000X0.275000X-0.200000X0.275000X0.200000X0*%
%ADD13RoundRect,0.218750X-0.218750X-0.256250X0.218750X-0.256250X0.218750X0.256250X-0.218750X0.256250X0*%
%ADD14RoundRect,0.150000X-0.150000X0.512500X-0.150000X-0.512500X0.150000X-0.512500X0.150000X0.512500X0*%
%ADD15R,1.300000X0.300000*%
%ADD16R,2.200000X1.800000*%
%ADD17RoundRect,0.250000X0.475000X-0.250000X0.475000X0.250000X-0.475000X0.250000X-0.475000X-0.250000X0*%
%ADD18C,0.700000*%
%ADD19C,4.400000*%
%ADD20RoundRect,0.250000X-0.250000X-0.475000X0.250000X-0.475000X0.250000X0.475000X-0.250000X0.475000X0*%
%ADD21RoundRect,0.225000X-0.225000X-0.250000X0.225000X-0.250000X0.225000X0.250000X-0.225000X0.250000X0*%
%ADD22RoundRect,0.250000X-0.300000X0.300000X-0.300000X-0.300000X0.300000X-0.300000X0.300000X0.300000X0*%
%ADD23RoundRect,0.250000X-0.475000X0.250000X-0.475000X-0.250000X0.475000X-0.250000X0.475000X0.250000X0*%
%ADD24RoundRect,0.200000X0.200000X0.275000X-0.200000X0.275000X-0.200000X-0.275000X0.200000X-0.275000X0*%
%ADD25RoundRect,0.200000X0.275000X-0.200000X0.275000X0.200000X-0.275000X0.200000X-0.275000X-0.200000X0*%
%ADD26RoundRect,0.180000X0.420000X-0.820000X0.420000X0.820000X-0.420000X0.820000X-0.420000X-0.820000X0*%
%ADD27RoundRect,0.150000X0.350000X-0.850000X0.350000X0.850000X-0.350000X0.850000X-0.350000X-0.850000X0*%
%ADD28RoundRect,0.150000X-0.700000X0.150000X-0.700000X-0.150000X0.700000X-0.150000X0.700000X0.150000X0*%
%ADD29RoundRect,0.250000X-1.100000X0.250000X-1.100000X-0.250000X1.100000X-0.250000X1.100000X0.250000X0*%
%ADD30RoundRect,0.225000X0.225000X0.250000X-0.225000X0.250000X-0.225000X-0.250000X0.225000X-0.250000X0*%
%ADD31R,4.200000X1.400000*%
%ADD32C,0.999997*%
G04 APERTURE END LIST*
D10*
X179000000Y-78000000D02*
X193500000Y-78000000D01*
X193500000Y-93000000D01*
X179000000Y-93000000D01*
X179000000Y-78000000D01*
G36*
X179000000Y-78000000D02*
G01*
X193500000Y-78000000D01*
X193500000Y-93000000D01*
X179000000Y-93000000D01*
X179000000Y-78000000D01*
G37*
X168665350Y-102406533D02*
X168432017Y-102073200D01*
X168265350Y-102406533D02*
X168265350Y-101706533D01*
X168265350Y-101706533D02*
X168532017Y-101706533D01*
X168532017Y-101706533D02*
X168598684Y-101739866D01*
X168598684Y-101739866D02*
X168632017Y-101773200D01*
X168632017Y-101773200D02*
X168665350Y-101839866D01*
X168665350Y-101839866D02*
X168665350Y-101939866D01*
X168665350Y-101939866D02*
X168632017Y-102006533D01*
X168632017Y-102006533D02*
X168598684Y-102039866D01*
X168598684Y-102039866D02*
X168532017Y-102073200D01*
X168532017Y-102073200D02*
X168265350Y-102073200D01*
X168865350Y-101706533D02*
X169098684Y-102406533D01*
X169098684Y-102406533D02*
X169332017Y-101706533D01*
X169532017Y-101773200D02*
X169565350Y-101739866D01*
X169565350Y-101739866D02*
X169632017Y-101706533D01*
X169632017Y-101706533D02*
X169798684Y-101706533D01*
X169798684Y-101706533D02*
X169865350Y-101739866D01*
X169865350Y-101739866D02*
X169898684Y-101773200D01*
X169898684Y-101773200D02*
X169932017Y-101839866D01*
X169932017Y-101839866D02*
X169932017Y-101906533D01*
X169932017Y-101906533D02*
X169898684Y-102006533D01*
X169898684Y-102006533D02*
X169498684Y-102406533D01*
X169498684Y-102406533D02*
X169932017Y-102406533D01*
X170365351Y-101706533D02*
X170432017Y-101706533D01*
X170432017Y-101706533D02*
X170498684Y-101739866D01*
X170498684Y-101739866D02*
X170532017Y-101773200D01*
X170532017Y-101773200D02*
X170565351Y-101839866D01*
X170565351Y-101839866D02*
X170598684Y-101973200D01*
X170598684Y-101973200D02*
X170598684Y-102139866D01*
X170598684Y-102139866D02*
X170565351Y-102273200D01*
X170565351Y-102273200D02*
X170532017Y-102339866D01*
X170532017Y-102339866D02*
X170498684Y-102373200D01*
X170498684Y-102373200D02*
X170432017Y-102406533D01*
X170432017Y-102406533D02*
X170365351Y-102406533D01*
X170365351Y-102406533D02*
X170298684Y-102373200D01*
X170298684Y-102373200D02*
X170265351Y-102339866D01*
X170265351Y-102339866D02*
X170232017Y-102273200D01*
X170232017Y-102273200D02*
X170198684Y-102139866D01*
X170198684Y-102139866D02*
X170198684Y-101973200D01*
X170198684Y-101973200D02*
X170232017Y-101839866D01*
X170232017Y-101839866D02*
X170265351Y-101773200D01*
X170265351Y-101773200D02*
X170298684Y-101739866D01*
X170298684Y-101739866D02*
X170365351Y-101706533D01*
X170865351Y-101773200D02*
X170898684Y-101739866D01*
X170898684Y-101739866D02*
X170965351Y-101706533D01*
X170965351Y-101706533D02*
X171132018Y-101706533D01*
X171132018Y-101706533D02*
X171198684Y-101739866D01*
X171198684Y-101739866D02*
X171232018Y-101773200D01*
X171232018Y-101773200D02*
X171265351Y-101839866D01*
X171265351Y-101839866D02*
X171265351Y-101906533D01*
X171265351Y-101906533D02*
X171232018Y-102006533D01*
X171232018Y-102006533D02*
X170832018Y-102406533D01*
X170832018Y-102406533D02*
X171265351Y-102406533D01*
X171865351Y-101939866D02*
X171865351Y-102406533D01*
X171698685Y-101673200D02*
X171532018Y-102173200D01*
X171532018Y-102173200D02*
X171965351Y-102173200D01*
D11*
G04 #@! TO.C,R5*
X165550000Y-89100000D03*
X167200000Y-89100000D03*
G04 #@! TD*
D12*
G04 #@! TO.C,R4*
X169100000Y-83250000D03*
X169100000Y-84900000D03*
G04 #@! TD*
D13*
G04 #@! TO.C,D2*
X165612500Y-87500000D03*
X167187500Y-87500000D03*
G04 #@! TD*
D14*
G04 #@! TO.C,U3*
X174450000Y-92862500D03*
X173500000Y-92862500D03*
X172550000Y-92862500D03*
X172550000Y-95137500D03*
X173500000Y-95137500D03*
X174450000Y-95137500D03*
G04 #@! TD*
D15*
G04 #@! TO.C,J1*
X168850000Y-72750000D03*
X168850000Y-73250000D03*
X168850000Y-73750000D03*
X168850000Y-74250000D03*
X168850000Y-74750000D03*
X168850000Y-75250000D03*
X168850000Y-75750000D03*
X168850000Y-76250000D03*
X168850000Y-76750000D03*
X168850000Y-77250000D03*
X168850000Y-77750000D03*
X168850000Y-78250000D03*
D16*
X165600000Y-70850000D03*
X165600000Y-80150000D03*
G04 #@! TD*
D13*
G04 #@! TO.C,D1*
X178012500Y-99100000D03*
X179587500Y-99100000D03*
G04 #@! TD*
D17*
G04 #@! TO.C,C1*
X187900000Y-101000000D03*
X187900000Y-99100000D03*
G04 #@! TD*
D18*
G04 #@! TO.C,H3*
X162850000Y-66500000D03*
X163333274Y-65333274D03*
X163333274Y-67666726D03*
X164500000Y-64850000D03*
D19*
X164500000Y-66500000D03*
D18*
X164500000Y-68150000D03*
X165666726Y-65333274D03*
X165666726Y-67666726D03*
X166150000Y-66500000D03*
G04 #@! TD*
D20*
G04 #@! TO.C,C2*
X167550000Y-91500000D03*
X169450000Y-91500000D03*
G04 #@! TD*
D21*
G04 #@! TO.C,C3*
X173525000Y-97000000D03*
X175075000Y-97000000D03*
G04 #@! TD*
D11*
G04 #@! TO.C,R6*
X173375000Y-79400000D03*
X175025000Y-79400000D03*
G04 #@! TD*
D22*
G04 #@! TO.C,D3*
X170000000Y-93400000D03*
X170000000Y-96200000D03*
G04 #@! TD*
D23*
G04 #@! TO.C,C5*
X174700000Y-83025000D03*
X174700000Y-84925000D03*
G04 #@! TD*
D24*
G04 #@! TO.C,R2*
X176450000Y-99100000D03*
X174800000Y-99100000D03*
G04 #@! TD*
D18*
G04 #@! TO.C,H1*
X189850000Y-100500000D03*
X190333274Y-99333274D03*
X190333274Y-101666726D03*
X191500000Y-98850000D03*
D19*
X191500000Y-100500000D03*
D18*
X191500000Y-102150000D03*
X192666726Y-99333274D03*
X192666726Y-101666726D03*
X193150000Y-100500000D03*
G04 #@! TD*
G04 #@! TO.C,H2*
X189850000Y-66500000D03*
X190333274Y-65333274D03*
X190333274Y-67666726D03*
X191500000Y-64850000D03*
D19*
X191500000Y-66500000D03*
D18*
X191500000Y-68150000D03*
X192666726Y-65333274D03*
X192666726Y-67666726D03*
X193150000Y-66500000D03*
G04 #@! TD*
D25*
G04 #@! TO.C,R3*
X170700000Y-84925000D03*
X170700000Y-83275000D03*
G04 #@! TD*
D26*
G04 #@! TO.C,U1*
X189900000Y-97000000D03*
X187900000Y-97000000D03*
X185900000Y-97000000D03*
X183900000Y-97000000D03*
X181900000Y-97000000D03*
X179900000Y-97000000D03*
D27*
X179250000Y-70000000D03*
X180750000Y-70000000D03*
X182250000Y-70000000D03*
X187600000Y-70000000D03*
X189100000Y-70000000D03*
X190600000Y-70000000D03*
G04 #@! TD*
D23*
G04 #@! TO.C,C4*
X172600000Y-83025000D03*
X172600000Y-84925000D03*
G04 #@! TD*
D28*
G04 #@! TO.C,J3*
X167200000Y-96125000D03*
X167200000Y-97375000D03*
X167200000Y-98625000D03*
X167200000Y-99875000D03*
D29*
X164000000Y-94275000D03*
X164000000Y-101725000D03*
G04 #@! TD*
D30*
G04 #@! TO.C,C6*
X175000000Y-77800000D03*
X173450000Y-77800000D03*
G04 #@! TD*
D31*
G04 #@! TO.C,L1*
X173000000Y-90500000D03*
X173000000Y-86800000D03*
G04 #@! TD*
D32*
G04 #@! TO.C,J2*
X166295600Y-82565000D03*
X166295600Y-74589400D03*
G04 #@! TD*
M02*
