M48
; DRILL file {KiCad 7.0.7-7.0.7~ubuntu20.04.1} date Sun Mar 24 22:46:20 2024
; FORMAT={-:-/ absolute / metric / decimal}
; #@! TF.CreationDate,2024-03-24T22:46:20+02:00
; #@! TF.GenerationSoftware,Kicad,Pcbnew,7.0.7-7.0.7~ubuntu20.04.1
; #@! TF.FileFunction,MixedPlating,1,2
FMAT,2
METRIC
; #@! TA.AperFunction,Plated,PTH,ViaDrill
T1C0.400
; #@! TA.AperFunction,Plated,PTH,ComponentDrill
T2C0.400
; #@! TA.AperFunction,Plated,PTH,ComponentDrill
T3C2.200
; #@! TA.AperFunction,NonPlated,NPTH,ComponentDrill
T4C1.000
%
G90
G05
T1
X162.8Y-97.5
X163.0Y-92.6
X164.1Y-83.9
X165.0Y-70.8
X165.1Y-99.8
X165.5Y-80.2
X166.5Y-90.9
X166.5Y-91.9
X167.1Y-69.4
X167.2Y-85.8
X167.3Y-97.375
X167.3Y-98.625
X168.0Y-89.1
X168.6Y-96.125
X168.9Y-81.0
X169.2Y-85.7
X169.9Y-82.4
X170.75Y-77.0
X171.4Y-74.474
X171.4Y-101.2
X171.7Y-95.1
X172.0Y-76.2
X172.0Y-98.2
X172.1Y-75.2
X172.6Y-82.0
X172.7Y-91.6
X173.3Y-98.1
X173.6Y-82.0
X173.7Y-85.7
X173.7Y-99.2
X173.9Y-88.8
X174.7Y-82.1
X175.25Y-92.0
X175.3Y-93.4
X175.6Y-78.6
X176.4Y-70.6
X176.8Y-85.7
X178.1Y-79.7
X178.2Y-80.8
X178.2Y-81.9
X178.2Y-83.0
X178.8Y-102.5
X179.2Y-68.1
X179.832Y-78.994
X179.832Y-81.534
X179.832Y-84.074
X179.832Y-86.614
X179.832Y-89.154
X179.832Y-91.694
X181.8Y-95.2
X182.3Y-68.2
X182.372Y-78.994
X182.372Y-81.534
X182.372Y-84.074
X182.372Y-86.614
X182.372Y-89.154
X182.372Y-91.694
X183.0Y-99.9
X184.912Y-78.994
X184.912Y-81.534
X184.912Y-84.074
X184.912Y-86.614
X184.912Y-89.154
X184.912Y-91.694
X185.5Y-101.7
X187.452Y-78.994
X187.452Y-81.534
X187.452Y-84.074
X187.452Y-86.614
X187.452Y-89.154
X187.452Y-91.694
X187.6Y-68.2
X188.0Y-95.5
X189.992Y-78.994
X189.992Y-81.534
X189.992Y-84.074
X189.992Y-86.614
X189.992Y-89.154
X189.992Y-91.694
X190.0Y-95.5
X192.532Y-78.994
X192.532Y-81.534
X192.532Y-84.074
X192.532Y-86.614
X192.532Y-89.154
X192.532Y-91.694
T2
X162.85Y-66.5
X163.333Y-65.333
X163.333Y-67.667
X164.5Y-64.85
X164.5Y-68.15
X165.667Y-65.333
X165.667Y-67.667
X166.15Y-66.5
X189.85Y-66.5
X189.85Y-100.5
X190.333Y-65.333
X190.333Y-67.667
X190.333Y-99.333
X190.333Y-101.667
X191.5Y-64.85
X191.5Y-68.15
X191.5Y-98.85
X191.5Y-102.15
X192.667Y-65.333
X192.667Y-67.667
X192.667Y-99.333
X192.667Y-101.667
X193.15Y-66.5
X193.15Y-100.5
T3
X164.5Y-66.5
X191.5Y-66.5
X191.5Y-100.5
T4
X166.296Y-74.589
X166.296Y-82.565
T0
M30
